  0
SECTION
  2
HEADER
  9
$ACADVER
  1
AC1015
  9
$ACADMAINTVER
 70
     6
  9
$DWGCODEPAGE
  3
ANSI_1252
  9
$INSBASE
 10
0.0
 20
0.0
 30
0.0
  9
$EXTMIN
 10
-361.0098872157
 20
-382.9692978283
 30
0.0
  9
$EXTMAX
 10
380.2090697203
 20
387.5354920514
 30
0.0
  9
$LIMMIN
 10
0.0
 20
0.0
  9
$LIMMAX
 10
420.0
 20
297.0
  9
$ORTHOMODE
 70
     0
  9
$REGENMODE
 70
     1
  9
$FILLMODE
 70
     1
  9
$QTEXTMODE
 70
     0
  9
$MIRRTEXT
 70
     1
  9
$LTSCALE
 40
1.0
  9
$ATTMODE
 70
     1
  9
$TEXTSIZE
 40
3.5
  9
$TRACEWID
 40
1.0
  9
$TEXTSTYLE
  7
Standard
  9
$CLAYER
  8
0
  9
$CELTYPE
  6
ByLayer
  9
$CECOLOR
 62
   256
  9
$CELTSCALE
 40
1.0
  9
$DISPSILH
 70
     0
  9
$DIMSCALE
 40
1.0
  9
$DIMASZ
 40
3.302
  9
$DIMEXO
 40
1.0
  9
$DIMDLI
 40
3.75
  9
$DIMRND
 40
0.0
  9
$DIMDLE
 40
0.0
  9
$DIMEXE
 40
1.0
  9
$DIMTP
 40
0.0
  9
$DIMTM
 40
0.0
  9
$DIMTXT
 40
3.5
  9
$DIMCEN
 40
2.5
  9
$DIMTSZ
 40
0.0
  9
$DIMTOL
 70
     0
  9
$DIMLIM
 70
     0
  9
$DIMTIH
 70
     1
  9
$DIMTOH
 70
     1
  9
$DIMSE1
 70
     0
  9
$DIMSE2
 70
     0
  9
$DIMTAD
 70
     1
  9
$DIMZIN
 70
     0
  9
$DIMBLK
  1

  9
$DIMASO
 70
     1
  9
$DIMSHO
 70
     1
  9
$DIMPOST
  1

  9
$DIMAPOST
  1

  9
$DIMALT
 70
     0
  9
$DIMALTD
 70
     3
  9
$DIMALTF
 40
0.0393700787
  9
$DIMLFAC
 40
1.0
  9
$DIMTOFL
 70
     1
  9
$DIMTVP
 40
0.0
  9
$DIMTIX
 70
     0
  9
$DIMSOXD
 70
     0
  9
$DIMSAH
 70
     0
  9
$DIMBLK1
  1

  9
$DIMBLK2
  1

  9
$DIMSTYLE
  2
ISO-25
  9
$DIMCLRD
 70
     0
  9
$DIMCLRE
 70
     0
  9
$DIMCLRT
 70
     0
  9
$DIMTFAC
 40
1.0
  9
$DIMGAP
 40
1.524
  9
$DIMJUST
 70
     0
  9
$DIMSD1
 70
     0
  9
$DIMSD2
 70
     0
  9
$DIMTOLJ
 70
     0
  9
$DIMTZIN
 70
     0
  9
$DIMALTZ
 70
     0
  9
$DIMALTTZ
 70
     0
  9
$DIMUPT
 70
     0
  9
$DIMDEC
 70
     2
  9
$DIMTDEC
 70
     2
  9
$DIMALTU
 70
     2
  9
$DIMALTTD
 70
     3
  9
$DIMTXSTY
  7
Standard
  9
$DIMAUNIT
 70
     0
  9
$DIMADEC
 70
     2
  9
$DIMALTRND
 40
0.0
  9
$DIMAZIN
 70
     0
  9
$DIMDSEP
 70
    44
  9
$DIMATFIT
 70
     3
  9
$DIMFRAC
 70
     0
  9
$DIMLDRBLK
  1

  9
$DIMLUNIT
 70
     2
  9
$DIMLWD
 70
    -2
  9
$DIMLWE
 70
    -2
  9
$DIMTMOVE
 70
     0
  9
$LUNITS
 70
     2
  9
$LUPREC
 70
     2
  9
$SKETCHINC
 40
1.0
  9
$FILLETRAD
 40
10.0
  9
$AUNITS
 70
     0
  9
$AUPREC
 70
     2
  9
$MENU
  1
.
  9
$ELEVATION
 40
0.0
  9
$PELEVATION
 40
0.0
  9
$THICKNESS
 40
0.0
  9
$LIMCHECK
 70
     0
  9
$CHAMFERA
 40
0.0
  9
$CHAMFERB
 40
0.0
  9
$CHAMFERC
 40
0.0
  9
$CHAMFERD
 40
0.0
  9
$SKPOLY
 70
     0
  9
$TDCREATE
 40
2458723.711084861
  9
$TDUCREATE
 40
2458723.877751528
  9
$TDUPDATE
 40
2458723.711155243
  9
$TDUUPDATE
 40
2458723.87782191
  9
$TDINDWG
 40
0.0000000116
  9
$TDUSRTIMER
 40
0.0000000116
  9
$USRTIMER
 70
     1
  9
$ANGBASE
 50
0.0
  9
$ANGDIR
 70
     0
  9
$PDMODE
 70
     0
  9
$PDSIZE
 40
-1.0
  9
$PLINEWID
 40
0.0
  9
$SPLFRAME
 70
     0
  9
$SPLINETYPE
 70
     6
  9
$SPLINESEGS
 70
     8
  9
$HANDSEED
  5
DB
  9
$SURFTAB1
 70
     6
  9
$SURFTAB2
 70
     6
  9
$SURFTYPE
 70
     6
  9
$SURFU
 70
     6
  9
$SURFV
 70
     6
  9
$UCSBASE
  2

  9
$UCSNAME
  2

  9
$UCSORG
 10
0.0
 20
0.0
 30
0.0
  9
$UCSXDIR
 10
1.0
 20
0.0
 30
0.0
  9
$UCSYDIR
 10
0.0
 20
1.0
 30
0.0
  9
$UCSORTHOREF
  2

  9
$UCSORTHOVIEW
 70
     0
  9
$UCSORGTOP
 10
0.0
 20
0.0
 30
0.0
  9
$UCSORGBOTTOM
 10
0.0
 20
0.0
 30
0.0
  9
$UCSORGLEFT
 10
0.0
 20
0.0
 30
0.0
  9
$UCSORGRIGHT
 10
0.0
 20
0.0
 30
0.0
  9
$UCSORGFRONT
 10
0.0
 20
0.0
 30
0.0
  9
$UCSORGBACK
 10
0.0
 20
0.0
 30
0.0
  9
$PUCSBASE
  2

  9
$PUCSNAME
  2

  9
$PUCSORG
 10
0.0
 20
0.0
 30
0.0
  9
$PUCSXDIR
 10
1.0
 20
0.0
 30
0.0
  9
$PUCSYDIR
 10
0.0
 20
1.0
 30
0.0
  9
$PUCSORTHOREF
  2

  9
$PUCSORTHOVIEW
 70
     0
  9
$PUCSORGTOP
 10
0.0
 20
0.0
 30
0.0
  9
$PUCSORGBOTTOM
 10
0.0
 20
0.0
 30
0.0
  9
$PUCSORGLEFT
 10
0.0
 20
0.0
 30
0.0
  9
$PUCSORGRIGHT
 10
0.0
 20
0.0
 30
0.0
  9
$PUCSORGFRONT
 10
0.0
 20
0.0
 30
0.0
  9
$PUCSORGBACK
 10
0.0
 20
0.0
 30
0.0
  9
$USERI1
 70
     0
  9
$USERI2
 70
     0
  9
$USERI3
 70
     0
  9
$USERI4
 70
     0
  9
$USERI5
 70
     0
  9
$USERR1
 40
0.0
  9
$USERR2
 40
0.0
  9
$USERR3
 40
0.0
  9
$USERR4
 40
0.0
  9
$USERR5
 40
0.0
  9
$WORLDVIEW
 70
     1
  9
$SHADEDGE
 70
     3
  9
$SHADEDIF
 70
    70
  9
$TILEMODE
 70
     1
  9
$MAXACTVP
 70
    64
  9
$PINSBASE
 10
0.0
 20
0.0
 30
0.0
  9
$PLIMCHECK
 70
     0
  9
$PEXTMIN
 10
1.0000000000E+20
 20
1.0000000000E+20
 30
1.0000000000E+20
  9
$PEXTMAX
 10
-1.0000000000E+20
 20
-1.0000000000E+20
 30
-1.0000000000E+20
  9
$PLIMMIN
 10
0.0
 20
0.0
  9
$PLIMMAX
 10
420.0
 20
297.0
  9
$UNITMODE
 70
     0
  9
$VISRETAIN
 70
     1
  9
$PLINEGEN
 70
     0
  9
$PSLTSCALE
 70
     1
  9
$TREEDEPTH
 70
  3020
  9
$CMLSTYLE
  2
Standard
  9
$CMLJUST
 70
     0
  9
$CMLSCALE
 40
20.0
  9
$PROXYGRAPHICS
 70
     1
  9
$MEASUREMENT
 70
     1
  9
$CELWEIGHT
370
    -1
  9
$ENDCAPS
280
     0
  9
$JOINSTYLE
280
     0
  9
$LWDISPLAY
290
     1
  9
$INSUNITS
 70
     4
  9
$HYPERLINKBASE
  1

  9
$STYLESHEET
  1

  9
$XEDIT
290
     1
  9
$CEPSNTYPE
380
     0
  9
$PSTYLEMODE
290
     1
  9
$FINGERPRINTGUID
  2
{519B36C6-7844-4EFC-8EA0-022B9553C204}
  9
$VERSIONGUID
  2
{FAEB1C32-E019-11D5-929B-00C0DF256EC4}
  9
$EXTNAMES
290
     1
  9
$PSVPSCALE
 40
0.0
  9
$OLESTARTUP
290
     0
  0
ENDSEC
  0
SECTION
  2
CLASSES
  0
CLASS
  1
ACDBDICTIONARYWDFLT
  2
AcDbDictionaryWithDefault
  3
ObjectDBX Classes
 90
        0
280
     0
281
     0
  0
CLASS
  1
VISUALSTYLE
  2
AcDbVisualStyle
  3
ObjectDBX Classes
 90
     4095
280
     0
281
     0
  0
CLASS
  1
MATERIAL
  2
AcDbMaterial
  3
ObjectDBX Classes
 90
     1153
280
     0
281
     0
  0
CLASS
  1
SCALE
  2
AcDbScale
  3
ObjectDBX Classes
 90
     1153
280
     0
281
     0
  0
CLASS
  1
TABLESTYLE
  2
AcDbTableStyle
  3
ObjectDBX Classes
 90
     4095
280
     0
281
     0
  0
CLASS
  1
MLEADERSTYLE
  2
AcDbMLeaderStyle
  3
ACDB_MLEADERSTYLE_CLASS
 90
     4095
280
     0
281
     0
  0
CLASS
  1
SUN
  2
AcDbSun
  3
SCENEOE
 90
     1153
280
     0
281
     0
  0
CLASS
  1
ACDBPLACEHOLDER
  2
AcDbPlaceHolder
  3
ObjectDBX Classes
 90
        0
280
     0
281
     0
  0
CLASS
  1
LAYOUT
  2
AcDbLayout
  3
ObjectDBX Classes
 90
        0
280
     0
281
     0
  0
ENDSEC
  0
SECTION
  2
TABLES
  0
TABLE
  2
VPORT
  5
8
330
0
100
AcDbSymbolTable
 70
     1
  0
VPORT
  5
29
330
8
100
AcDbSymbolTableRecord
100
AcDbViewportTableRecord
  2
*Active
 70
     0
 10
0.0
 20
0.0
 11
1.0
 21
1.0
 12
9.5995912523
 22
2.2830971116
 13
0.0
 23
0.0
 14
10.0
 24
10.0
 15
10.0
 25
10.0
 16
0.0
 26
0.0
 36
1.0
 17
0.0
 27
0.0
 37
0.0
 40
785.9148856772
 41
0.9619913681
 42
50.0
 43
0.0
 44
0.0
 50
0.0
 51
0.0
 71
     0
 72
   100
 73
     1
 74
     3
 75
     0
 76
     0
 77
     0
 78
     0
281
     0
 65
     1
110
0.0
120
0.0
130
0.0
111
1.0
121
0.0
131
0.0
112
0.0
122
1.0
132
0.0
 79
     0
146
0.0
  0
ENDTAB
  0
TABLE
  2
LTYPE
  5
5
330
0
100
AcDbSymbolTable
 70
     6
  0
LTYPE
  5
14
330
5
100
AcDbSymbolTableRecord
100
AcDbLinetypeTableRecord
  2
ByBlock
 70
     0
  3

 72
    65
 73
     0
 40
0.0
  0
LTYPE
  5
15
330
5
100
AcDbSymbolTableRecord
100
AcDbLinetypeTableRecord
  2
ByLayer
 70
     0
  3

 72
    65
 73
     0
 40
0.0
  0
LTYPE
  5
16
330
5
100
AcDbSymbolTableRecord
100
AcDbLinetypeTableRecord
  2
Continuous
 70
     0
  3
Solid line
 72
    65
 73
     0
 40
0.0
  0
LTYPE
  5
6E
330
5
100
AcDbSymbolTableRecord
100
AcDbLinetypeTableRecord
  2
HIDDEN
 70
     0
  3
Hidden __ __ __ __ __ __ __ __ __ __ __ __ __ __
 72
    65
 73
     2
 40
1.905
 49
1.27
 74
     0
 49
-0.635
 74
     0
  0
LTYPE
  5
6F
330
5
100
AcDbSymbolTableRecord
100
AcDbLinetypeTableRecord
  2
PHANTOM
 70
     0
  3
Phantom ______  __  __  ______  __  __  ______
 72
    65
 73
     6
 40
12.7
 49
6.35
 74
     0
 49
-1.27
 74
     0
 49
1.27
 74
     0
 49
-1.27
 74
     0
 49
1.27
 74
     0
 49
-1.27
 74
     0
  0
LTYPE
  5
70
330
5
100
AcDbSymbolTableRecord
100
AcDbLinetypeTableRecord
  2
CENTER
 70
     0
  3
Center ____ _ ____ _ ____ _ ____ _ ____ _ ____
 72
    65
 73
     4
 40
10.16
 49
6.35
 74
     0
 49
-1.27
 74
     0
 49
1.27
 74
     0
 49
-1.27
 74
     0
  0
LTYPE
  5
71
330
5
100
AcDbSymbolTableRecord
100
AcDbLinetypeTableRecord
  2
CENTERX2
 70
     0
  3
Center (2x) ________  __  ________  __  _____
 72
    65
 73
     4
 40
20.32
 49
12.7
 74
     0
 49
-2.54
 74
     0
 49
2.54
 74
     0
 49
-2.54
 74
     0
  0
LTYPE
  5
72
330
5
100
AcDbSymbolTableRecord
100
AcDbLinetypeTableRecord
  2
DOT2
 70
     0
  3
Dot (.5x) ........................................
 72
    65
 73
     2
 40
0.635
 49
0.0
 74
     0
 49
-0.635
 74
     0
  0
ENDTAB
  0
TABLE
  2
LAYER
  5
2
330
0
100
AcDbSymbolTable
 70
     1
  0
LAYER
  5
10
330
2
100
AcDbSymbolTableRecord
100
AcDbLayerTableRecord
  2
0
 70
     0
 62
     7
  6
Continuous
370
    -3
390
F
  0
ENDTAB
  0
TABLE
  2
STYLE
  5
3
330
0
100
AcDbSymbolTable
 70
     1
  0
STYLE
  5
11
330
3
100
AcDbSymbolTableRecord
100
AcDbTextStyleTableRecord
  2
Standard
 70
     0
 40
0.0
 41
1.0
 50
0.0
 71
     0
 42
3.5
  3
txt
  4

  0
ENDTAB
  0
TABLE
  2
VIEW
  5
6
330
0
100
AcDbSymbolTable
 70
     0
  0
ENDTAB
  0
TABLE
  2
UCS
  5
7
330
0
100
AcDbSymbolTable
 70
     0
  0
ENDTAB
  0
TABLE
  2
APPID
  5
9
330
0
100
AcDbSymbolTable
 70
     1
  0
APPID
  5
12
330
9
100
AcDbSymbolTableRecord
100
AcDbRegAppTableRecord
  2
ACAD
 70
     0
  0
ENDTAB
  0
TABLE
  2
DIMSTYLE
  5
A
330
0
100
AcDbSymbolTable
 70
     1
100
AcDbDimStyleTable
  0
DIMSTYLE
105
27
330
A
100
AcDbSymbolTableRecord
100
AcDbDimStyleTableRecord
  2
ISO-25
 70
     0
 41
2.5
 42
0.625
 43
3.75
 44
1.25
 73
     0
 74
     0
 77
     1
 78
     8
140
2.5
141
2.5
143
0.0393700787
147
0.625
171
     3
172
     1
178
     0
271
     2
272
     2
274
     3
278
    44
283
     0
284
     8
340
11
  0
ENDTAB
  0
TABLE
  2
BLOCK_RECORD
  5
1
330
0
100
AcDbSymbolTable
 70
     1
  0
BLOCK_RECORD
  5
1F
330
1
100
AcDbSymbolTableRecord
100
AcDbBlockTableRecord
  2
*Model_Space
340
22
  0
BLOCK_RECORD
  5
1B
330
1
100
AcDbSymbolTableRecord
100
AcDbBlockTableRecord
  2
*Paper_Space
340
1E
  0
BLOCK_RECORD
  5
23
330
1
100
AcDbSymbolTableRecord
100
AcDbBlockTableRecord
  2
*Paper_Space0
340
26
  0
ENDTAB
  0
ENDSEC
  0
SECTION
  2
BLOCKS
  0
BLOCK
  5
20
330
1F
100
AcDbEntity
  8
0
100
AcDbBlockBegin
  2
*Model_Space
 70
     0
 10
0.0
 20
0.0
 30
0.0
  3
*Model_Space
  1

  0
ENDBLK
  5
21
330
1F
100
AcDbEntity
  8
0
100
AcDbBlockEnd
  0
BLOCK
  5
1C
330
1B
100
AcDbEntity
 67
     1
  8
0
100
AcDbBlockBegin
  2
*Paper_Space
 70
     0
 10
0.0
 20
0.0
 30
0.0
  3
*Paper_Space
  1

  0
ENDBLK
  5
1D
330
1B
100
AcDbEntity
 67
     1
  8
0
100
AcDbBlockEnd
  0
BLOCK
  5
24
330
23
100
AcDbEntity
  8
0
100
AcDbBlockBegin
  2
*Paper_Space0
 70
     0
 10
0.0
 20
0.0
 30
0.0
  3
*Paper_Space0
  1

  0
ENDBLK
  5
25
330
23
100
AcDbEntity
  8
0
100
AcDbBlockEnd
  0
ENDSEC
  0
SECTION
  2
ENTITIES
  0
LWPOLYLINE
  5
73
330
1F
100
AcDbEntity
  8
0
  6
Continuous
 62
     7
100
AcDbPolyline
 90
      341
 70
   128
 43
0.0
 10
304.5947551727
 20
-358.7837498237
 10
298.9710064644
 20
-364.5082431451
 10
292.3774777662
 20
-368.5406026187
 10
284.9462094607
 20
-370.6653776588
 10
276.9931458155
 20
-371.7976489191
 10
268.8458035944
 20
-372.9235700155
 10
260.788016117
 20
-374.6911794924
 10
252.8948504646
 20
-376.1326403042
 10
245.1790793932
 20
-375.7979498974
 10
239.600079208
 20
-373.5938631552
 10
234.8663427831
 20
-369.7059144231
 10
231.8598390225
 20
-364.4225938925
 10
231.0853715785
 20
-358.3445738588
 10
232.4700074541
 20
-352.5479503675
 10
235.7963074119
 20
-347.8412338531
 10
240.5910028054
 20
-344.2108297999
 10
246.3385639498
 20
-341.5073383184
 10
255.6226229828
 20
-338.8607180017
 10
264.6354666069
 20
-337.1376192163
 10
273.0529921443
 20
-334.8942380748
 10
280.6467651257
 20
-330.6670350936
 10
286.8988497498
 20
-324.1643526443
 10
291.1101023378
 20
-316.2110521366
 10
292.8924296435
 20
-307.5622573041
 10
292.5956583334
 20
-298.6833329493
 10
290.6862383062
 20
-284.3543882553
 10
289.8538849852
 20
-270.1264885086
 10
290.8529391799
 20
-255.9563970133
 10
292.2162230763
 20
-241.7591096672
 10
291.5140747139
 20
-227.5235147178
 10
288.3017870845
 20
-214.245040038
 10
282.4994518646
 20
-201.8731630389
 10
274.1078407482
 20
-191.261455354
 10
264.2915997317
 20
-181.8448252109
 10
254.8847668976
 20
-172.06057416
 10
245.8221293799
 20
-161.9537820246
 10
236.9563975547
 20
-151.6709408046
 10
227.7244705431
 20
-138.8234164448
 10
220.0623231302
 20
-124.9418510306
 10
213.2334321093
 20
-110.648328537
 10
209.5235102867
 20
-103.7022269709
 10
205.8889918955
 20
-96.7221478975
 10
203.2599726876
 20
-89.1541599833
 10
202.338537376
 20
-82.053338495
 10
201.6233605733
 20
-74.9696760854
 10
200.1677841085
 20
-70.1411996591
 10
197.0885687618
 20
-66.547719406
 10
191.2571721945
 20
-64.0833658461
 10
184.8407139188
 20
-62.9335150634
 10
175.0019428314
 20
-62.4138926216
 10
166.3822942265
 20
-62.0043594691
 10
157.8187495242
 20
-60.583202667
 10
142.4535138145
 20
-57.08232297
 10
126.8169448397
 20
-55.6650177159
 10
109.0433775711
 20
-56.8449465375
 10
91.498320664
 20
-60.0288036686
 10
74.3211121832
 20
-64.8021415342
 10
57.9366985445
 20
-71.7657272913
 10
43.208670741
 20
-77.8673238632
 10
28.0892570237
 20
-82.9947280213
 10
13.5067065857
 20
-89.5360963707
 10
0.0916892059
 20
-98.1966493382
 10
-11.9877856602
 20
-108.6344898638
 10
-26.3152895072
 20
-123.9074546277
 10
-38.4096333139
 20
-140.8358866897
 10
-49.7277000003
 20
-158.6423336799
 10
-54.9783507375
 20
-168.7480071959
 10
-57.6423035691
 20
-179.6702382939
 10
-58.115171965
 20
-191.1704854759
 10
-57.9839796081
 20
-202.6389936404
 10
-58.3525463833
 20
-214.0067059359
 10
-59.9210267556
 20
-225.3615667275
 10
-63.0117932916
 20
-236.3725802187
 10
-68.3248398452
 20
-247.6995057567
 10
-74.6448767564
 20
-258.5614720513
 10
-80.5752460811
 20
-269.6097326264
 10
-85.9681308208
 20
-280.9414681366
 10
-91.3051582049
 20
-292.3313894828
 10
-100.0441250839
 20
-307.7921049714
 10
-110.4613178763
 20
-322.2424973407
 10
-120.1195514671
 20
-337.3157193439
 10
-128.2391940891
 20
-352.7767557051
 10
-130.703551072
 20
-357.7664267017
 10
-133.301563551
 20
-362.9366609485
 10
-136.1537239316
 20
-368.2485763799
 10
-139.5300196686
 20
-372.7616071755
 10
-143.9847715777
 20
-375.1850027211
 10
-149.3694245423
 20
-375.038405901
 10
-155.3419916014
 20
-373.244194504
 10
-166.3606732533
 20
-368.958736338
 10
-176.6913508839
 20
-366.0049605925
 10
-186.3423683438
 20
-363.0064943286
 10
-193.3148363626
 20
-359.4269198029
 10
-199.5324912883
 20
-354.2225540749
 10
-204.0307477357
 20
-347.4470061338
 10
-205.8491960011
 20
-339.3244194674
 10
-205.5107242782
 20
-335.2230273075
 10
-204.232899379
 20
-331.49387194
 10
-201.9529145235
 20
-328.4181843292
 10
-198.8231370785
 20
-326.034543311
 10
-191.2025530772
 20
-322.844913677
 10
-183.4516567686
 20
-320.9468790896
 10
-171.9104580688
 20
-318.8372024624
 10
-159.5912979296
 20
-315.5627367551
 10
-153.871712362
 20
-312.9503667322
 10
-149.2471375197
 20
-309.4727287296
 10
-146.3156786626
 20
-304.9730284101
 10
-145.2124670796
 20
-299.4945949841
 10
-145.8343344543
 20
-289.5592477568
 10
-147.229054445
 20
-279.474238013
 10
-148.0572633609
 20
-269.9113526057
 10
-148.2993176523
 20
-260.6090009904
 10
-148.0173823064
 20
-251.2609750808
 10
-147.3871792277
 20
-239.3784577488
 10
-147.4017374012
 20
-227.4918319419
 10
-148.3562432037
 20
-215.6868460972
 10
-149.1963864339
 20
-203.7574584143
 10
-150.0873658833
 20
-191.8402530692
 10
-153.3500520722
 20
-180.6558217792
 10
-159.0811961338
 20
-170.1734933361
 10
-165.2969169504
 20
-159.7406927522
 10
-170.3901066127
 20
-152.4671277002
 10
-176.730365642
 20
-146.4954936944
 10
-184.3165803248
 20
-141.8239394926
 10
-191.9477029902
 20
-137.2567221215
 10
-197.2804747175
 20
-133.0278547607
 10
-202.4128710556
 20
-128.4632261897
 10
-208.09392626
 20
-124.1105909796
 10
-214.8055139595
 20
-120.6836504105
 10
-219.9113945924
 20
-119.7341360658
 10
-224.2569372355
 20
-121.1158034135
 10
-227.8298387723
 20
-124.5863819926
 10
-231.0460262771
 20
-129.2436606568
 10
-235.5095358765
 20
-135.7226114518
 10
-240.8651695843
 20
-140.922541719
 10
-247.049721111
 20
-144.5431923497
 10
-253.8056375159
 20
-146.6242556591
 10
-263.2536512726
 20
-147.0847080053
 10
-272.6015543902
 20
-145.1352522221
 10
-281.1690986218
 20
-141.1091539065
 10
-288.4266280921
 20
-135.2799583212
 10
-294.265503793
 20
-127.7506615713
 10
-298.7267492237
 20
-118.7041111151
 10
-301.8559156273
 20
-111.9759995307
 10
-305.80507348
 20
-106.7855538581
 10
-311.3565872551
 20
-104.2442534843
 10
-318.35510559
 20
-103.7618890567
 10
-326.2533203504
 20
-104.03696066
 10
-334.4603045227
 20
-103.859173472
 10
-342.1203127518
 20
-102.6041537517
 10
-346.930076347
 20
-100.7164381958
 10
-350.4890346808
 20
-97.831090207
 10
-352.4675963166
 20
-93.8301484674
 10
-353.0102923761
 20
-88.9118290878
 10
-351.8470428515
 20
-80.4879460684
 10
-349.3053106024
 20
-71.8138521486
 10
-346.4091764231
 20
-63.8497114516
 10
-343.4509557054
 20
-56.5701446787
 10
-340.4064028076
 20
-49.5234273629
 10
-334.2449923162
 20
-35.2586168599
 10
-328.3992171036
 20
-20.6881000344
 10
-322.8107587561
 20
-7.9599668334
 10
-315.9167807234
 20
4.1797858542
 10
-309.2697917262
 20
16.293031017
 10
-304.2458352215
 20
29.2328726666
 10
-302.429365017
 20
36.3722777467
 10
-300.7938055037
 20
43.7338922917
 10
-298.4547825523
 20
50.5333891465
 10
-295.6741150185
 20
54.760046028
 10
-291.6013115034
 20
57.8431087068
 10
-286.4401566158
 20
59.3738253826
 10
-280.9491894123
 20
58.9539179053
 10
-276.0578598045
 20
56.7270873903
 10
-272.7007891704
 20
53.1219091689
 10
-270.8683830038
 20
48.5128275449
 10
-269.5349497223
 20
40.4504516707
 10
-267.8873279951
 20
32.0136416273
 10
-265.64588219
 20
26.7646823748
 10
-262.444551701
 20
22.3337733417
 10
-258.449790118
 20
19.1999821914
 10
-253.82168416
 20
17.6960363761
 10
-248.6861047337
 20
17.3682253288
 10
-243.1574785488
 20
17.499797762
 10
-234.3912501568
 20
17.0762836942
 10
-225.7416022539
 20
15.9521384677
 10
-220.5692384514
 20
15.7966397957
 10
-216.2488685549
 20
16.8445712624
 10
-213.0069565385
 20
19.5835048792
 10
-210.3071926531
 20
24.369720419
 10
-207.9952993424
 20
30.353121038
 10
-205.4530804739
 20
36.8919364662
 10
-201.5086587253
 20
44.375566854
 10
-196.6346338637
 20
50.2672949565
 10
-191.9870494189
 20
52.9096971132
 10
-187.1041893646
 20
52.4447228398
 10
-182.3529709319
 20
49.0520286715
 10
-177.3286257867
 20
42.2431269534
 10
-174.315998102
 20
34.6214508321
 10
-173.6244226228
 20
27.5642167297
 10
-173.6466216597
 20
20.2975831894
 10
-172.7249256965
 20
12.8309650805
 10
-170.2630809827
 20
4.8580666552
 10
-168.9382321522
 20
2.0571523795
 10
-167.6143379844
 20
0.1564145842
 10
-166.532967581
 20
-0.5106543125
 10
-165.7820094841
 20
-0.2514027199
 10
-164.7586769832
 20
1.5216424353
 10
-164.1443686145
 20
3.8532627964
 10
-163.4751420161
 20
9.3812500685
 10
-163.6999425363
 20
20.3761113757
 10
-165.1145628568
 20
28.503247403
 10
-166.4966827191
 20
35.3587907332
 10
-166.3557110173
 20
43.0314987998
 10
-163.2626191664
 20
50.9476221993
 10
-158.2353883188
 20
58.7299232842
 10
-147.9511888015
 20
71.0395224096
 10
-137.4411088459
 20
82.3797583714
 10
-126.8456254122
 20
93.977446221
 10
-117.6584190386
 20
103.7680833899
 10
-107.7369133364
 20
112.6739962129
 10
-96.7365446941
 20
120.2785768323
 10
-86.3660531665
 20
128.665224805
 10
-77.2388117432
 20
138.5280848414
 10
-66.9251033246
 20
146.7525210072
 10
-54.6516473671
 20
152.2329223003
 10
-41.9759213304
 20
156.7437932217
 10
-26.9915895814
 20
162.1265760153
 10
-11.864391445
 20
167.3505807616
 10
3.7776875324
 20
170.2144089677
 10
19.7764497777
 20
170.4360136457
 10
35.6949269375
 20
169.3708881784
 10
51.2460323355
 20
167.1500705041
 10
66.3799112512
 20
163.0811188093
 10
80.8351495328
 20
156.9892779723
 10
95.7897702001
 20
152.4096109421
 10
108.6542794907
 20
149.0228176664
 10
121.0596587983
 20
144.2406928627
 10
133.4146200274
 20
139.2917703154
 10
145.9779904622
 20
134.9467973898
 10
158.2872829495
 20
129.8299794049
 10
169.7037948244
 20
122.9457983681
 10
181.3962193131
 20
112.5494100853
 10
192.9694439773
 20
101.9335142861
 10
204.8953985752
 20
91.7569464145
 10
215.4104226159
 20
80.2278236353
 10
221.3995175255
 20
72.7932121331
 10
227.4370091172
 20
65.3628181164
 10
232.6639706937
 20
57.4504579176
 10
236.1458580874
 20
48.522697006
 10
238.7242868453
 20
39.2832633621
 10
240.9795807153
 20
33.3437893633
 10
243.8922160758
 20
27.7858508045
 10
246.9595517765
 20
21.4459444352
 10
249.8131379656
 20
14.0614929168
 10
251.1356025605
 20
12.0033729693
 10
252.3310586155
 20
11.4385187936
 10
254.8196855344
 20
12.9238236281
 10
258.0592294759
 20
17.3731648816
 10
261.1132168026
 20
22.584849376
 10
263.6807586293
 20
27.2258841947
 10
265.763429701
 20
31.4222430477
 10
268.1229299311
 20
37.722956614
 10
269.4787746941
 20
44.4695278528
 10
270.7621133422
 20
57.7597001536
 10
272.8574304415
 20
70.9301938767
 10
274.9089501415
 20
86.3194814169
 10
274.6198549865
 20
101.9966398718
 10
274.9944559136
 20
117.6846733517
 10
276.015595468
 20
130.8814905247
 10
276.7982461122
 20
144.0948580434
 10
277.6773966927
 20
157.320862796
 10
279.428003761
 20
170.4459369797
 10
282.5901255888
 20
183.3430320384
 10
284.980086195
 20
196.2950248917
 10
285.074107341
 20
211.8995157066
 10
285.3256681775
 20
227.5485871467
 10
287.2302463531
 20
243.0461223783
 10
290.0332268714
 20
258.4058003314
 10
293.3682748799
 20
276.6766098087
 10
295.8751802395
 20
295.1262706831
 10
299.6796381377
 20
313.2442140842
 10
306.634030894
 20
330.5165089439
 10
315.6915329716
 20
346.7848477965
 10
324.803814134
 20
362.4984965028
 10
327.6044397164
 20
367.5638784365
 10
330.6476674562
 20
372.7577192066
 10
334.0456598611
 20
376.8103073706
 10
337.9098544087
 20
378.3339684494
 10
341.4556785889
 20
377.241336924
 10
345.0263254423
 20
374.4509679169
 10
350.0839633157
 20
367.8653753558
 10
353.9275155521
 20
359.3317215754
 10
355.4009414324
 20
351.3800821424
 10
356.3102606141
 20
341.272331247
 10
358.4856205948
 20
331.050905552
 10
361.2834083367
 20
320.7094511084
 10
365.2681863456
 20
300.7881998398
 10
367.0579628646
 20
280.6457820108
 10
368.6415528861
 20
260.4405532727
 10
371.2337158394
 20
240.3374789405
 10
372.6207994627
 20
220.0982297021
 10
371.2640310803
 20
199.90785218
 10
368.561511776
 20
179.8001421555
 10
366.6223199523
 20
164.0007276964
 10
364.6249408371
 20
148.2040760475
 10
362.1216187798
 20
132.4781520204
 10
359.2408643398
 20
116.8252030823
 10
355.8677004927
 20
101.2565955677
 10
352.127937869
 20
85.7426162457
 10
350.733527209
 20
69.9606734334
 10
350.6008588345
 20
51.1356426255
 10
348.579647113
 20
32.505225698
 10
344.407221501
 20
14.2426001872
 10
338.368316546
 20
-3.6982579013
 10
334.3936576233
 20
-21.8447487286
 10
335.5630265944
 20
-40.6587300964
 10
334.8048169163
 20
-53.1944446612
 10
332.3129923485
 20
-65.6072959523
 10
329.9878099487
 20
-78.1077868874
 10
328.9073315198
 20
-90.6556910036
 10
329.7433412995
 20
-103.134073497
 10
332.1406632669
 20
-115.3177213559
 10
335.3470578557
 20
-127.4684962235
 10
339.5707945523
 20
-139.159669956
 10
346.0061040884
 20
-149.5198294337
 10
354.8581158418
 20
-160.6032554497
 10
361.8266618531
 20
-173.0977207335
 10
363.822352558
 20
-186.766830555
 10
361.3108467605
 20
-200.7973092491
 10
357.8579070797
 20
-214.5426249826
 10
354.6056920872
 20
-228.1540769818
 10
351.6848752968
 20
-241.9141985121
 10
348.679205253
 20
-255.6768622611
 10
344.684176578
 20
-270.922033575
 10
339.5503836759
 20
-285.840953679
 10
332.817532994
 20
-300.1017358375
 10
325.4528630793
 20
-314.0459963538
 10
320.806248988
 20
-325.4902818676
 10
316.7001607259
 20
-337.1901642324
 10
311.5595580388
 20
-348.4594509345
 10
304.5949306989
 20
-358.7837498237
  0
LWPOLYLINE
  5
74
330
1F
100
AcDbEntity
  8
0
  6
Continuous
 62
     7
100
AcDbPolyline
 90
       26
 70
   128
 43
0.0
 10
-314.2936229706
 20
-33.4119883719
 10
-311.2857256595
 20
-31.612715267
 10
-307.4488249238
 20
-30.9117530844
 10
-303.3280982782
 20
-31.0788751787
 10
-297.5986447041
 20
-32.5274556288
 10
-292.7147339962
 20
-35.1948075392
 10
-288.1933010619
 20
-39.3503475175
 10
-283.2627613579
 20
-43.4335210931
 10
-277.7100418017
 20
-46.0050950494
 10
-274.2122817942
 20
-48.1637438422
 10
-273.0986624172
 20
-50.7903619298
 10
-273.8696887951
 20
-54.1030162901
 10
-276.033519094
 20
-57.6957911813
 10
-279.0888322974
 20
-61.1568696278
 10
-283.7063607934
 20
-64.8689242061
 10
-288.4005506084
 20
-66.9770759764
 10
-293.0464616219
 20
-67.1361824635
 10
-297.572452091
 20
-65.3702035442
 10
-301.9839961037
 20
-62.5731664275
 10
-306.262552736
 20
-59.6363333225
 10
-311.8199597102
 20
-54.7834149242
 10
-315.4176885999
 20
-48.3213728199
 10
-316.3893531272
 20
-44.3769630049
 10
-316.6788662605
 20
-40.2411956574
 10
-316.0575077591
 20
-36.4166517602
 10
-314.2938128948
 20
-33.4119883719
  0
LWPOLYLINE
  5
75
330
1F
100
AcDbEntity
  8
0
  6
Continuous
 62
     7
100
AcDbPolyline
 90
       22
 70
   128
 43
0.0
 10
-230.0491333008
 20
-37.7268579036
 10
-222.2113630334
 20
-32.0630778204
 10
-214.1819276277
 20
-27.9476597902
 10
-209.496695056
 20
-26.6816647478
 10
-204.8399305458
 20
-26.9572642908
 10
-200.7820984895
 20
-29.5559761277
 10
-197.9058484143
 20
-33.8701023381
 10
-196.9348610001
 20
-37.1311708394
 10
-196.9241426903
 20
-40.3021252609
 10
-198.0065016686
 20
-43.0772214766
 10
-200.0105457365
 20
-45.4124555846
 10
-205.5530573875
 20
-49.0563051778
 10
-211.4368586447
 20
-51.6849537353
 10
-217.26081886
 20
-53.076741548
 10
-222.2453657231
 20
-53.0136287554
 10
-227.5585769174
 20
-51.6814943945
 10
-231.9905489648
 20
-49.6915499662
 10
-235.4661083466
 20
-47.0414678567
 10
-236.3845386809
 20
-44.7629972767
 10
-235.3371869107
 20
-42.3804811199
 10
-232.9540528014
 20
-40.0002620492
 10
-230.0492360995
 20
-37.7268579036
  0
LWPOLYLINE
  5
76
330
1F
100
AcDbEntity
  8
0
  6
Continuous
 62
     7
100
AcDbPolyline
 90
       41
 70
   128
 43
0.0
 10
-186.5110397339
 20
-89.2482183188
 10
-192.6796603153
 20
-88.3218992425
 10
-198.430427434
 20
-89.5682030602
 10
-203.7192539198
 20
-92.369523286
 10
-208.5021027121
 20
-96.1082713007
 10
-214.3135194823
 20
-101.5756108103
 10
-220.5692931504
 20
-106.6367267608
 10
-227.7093361523
 20
-110.3062568869
 10
-236.4754150881
 20
-111.9029987479
 10
-245.5633059721
 20
-112.2455806071
 10
-250.0069093182
 20
-111.6110822989
 10
-254.1971102479
 20
-109.1863523095
 10
-257.4702814563
 20
-105.0402761615
 10
-258.2885552238
 20
-102.9082810011
 10
-258.2915080912
 20
-101.0852526326
 10
-256.5247622205
 20
-99.3094529569
 10
-253.2691412319
 20
-98.2751981138
 10
-249.4902118568
 20
-97.2831857945
 10
-246.1538176077
 20
-95.6338482563
 10
-244.0869604951
 20
-92.8252372232
 10
-243.452370923
 20
-89.300892608
 10
-244.2143087448
 20
-85.7867269417
 10
-246.2562741603
 20
-82.880770248
 10
-250.9021217481
 20
-80.0792653416
 10
-256.2025563911
 20
-79.5217398304
 10
-260.9577337167
 20
-81.4092913697
 10
-264.7648983303
 20
-85.0657308634
 10
-268.2556920666
 20
-91.97921928
 10
-268.6067863643
 20
-99.5750201424
 10
-267.2965281893
 20
-104.2079412318
 10
-265.4132624017
 20
-108.8280393601
 10
-264.2111331322
 20
-112.3389539765
 10
-264.1272785933
 20
-114.4039533426
 10
-265.6479001944
 20
-115.8764977949
 10
-268.7474489814
 20
-116.191445248
 10
-272.9557788731
 20
-115.671844001
 10
-277.8027226389
 20
-114.6407555043
 10
-283.4089522105
 20
-113.2775788214
 10
-288.5659301448
 20
-112.1319188931
 10
-292.2078982121
 20
-111.6640980436
 10
-294.1732918323
 20
-111.8627580289
  0
CIRCLE
  5
77
330
1F
100
AcDbEntity
  8
0
  6
Continuous
 62
     7
370
    25
100
AcDbCircle
 10
-273.6066092086
 20
-48.9398681497
 30
0.0
 40
5.400000000000091
  0
CIRCLE
  5
78
330
1F
100
AcDbEntity
  8
0
  6
Continuous
 62
     7
370
    25
100
AcDbCircle
 10
-236.3828462041
 20
-45.0274930054
 30
0.0
 40
5.400000000000034
  0
CIRCLE
  5
79
330
1F
100
AcDbEntity
  8
0
  6
Continuous
 62
     7
370
    25
100
AcDbCircle
 10
-186.5110476747
 20
-89.2482183188
 30
0.0
 40
5.400000000000006
  0
CIRCLE
  5
7A
330
1F
100
AcDbEntity
  8
0
  6
Continuous
 62
     7
370
    25
100
AcDbCircle
 10
-264.1556876623
 20
-114.5010845274
 30
0.0
 40
5.400000000000034
  0
CIRCLE
  5
7B
330
1F
100
AcDbEntity
  8
0
  6
Continuous
 62
     7
370
    25
100
AcDbCircle
 10
-258.2088957283
 20
-100.8540520353
 30
0.0
 40
5.400000000000091
  0
CIRCLE
  5
7C
330
1F
100
AcDbEntity
  8
0
  6
Continuous
 62
     7
370
    25
100
AcDbCircle
 10
-266.8921490674
 20
-88.4653934043
 30
0.0
 40
5.39999999999992
  0
CIRCLE
  5
7D
330
1F
100
AcDbEntity
  8
0
  6
Continuous
 62
     7
370
    25
100
AcDbCircle
 10
-221.1222233419
 20
-107.0017438361
 30
0.0
 40
5.399999999999949
  0
CIRCLE
  5
7E
330
1F
100
AcDbEntity
  8
0
  6
Continuous
 62
     7
370
    25
100
AcDbCircle
 10
-256.1906200523
 20
-79.5201164169
 30
0.0
 40
5.400000000000063
  0
CIRCLE
  5
7F
330
1F
100
AcDbEntity
  8
0
  6
Continuous
 62
     7
370
    25
100
AcDbCircle
 10
-306.6502200101
 20
-106.135916817
 30
0.0
 40
5.399999999999977
  0
CIRCLE
  5
80
330
1F
100
AcDbEntity
  8
0
  6
Continuous
 62
     7
370
    25
100
AcDbCircle
 10
-205.9436712891
 20
-93.9782436314
 30
0.0
 40
5.400000000000034
  0
CIRCLE
  5
81
330
1F
100
AcDbEntity
  8
0
  6
Continuous
 62
     7
370
    25
100
AcDbCircle
 10
-241.7264784281
 20
-112.1436796432
 30
0.0
 40
5.400000000000006
  0
CIRCLE
  5
82
330
1F
100
AcDbEntity
  8
0
  6
Continuous
 62
     7
370
    25
100
AcDbCircle
 10
-285.0000184618
 20
59.4611798616
 30
0.0
 40
5.400000000000034
  0
SPLINE
  5
83
330
1F
100
AcDbEntity
  8
0
  6
Continuous
 62
     7
370
    25
100
AcDbSpline
210
0.0
220
0.0
230
1.0
 70
    11
 71
     3
 72
   671
 73
   667
 74
     0
 42
0.000000001
 43
0.00000001
 40
0.0
 40
0.0
 40
0.0
 40
0.0
 40
0.001953125
 40
0.00390625
 40
0.005859375
 40
0.0078125
 40
0.009765625
 40
0.01171875
 40
0.013671875
 40
0.015625
 40
0.017578125
 40
0.01953125
 40
0.0205078125
 40
0.021484375
 40
0.0234375
 40
0.02734375
 40
0.03125
 40
0.03515625
 40
0.0390625
 40
0.041015625
 40
0.04296875
 40
0.044921875
 40
0.0458984375
 40
0.046875
 40
0.048828125
 40
0.0498046875
 40
0.05078125
 40
0.0517578125
 40
0.052734375
 40
0.0537109375
 40
0.0546875
 40
0.056640625
 40
0.05859375
 40
0.0595703125
 40
0.060546875
 40
0.0615234375
 40
0.0625
 40
0.0634765625
 40
0.064453125
 40
0.0654296875
 40
0.06640625
 40
0.068359375
 40
0.0703125
 40
0.0712890625
 40
0.072265625
 40
0.07421875
 40
0.078125
 40
0.0791015625
 40
0.080078125
 40
0.08203125
 40
0.083984375
 40
0.0859375
 40
0.087890625
 40
0.08984375
 40
0.091796875
 40
0.0927734375
 40
0.09375
 40
0.095703125
 40
0.09765625
 40
0.099609375
 40
0.1005859375
 40
0.1015625
 40
0.1025390625
 40
0.103515625
 40
0.10546875
 40
0.1064453125
 40
0.107421875
 40
0.109375
 40
0.111328125
 40
0.11328125
 40
0.115234375
 40
0.1171875
 40
0.12109375
 40
0.123046875
 40
0.125
 40
0.126953125
 40
0.12890625
 40
0.130859375
 40
0.1328125
 40
0.13671875
 40
0.138671875
 40
0.140625
 40
0.142578125
 40
0.14453125
 40
0.1484375
 40
0.15234375
 40
0.15625
 40
0.158203125
 40
0.16015625
 40
0.1640625
 40
0.1650390625
 40
0.1653774020000489
 40
0.1658656832500489
 40
0.1661098238750489
 40
0.16796875
 40
0.171875
 40
0.173828125
 40
0.17578125
 40
0.1796875
 40
0.18359375
 40
0.1875
 40
0.19140625
 40
0.193359375
 40
0.1943359375
 40
0.1953125
 40
0.1962890625
 40
0.197265625
 40
0.19921875
 40
0.2001953125
 40
0.201171875
 40
0.2021484375
 40
0.203125
 40
0.2041015625
 40
0.205078125
 40
0.2060546875
 40
0.20703125
 40
0.2080078125
 40
0.208984375
 40
0.2099609375
 40
0.2109375
 40
0.2119140625
 40
0.21240234375
 40
0.212890625
 40
0.213134765625
 40
0.21337890625
 40
0.213623046875
 40
0.2138671875
 40
0.21435546875
 40
0.21484375
 40
0.2158203125
 40
0.216796875
 40
0.21728515625
 40
0.2177734375
 40
0.21875
 40
0.2197265625
 40
0.220703125
 40
0.22265625
 40
0.224609375
 40
0.2265625
 40
0.228515625
 40
0.23046875
 40
0.232421875
 40
0.234375
 40
0.236328125
 40
0.23828125
 40
0.240234375
 40
0.2421875
 40
0.244140625
 40
0.24609375
 40
0.25
 40
0.25390625
 40
0.255859375
 40
0.2578125
 40
0.259765625
 40
0.26171875
 40
0.263671875
 40
0.265625
 40
0.2666015625
 40
0.267578125
 40
0.2685546875
 40
0.26953125
 40
0.271484375
 40
0.2734375
 40
0.2744140625
 40
0.275390625
 40
0.27734375
 40
0.279296875
 40
0.28125
 40
0.283203125
 40
0.28515625
 40
0.287109375
 40
0.2890625
 40
0.291015625
 40
0.29296875
 40
0.296875
 40
0.30078125
 40
0.3046875
 40
0.30859375
 40
0.3125
 40
0.31640625
 40
0.318359375
 40
0.3203125
 40
0.322265625
 40
0.32421875
 40
0.328125
 40
0.33203125
 40
0.3359375
 40
0.337890625
 40
0.33984375
 40
0.341796875
 40
0.34375
 40
0.3447265625
 40
0.345703125
 40
0.34765625
 40
0.349609375
 40
0.3515625
 40
0.353515625
 40
0.35546875
 40
0.357421875
 40
0.359375
 40
0.361328125
 40
0.36328125
 40
0.365234375
 40
0.3671875
 40
0.369140625
 40
0.3701171875
 40
0.37109375
 40
0.373046875
 40
0.375
 40
0.376953125
 40
0.3779296875
 40
0.37890625
 40
0.380859375
 40
0.3828125
 40
0.3837890625
 40
0.384765625
 40
0.38671875
 40
0.388671875
 40
0.3896484375
 40
0.390625
 40
0.392578125
 40
0.39453125
 40
0.396484375
 40
0.3984375
 40
0.400390625
 40
0.40234375
 40
0.404296875
 40
0.40625
 40
0.408203125
 40
0.4091796875
 40
0.41015625
 40
0.412109375
 40
0.4140625
 40
0.416015625
 40
0.41796875
 40
0.419921875
 40
0.421875
 40
0.4228515625
 40
0.423828125
 40
0.42578125
 40
0.427734375
 40
0.4287109375
 40
0.4296875
 40
0.4306640625
 40
0.431640625
 40
0.43359375
 40
0.435546875
 40
0.4365234375
 40
0.43701171875
 40
0.4375
 40
0.439453125
 40
0.44140625
 40
0.4423828125
 40
0.443359375
 40
0.4443359375
 40
0.4453125
 40
0.447265625
 40
0.44921875
 40
0.451171875
 40
0.453125
 40
0.455078125
 40
0.45703125
 40
0.4609375
 40
0.462890625
 40
0.46484375
 40
0.466796875
 40
0.46875
 40
0.47265625
 40
0.474609375
 40
0.4765625
 40
0.48046875
 40
0.484375
 40
0.486328125
 40
0.48828125
 40
0.490234375
 40
0.4921875
 40
0.494140625
 40
0.49609375
 40
0.4970703125
 40
0.498046875
 40
0.5
 40
0.5009765625
 40
0.501953125
 40
0.5029296875
 40
0.50341796875
 40
0.50390625
 40
0.5048828125
 40
0.505859375
 40
0.5068359375
 40
0.5078125
 40
0.5087890625
 40
0.509765625
 40
0.51025390625
 40
0.5107421875
 40
0.51171875
 40
0.5126953125
 40
0.513671875
 40
0.5146484375
 40
0.515625
 40
0.51611328125
 40
0.5166015625
 40
0.51708984375
 40
0.517578125
 40
0.5185546875
 40
0.51953125
 40
0.5205078125
 40
0.521484375
 40
0.52197265625
 40
0.5224609375
 40
0.5234375
 40
0.5244140625
 40
0.525390625
 40
0.5263671875
 40
0.52685546875
 40
0.52734375
 40
0.5283203125
 40
0.529296875
 40
0.5302734375
 40
0.53125
 40
0.5322265625
 40
0.53271484375
 40
0.533203125
 40
0.53369140625
 40
0.5341796875
 40
0.53515625
 40
0.5361328125
 40
0.53662109375
 40
0.537109375
 40
0.5380859375
 40
0.53857421875
 40
0.5390625
 40
0.5400390625
 40
0.541015625
 40
0.5419921875
 40
0.54296875
 40
0.544921875
 40
0.5458984375
 40
0.546875
 40
0.548828125
 40
0.55078125
 40
0.552734375
 40
0.5546875
 40
0.556640625
 40
0.5576171875
 40
0.55859375
 40
0.560546875
 40
0.5625
 40
0.564453125
 40
0.56640625
 40
0.568359375
 40
0.5703125
 40
0.572265625
 40
0.57421875
 40
0.576171875
 40
0.5771484375
 40
0.578125
 40
0.580078125
 40
0.5810546875
 40
0.58203125
 40
0.5830078125
 40
0.583984375
 40
0.58447265625
 40
0.5849609375
 40
0.58544921875
 40
0.5859375
 40
0.5869140625
 40
0.587890625
 40
0.5888671875
 40
0.58984375
 40
0.5908203125
 40
0.591796875
 40
0.5927734375
 40
0.59375
 40
0.5947265625
 40
0.595703125
 40
0.5966796875
 40
0.59716796875
 40
0.59765625
 40
0.5986328125
 40
0.599609375
 40
0.6005859375
 40
0.6015625
 40
0.6025390625
 40
0.603515625
 40
0.6044921875
 40
0.60546875
 40
0.607421875
 40
0.609375
 40
0.611328125
 40
0.61328125
 40
0.6142578125
 40
0.615234375
 40
0.6162109375
 40
0.61669921875
 40
0.6171875
 40
0.6181640625
 40
0.619140625
 40
0.62109375
 40
0.6220703125
 40
0.623046875
 40
0.6240234375
 40
0.625
 40
0.626953125
 40
0.62890625
 40
0.630859375
 40
0.6328125
 40
0.634765625
 40
0.63671875
 40
0.6376953125
 40
0.638671875
 40
0.640625
 40
0.642578125
 40
0.6435546875
 40
0.64453125
 40
0.6455078125
 40
0.646484375
 40
0.6484375
 40
0.6494140625
 40
0.650390625
 40
0.6513671875
 40
0.65234375
 40
0.6533203125
 40
0.654296875
 40
0.6552734375
 40
0.65625
 40
0.6572265625
 40
0.658203125
 40
0.6591796875
 40
0.66015625
 40
0.662109375
 40
0.6630859375
 40
0.6640625
 40
0.666015625
 40
0.66796875
 40
0.669921875
 40
0.671875
 40
0.67578125
 40
0.677734375
 40
0.6796875
 40
0.681640625
 40
0.6826171875
 40
0.68359375
 40
0.6845703125
 40
0.685546875
 40
0.6865234375
 40
0.6875
 40
0.6884765625
 40
0.689453125
 40
0.68994140625
 40
0.6904296875
 40
0.69140625
 40
0.6923828125
 40
0.693359375
 40
0.6953125
 40
0.697265625
 40
0.69921875
 40
0.701171875
 40
0.7021484375
 40
0.703125
 40
0.7041015625
 40
0.705078125
 40
0.7060546875
 40
0.70703125
 40
0.70751953125
 40
0.7080078125
 40
0.708984375
 40
0.7099609375
 40
0.7109375
 40
0.7119140625
 40
0.712890625
 40
0.7138671875
 40
0.71484375
 40
0.716796875
 40
0.71875
 40
0.720703125
 40
0.72265625
 40
0.7236328125
 40
0.724609375
 40
0.7255859375
 40
0.7265625
 40
0.7275390625
 40
0.728515625
 40
0.7294921875
 40
0.73046875
 40
0.73095703125
 40
0.7314453125
 40
0.731689453125
 40
0.73193359375
 40
0.732421875
 40
0.73291015625
 40
0.7333984375
 40
0.734375
 40
0.73486328125
 40
0.7353515625
 40
0.736328125
 40
0.73828125
 40
0.740234375
 40
0.7421875
 40
0.744140625
 40
0.74609375
 40
0.748046875
 40
0.75
 40
0.751953125
 40
0.75390625
 40
0.755859375
 40
0.7578125
 40
0.76171875
 40
0.763671875
 40
0.765625
 40
0.767578125
 40
0.7685546875
 40
0.76953125
 40
0.771484375
 40
0.7734375
 40
0.7744140625
 40
0.775390625
 40
0.77734375
 40
0.779296875
 40
0.78125
 40
0.783203125
 40
0.78515625
 40
0.787109375
 40
0.7890625
 40
0.791015625
 40
0.79296875
 40
0.7939453125
 40
0.794921875
 40
0.796875
 40
0.798828125
 40
0.7998046875
 40
0.80078125
 40
0.802734375
 40
0.8046875
 40
0.806640625
 40
0.80859375
 40
0.8125
 40
0.814453125
 40
0.81640625
 40
0.8203125
 40
0.822265625
 40
0.82421875
 40
0.826171875
 40
0.828125
 40
0.830078125
 40
0.83203125
 40
0.833984375
 40
0.8349609375
 40
0.8359375
 40
0.837890625
 40
0.83984375
 40
0.841796875
 40
0.84375
 40
0.84765625
 40
0.849609375
 40
0.8515625
 40
0.85546875
 40
0.857421875
 40
0.859375
 40
0.8603515625
 40
0.861328125
 40
0.8623046875
 40
0.86328125
 40
0.865234375
 40
0.8671875
 40
0.86767578125
 40
0.8681640625
 40
0.869140625
 40
0.8701171875
 40
0.87109375
 40
0.8720703125
 40
0.873046875
 40
0.8740234375
 40
0.875
 40
0.8759765625
 40
0.876953125
 40
0.87744140625
 40
0.8779296875
 40
0.87890625
 40
0.8798828125
 40
0.880859375
 40
0.8818359375
 40
0.8828125
 40
0.88330078125
 40
0.8837890625
 40
0.884765625
 40
0.8857421875
 40
0.88671875
 40
0.8876953125
 40
0.888671875
 40
0.8896484375
 40
0.890625
 40
0.892578125
 40
0.89453125
 40
0.896484375
 40
0.8984375
 40
0.90234375
 40
0.90625
 40
0.91015625
 40
0.912109375
 40
0.9140625
 40
0.9150390625
 40
0.916015625
 40
0.91796875
 40
0.919921875
 40
0.9208984375
 40
0.921875
 40
0.923828125
 40
0.92578125
 40
0.9296875
 40
0.931640625
 40
0.93359375
 40
0.935546875
 40
0.9375
 40
0.939453125
 40
0.9404296875
 40
0.94140625
 40
0.943359375
 40
0.9453125
 40
0.9462890625
 40
0.947265625
 40
0.94921875
 40
0.951171875
 40
0.9521484375
 40
0.953125
 40
0.9541015625
 40
0.955078125
 40
0.95703125
 40
0.9580078125
 40
0.958984375
 40
0.9599609375
 40
0.9609375
 40
0.9619140625
 40
0.962890625
 40
0.96484375
 40
0.966796875
 40
0.96875
 40
0.970703125
 40
0.9716796875
 40
0.97265625
 40
0.9736328125
 40
0.97412109375
 40
0.974609375
 40
0.9755859375
 40
0.9765625
 40
0.9775390625
 40
0.978515625
 40
0.9794921875
 40
0.98046875
 40
0.9814453125
 40
0.982421875
 40
0.9833984375
 40
0.984375
 40
0.9853515625
 40
0.986328125
 40
0.98828125
 40
0.9892578125
 40
0.990234375
 40
0.9912109375
 40
0.9921875
 40
0.994140625
 40
0.9951171875
 40
0.99609375
 40
0.9970703125
 40
0.998046875
 40
0.9990234375
 40
1.0
 40
1.0
 40
1.0
 40
1.0
 10
310.7521716944781
 20
-362.6738159384499
 30
0.0
 10
312.4912164834784
 20
-360.5768330555074
 30
0.0
 10
315.6358057852347
 20
-356.2725877979203
 30
0.0
 10
319.5678628699134
 20
-349.4757071073171
 30
0.0
 10
322.8134432345328
 20
-342.4915777335675
 30
0.0
 10
325.4684347791307
 20
-335.4163819761677
 30
0.0
 10
327.7290623260598
 20
-328.6670885524418
 30
0.0
 10
329.9613690770489
 20
-322.3179583937067
 30
0.0
 10
332.4526813752603
 20
-316.5664580891041
 30
0.0
 10
335.5347152322197
 20
-310.6272456535275
 30
0.0
 10
338.9112802311109
 20
-304.4935484983714
 30
0.0
 10
341.7831269455869
 20
-299.1173214270485
 30
0.0
 10
343.9737171615312
 20
-294.5778899370409
 30
0.0
 10
346.0057018527202
 20
-290.0084432623499
 30
0.0
 10
349.2100935009247
 20
-281.9329204892525
 30
0.0
 10
352.9500570917448
 20
-270.3542985393651
 30
0.0
 10
356.7148788912486
 20
-256.5887996008139
 30
0.0
 10
359.9938484445515
 20
-242.8169208055148
 30
0.0
 10
362.4968198918814
 20
-231.3456223858354
 30
0.0
 10
364.4681213144533
 20
-222.1549335682716
 30
0.0
 10
365.9570534002827
 20
-215.2508958834465
 30
0.0
 10
367.2279080546526
 20
-209.4897332010577
 30
0.0
 10
368.275966364283
 20
-204.863550245572
 30
0.0
 10
369.3474357715081
 20
-200.2611517172452
 30
0.0
 10
370.491844436407
 20
-195.3559732577355
 30
0.0
 10
371.3815175928068
 20
-190.152668965205
 30
0.0
 10
371.8264741241244
 20
-186.0907854096756
 30
0.0
 10
371.9442775440921
 20
-181.8826360602726
 30
0.0
 10
371.6017371673137
 20
-177.4851495781262
 30
0.0
 10
370.7116590230485
 20
-173.1605544642882
 30
0.0
 10
368.9558161563887
 20
-167.6978318971252
 30
0.0
 10
365.8974970477637
 20
-161.3684197334515
 30
0.0
 10
362.1303088371482
 20
-155.667896940495
 30
0.0
 10
358.9404679121326
 20
-151.5233752742366
 30
0.0
 10
356.5954421291785
 20
-148.6541262717089
 30
0.0
 10
354.3533848533831
 20
-145.950708580364
 30
0.0
 10
352.2823115292255
 20
-143.379375339634
 30
0.0
 10
350.4275601530505
 20
-140.8923115043155
 30
0.0
 10
348.8552512313142
 20
-138.5012329457336
 30
0.0
 10
347.4939397061615
 20
-136.0160971536978
 30
0.0
 10
345.8242616857389
 20
-132.4009497142652
 30
0.0
 10
344.0192282161514
 20
-127.4293178308206
 30
0.0
 10
342.4489601426204
 20
-121.9839074978113
 30
0.0
 10
341.2117007092931
 20
-117.4102396184766
 30
0.0
 10
340.020138683665
 20
-112.9005631160295
 30
0.0
 10
338.1534157393096
 20
-105.1810384033887
 30
0.0
 10
337.01501110222
 20
-97.81948501419143
 30
0.0
 10
336.900316677802
 20
-91.85739071285784
 30
0.0
 10
337.058711947084
 20
-87.81237088564487
 30
0.0
 10
337.6462246191359
 20
-82.5705121882446
 30
0.0
 10
338.8100849393824
 20
-75.99745301024693
 30
0.0
 10
340.2321694019077
 20
-69.14806827456802
 30
0.0
 10
341.686984932412
 20
-62.0263525556594
 30
0.0
 10
342.9242281273722
 20
-54.60928920565775
 30
0.0
 10
343.5484267353343
 20
-48.19567032259084
 30
0.0
 10
343.6430069871199
 20
-42.85538496919497
 30
0.0
 10
343.4427856377343
 20
-37.65153221854762
 30
0.0
 10
342.8896916691115
 20
-31.53006542290416
 30
0.0
 10
342.3223952017347
 20
-24.80183666093342
 30
0.0
 10
342.3162043495857
 20
-19.76227677441035
 30
0.0
 10
342.736406313793
 20
-16.17041116294185
 30
0.0
 10
343.314517663591
 20
-13.35330887017544
 30
0.0
 10
344.123476311749
 20
-10.40512071788368
 30
0.0
 10
345.4584199672607
 20
-6.302248958231109
 30
0.0
 10
347.0848795689557
 20
-1.951541515017387
 30
0.0
 10
348.760502642648
 20
2.6736406878697
 30
0.0
 10
350.357462334966
 20
7.312299997270346
 30
0.0
 10
352.2187466491986
 20
13.17837124212921
 30
0.0
 10
354.1706923551164
 20
20.32304138805235
 30
0.0
 10
355.7827120789767
 20
27.58048159567644
 30
0.0
 10
357.0012040525854
 20
34.9694240500744
 30
0.0
 10
357.9801263061638
 20
44.93302186392445
 30
0.0
 10
358.2076140015118
 20
54.61231118499759
 30
0.0
 10
358.3258037032966
 20
64.00962621139095
 30
0.0
 10
358.4940715826816
 20
70.88279743329115
 30
0.0
 10
358.8697797136755
 20
77.57299433586259
 30
0.0
 10
359.5875027302039
 20
84.02213411342791
 30
0.0
 10
360.7016866127787
 20
90.56385298937926
 30
0.0
 10
362.5696688775715
 20
99.39115725936901
 30
0.0
 10
364.8405047195723
 20
108.4161963259948
 30
0.0
 10
367.1079514057348
 20
117.6748752995451
 30
0.0
 10
368.7022184418872
 20
124.7871498708671
 30
0.0
 10
370.0599111117393
 20
131.9433488108501
 30
0.0
 10
371.6121859799301
 20
141.430197634387
 30
0.0
 10
373.2136034706458
 20
153.1961605555772
 30
0.0
 10
374.9109164360581
 20
167.2120319421277
 30
0.0
 10
376.3161495679797
 20
178.8161077028167
 30
0.0
 10
377.5436058324922
 20
187.9944803687485
 30
0.0
 10
378.8897866882614
 20
197.2900019262246
 30
0.0
 10
379.9836888311003
 20
205.7377585226786
 30
0.0
 10
380.4124669355963
 20
212.3790779984803
 30
0.0
 10
380.5126136708116
 20
214.6938508222731
 30
0.0
 10
380.553104606023
 20
216.0746477651886
 30
0.0
 10
380.6113211717897
 20
219.4009915598748
 30
0.0
 10
380.4851769894379
 20
227.0323152340247
 30
0.0
 10
379.70979414317
 20
236.5621112983509
 30
0.0
 10
378.8897952577135
 20
245.8902392703044
 30
0.0
 10
378.097707443397
 20
255.257613997187
 30
0.0
 10
377.0948463862246
 20
266.9818054116667
 30
0.0
 10
375.7619824330157
 20
281.0896331144157
 30
0.0
 10
374.1837351047132
 20
295.1803253021454
 30
0.0
 10
372.5489729942601
 20
307.0174367164349
 30
0.0
 10
370.981697401774
 20
315.4270095704605
 30
0.0
 10
369.9326259747002
 20
320.2514944654434
 30
0.0
 10
369.0529619428473
 20
323.9027763607398
 30
0.0
 10
368.1010677379851
 20
327.488461484645
 30
0.0
 10
366.8271824395623
 20
332.1154036884562
 30
0.0
 10
365.63889646545
 20
336.5300191888491
 30
0.0
 10
364.7177822332288
 20
340.6885168538817
 30
0.0
 10
364.1940741522437
 20
343.6665146400478
 30
0.0
 10
363.881040830538
 20
346.4843887757851
 30
0.0
 10
363.6597598316465
 20
349.7129557716047
 30
0.0
 10
363.3990608069959
 20
353.3108381038159
 30
0.0
 10
362.9182303530448
 20
357.312262956749
 30
0.0
 10
362.0218248842481
 20
361.661580469071
 30
0.0
 10
360.4797783458552
 20
366.3420021952026
 30
0.0
 10
358.2832437006367
 20
370.9985336374098
 30
0.0
 10
355.585123142099
 20
375.4573126827545
 30
0.0
 10
352.416450062991
 20
379.5964091383997
 30
0.0
 10
348.7461904004832
 20
383.2504131018735
 30
0.0
 10
345.0610416773684
 20
385.7611224802262
 30
0.0
 10
341.3910000649088
 20
387.1579763029554
 30
0.0
 10
338.7189320872521
 20
387.5895435673876
 30
0.0
 10
336.4150689150719
 20
387.5137024722287
 30
0.0
 10
334.6444355034973
 20
387.2110335625043
 30
0.0
 10
332.9319882941746
 20
386.6555587033356
 30
0.0
 10
330.9268052428601
 20
385.6973012762116
 30
0.0
 10
328.8715628439032
 20
384.2380738812996
 30
0.0
 10
326.3098332760031
 20
381.7195253301065
 30
0.0
 10
323.9281012766298
 20
378.4395647307185
 30
0.0
 10
321.9990127285407
 20
375.1588494928911
 30
0.0
 10
320.6103283159236
 20
372.6553760163819
 30
0.0
 10
319.3240102307134
 20
370.3288756454285
 30
0.0
 10
317.7350131007045
 20
367.5215001035887
 30
0.0
 10
315.8623874742223
 20
364.2817935926911
 30
0.0
 10
313.4066325145525
 20
360.1039871183717
 30
0.0
 10
310.4104763562236
 20
355.0847157907958
 30
0.0
 10
306.923841506754
 20
349.1942125275836
 30
0.0
 10
303.5470904617395
 20
343.2505343254267
 30
0.0
 10
300.2967767578541
 20
337.0867055283055
 30
0.0
 10
297.1858754645368
 20
330.5239275539982
 30
0.0
 10
294.3183839419186
 20
323.5827456528804
 30
0.0
 10
291.8211293276323
 20
316.3565045532131
 30
0.0
 10
289.8380182303048
 20
308.8407419541693
 30
0.0
 10
288.4726145016812
 20
301.4505188139141
 30
0.0
 10
287.4616907953405
 20
294.2382717216186
 30
0.0
 10
286.6051109638415
 20
287.2130565763283
 30
0.0
 10
285.711867094235
 20
280.4717895695441
 30
0.0
 10
284.2190309855743
 20
271.5255814506865
 30
0.0
 10
281.9658827201149
 20
260.1154616888264
 30
0.0
 10
279.7311309410287
 20
248.3718208584366
 30
0.0
 10
278.288442425766
 20
238.7505379790199
 30
0.0
 10
277.4638744228722
 20
231.4200119549751
 30
0.0
 10
276.9686800272512
 20
223.9767845006456
 30
0.0
 10
276.9454793373793
 20
216.4011955370342
 30
0.0
 10
277.1862435504824
 20
209.2785455287283
 30
0.0
 10
277.265280071165
 20
203.6806718340516
 30
0.0
 10
277.111377431323
 20
199.4389112874346
 30
0.0
 10
276.8575687832484
 20
196.3825126817118
 30
0.0
 10
276.4289722226013
 20
193.4337514650204
 30
0.0
 10
275.6006947786653
 20
189.3031362176962
 30
0.0
 10
274.2021845428284
 20
183.8731165997445
 30
0.0
 10
272.6294767573353
 20
178.0527632141596
 30
0.0
 10
271.5133896928086
 20
173.1136058369526
 30
0.0
 10
270.5804960126662
 20
168.2035933544534
 30
0.0
 10
269.6953216000967
 20
162.0869528732485
 30
0.0
 10
268.9873641206548
 20
154.801492191685
 30
0.0
 10
268.5295122010199
 20
147.5708750692094
 30
0.0
 10
268.2239134549401
 20
140.3960730537798
 30
0.0
 10
267.9784735800914
 20
133.2775563826692
 30
0.0
 10
267.6956822709019
 20
126.2082873688415
 30
0.0
 10
267.3254463123561
 20
119.1594900669568
 30
0.0
 10
266.8671279441725
 20
112.28433284443
 30
0.0
 10
266.1249659502348
 20
103.5438954236255
 30
0.0
 10
264.9373124923594
 20
93.56235825881879
 30
0.0
 10
263.0916928022617
 20
83.19804757862191
 30
0.0
 10
260.8426024333633
 20
74.61400165703199
 30
0.0
 10
258.2664842576688
 20
68.00140489982546
 30
0.0
 10
255.5609912334131
 20
63.57851574972029
 30
0.0
 10
253.622856360403
 20
61.80101099863589
 30
0.0
 10
252.4626223915876
 20
61.17681804420519
 30
0.0
 10
251.6835608109567
 20
60.93549259476919
 30
0.0
 10
250.7854335147277
 20
60.84302223629796
 30
0.0
 10
249.1455778212118
 20
60.9921291751706
 30
0.0
 10
245.971117469267
 20
62.06819606803386
 30
0.0
 10
240.5474761926272
 20
65.63512330355593
 30
0.0
 10
235.03368257575
 20
70.7034111649823
 30
0.0
 10
230.1066034670948
 20
76.06302240584611
 30
0.0
 10
226.2078619485855
 20
80.71804760154534
 30
0.0
 10
221.8716098267794
 20
86.1868991164307
 30
0.0
 10
217.8680500862479
 20
91.02712215969005
 30
0.0
 10
214.3837507885914
 20
94.87471298738897
 30
0.0
 10
210.6740430587835
 20
98.62899767201469
 30
0.0
 10
205.9755357534999
 20
102.8155761676801
 30
0.0
 10
200.4351871429055
 20
107.3773741413193
 30
0.0
 10
195.1604049405363
 20
111.7227021931151
 30
0.0
 10
190.4229707972998
 20
116.0495065730502
 30
0.0
 10
185.4799380545941
 20
121.0003148803947
 30
0.0
 10
180.1168717646355
 20
126.1658685109205
 30
0.0
 10
173.920062942191
 20
131.165985069722
 30
0.0
 10
167.3414174081678
 20
135.3847048527474
 30
0.0
 10
160.4891260423298
 20
138.9879410047836
 30
0.0
 10
153.4312951866511
 20
142.0077662214516
 30
0.0
 10
146.4961372811777
 20
144.4847281857152
 30
0.0
 10
140.9260892691821
 20
146.3478763344193
 30
0.0
 10
136.6215781151448
 20
147.8465661965091
 30
0.0
 10
132.475933045629
 20
149.3747893011951
 30
0.0
 10
127.2447097123325
 20
151.5269209474696
 30
0.0
 10
120.6898798956096
 20
154.3072966887968
 30
0.0
 10
114.9548128931317
 20
156.5635131832521
 30
0.0
 10
110.1402171527611
 20
158.1956528151179
 30
0.0
 10
105.1852291409633
 20
159.6346037699387
 30
0.0
 10
99.25955762507638
 20
161.0282675299524
 30
0.0
 10
93.72983411485994
 20
162.3289095369983
 30
0.0
 10
89.61660902321725
 20
163.4960368561792
 30
0.0
 10
85.76595327032992
 20
164.7949760600989
 30
0.0
 10
80.71373893369532
 20
166.9138103305414
 30
0.0
 10
75.2954443887752
 20
169.3515158160949
 30
0.0
 10
70.65466578683507
 20
171.2628152094425
 30
0.0
 10
65.76010908703992
 20
173.0444121161595
 30
0.0
 10
59.62054749270441
 20
174.8099434631192
 30
0.0
 10
52.23342759365515
 20
176.388988651821
 30
0.0
 10
44.92027487082399
 20
177.5547968392488
 30
0.0
 10
37.68800130218015
 20
178.4606958737537
 30
0.0
 10
30.42229643385302
 20
179.1348655039202
 30
0.0
 10
23.14082562686141
 20
179.5730959889814
 30
0.0
 10
15.85810780187262
 20
179.7755121645473
 30
0.0
 10
8.47501431980724
 20
179.7571738398319
 30
0.0
 10
2.125117216591643
 20
179.3864960515229
 30
0.0
 10
-3.008790700406855
 20
178.7564361776055
 30
0.0
 10
-8.198774742910086
 20
177.8476765119051
 30
0.0
 10
-14.41990475812868
 20
176.2443458840856
 30
0.0
 10
-21.5103535447404
 20
173.9008391068291
 30
0.0
 10
-28.28110297566264
 20
171.3950716893874
 30
0.0
 10
-34.76914220946803
 20
169.0063460547898
 30
0.0
 10
-41.33090779256426
 20
166.670692293876
 30
0.0
 10
-46.83937917190864
 20
164.7294016666955
 30
0.0
 10
-51.29641499947623
 20
163.15430986556
 30
0.0
 10
-55.77490764203375
 20
161.5671471045792
 30
0.0
 10
-61.63798402313581
 20
159.4242131035946
 30
0.0
 10
-67.62498594748487
 20
156.7676628397808
 30
0.0
 10
-72.34132300731508
 20
154.1203977078846
 30
0.0
 10
-75.81289201981924
 20
151.805288356297
 30
0.0
 10
-79.08763735041782
 20
149.1361046341284
 30
0.0
 10
-82.93745097737542
 20
145.4664588364109
 30
0.0
 10
-87.12873538917789
 20
140.8227918020013
 30
0.0
 10
-90.89980314144796
 20
136.6162915140848
 30
0.0
 10
-93.4659263656579
 20
134.1067495232254
 30
0.0
 10
-94.92333549432259
 20
132.8200200460953
 30
0.0
 10
-97.2482127136278
 20
130.9037947377889
 30
0.0
 10
-101.1634798791073
 20
128.1160419055315
 30
0.0
 10
-106.0910384002597
 20
124.9012938466738
 30
0.0
 10
-110.1959634303678
 20
122.0649194398725
 30
0.0
 10
-113.3356764189523
 20
119.7082018317786
 30
0.0
 10
-116.3148531326873
 20
117.2293192688424
 30
0.0
 10
-120.0948659302072
 20
113.824434192583
 30
0.0
 10
-124.5093571372092
 20
109.4402962480642
 30
0.0
 10
-129.4397001314512
 20
104.1843342991547
 30
0.0
 10
-134.158247779191
 20
99.12613810625447
 30
0.0
 10
-138.9279886874
 20
94.00253745386355
 30
0.0
 10
-143.7251425297993
 20
88.75857107454553
 30
0.0
 10
-150.264492103969
 20
81.38155931775263
 30
0.0
 10
-156.7438010206361
 20
73.76080883096758
 30
0.0
 10
-162.3137518255317
 20
67.77268974177656
 30
0.0
 10
-165.8974581291893
 20
64.39287991421877
 30
0.0
 10
-168.974999180312
 20
61.91825083251015
 30
0.0
 10
-172.3649835633657
 20
59.71661335883129
 30
0.0
 10
-174.6420281452
 20
58.87742693161935
 30
0.0
 10
-176.0961162230876
 20
58.66510020075604
 30
0.0
 10
-177.3029918566384
 20
58.67854411476851
 30
0.0
 10
-178.9596567526832
 20
59.03637646736085
 30
0.0
 10
-181.542534389276
 20
60.07673858712131
 30
0.0
 10
-184.3880446273502
 20
61.10493632632127
 30
0.0
 10
-187.0280719600193
 20
61.79477533321207
 30
0.0
 10
-190.2255146784044
 20
62.11960175808246
 30
0.0
 10
-193.8031868857532
 20
61.7283764281637
 30
0.0
 10
-197.3584577150592
 20
60.4804343921799
 30
0.0
 10
-200.0927539524882
 20
58.84172764799094
 30
0.0
 10
-202.1697414334859
 20
57.22115342508832
 30
0.0
 10
-204.1808417669155
 20
55.42444284624386
 30
0.0
 10
-206.3782800576581
 20
53.03023997819675
 30
0.0
 10
-208.5114873765228
 20
49.98523421164363
 30
0.0
 10
-210.0594641036901
 20
47.35936901385806
 30
0.0
 10
-211.2931170305653
 20
44.86100685956861
 30
0.0
 10
-212.2410444297133
 20
42.66708283955819
 30
0.0
 10
-213.1698533110393
 20
40.30787602340867
 30
0.0
 10
-214.213466248215
 20
37.31526046954017
 30
0.0
 10
-215.4259919205498
 20
33.78867088920956
 30
0.0
 10
-216.6662500594211
 20
30.52120604916473
 30
0.0
 10
-217.947243928234
 20
27.77510974353261
 30
0.0
 10
-219.1699587194508
 20
25.85699251288845
 30
0.0
 10
-219.9221871854666
 20
25.15734548702227
 30
0.0
 10
-220.0708877152877
 20
25.06975854850141
 30
0.0
 10
-220.3082380962417
 20
24.9534387542162
 30
0.0
 10
-221.223501835836
 20
24.72461479185629
 30
0.0
 10
-223.4450518329283
 20
24.70891634887229
 30
0.0
 10
-226.5085684310354
 20
25.05975614917313
 30
0.0
 10
-230.178200527889
 20
25.66095797053001
 30
0.0
 10
-233.6316821314483
 20
26.20799321079734
 30
0.0
 10
-236.583974614598
 20
26.55226858963227
 30
0.0
 10
-238.9349019537802
 20
26.72464137487456
 30
0.0
 10
-241.1772563973721
 20
26.77919085813423
 30
0.0
 10
-243.9870356929176
 20
26.75847630415569
 30
0.0
 10
-247.1544333663292
 20
26.6450461286854
 30
0.0
 10
-250.3190092445702
 20
26.60759412154389
 30
0.0
 10
-252.7143122612731
 20
26.80518163440945
 30
0.0
 10
-254.0046571670741
 20
27.15361618709012
 30
0.0
 10
-254.6888116735112
 20
27.46176015655217
 30
0.0
 10
-255.4683839876082
 20
27.93359141075314
 30
0.0
 10
-256.613063729308
 20
28.91494080491122
 30
0.0
 10
-258.0326375427293
 20
30.70939944481508
 30
0.0
 10
-259.3100829957343
 20
32.99820163506412
 30
0.0
 10
-260.1345671027842
 20
35.13231246155829
 30
0.0
 10
-260.6288822579754
 20
36.94452653063573
 30
0.0
 10
-261.0617492809421
 20
38.95581423252701
 30
0.0
 10
-261.4885473564811
 20
41.75551278201635
 30
0.0
 10
-261.9490398364301
 20
45.49582850184191
 30
0.0
 10
-262.5606137679704
 20
49.5481275560687
 30
0.0
 10
-263.6197919416149
 20
53.89164169205939
 30
0.0
 10
-265.2687578544002
 20
57.71454681261371
 30
0.0
 10
-267.2991447141978
 20
60.68200953324046
 30
0.0
 10
-269.2307702782605
 20
62.77826670942646
 30
0.0
 10
-271.4377570743732
 20
64.54973042353076
 30
0.0
 10
-274.5832538633713
 20
66.4595494478105
 30
0.0
 10
-278.8607986339294
 20
68.10829327666828
 30
0.0
 10
-283.5043960566373
 20
68.78183246178214
 30
0.0
 10
-287.3376512267394
 20
68.60062030051547
 30
0.0
 10
-291.0020912409652
 20
67.96117169719798
 30
0.0
 10
-294.4422012660071
 20
66.70565418333186
 30
0.0
 10
-297.5700098098973
 20
64.89458502216532
 30
0.0
 10
-300.4808296952377
 20
62.68427616266382
 30
0.0
 10
-303.3829279019729
 20
59.4232850597969
 30
0.0
 10
-305.7902593039887
 20
55.22370754122817
 30
0.0
 10
-307.4340043955236
 20
51.00873110435224
 30
0.0
 10
-308.9787825762855
 20
45.52175501014995
 30
0.0
 10
-309.993700710424
 20
40.32580845730919
 30
0.0
 10
-311.0093131117824
 20
35.90521763360884
 30
0.0
 10
-312.18487738121
 20
31.67024746325944
 30
0.0
 10
-313.9318762800719
 20
26.62816667688907
 30
0.0
 10
-316.4726776191612
 20
20.8214878568355
 30
0.0
 10
-319.4363202453092
 20
15.15402193533301
 30
0.0
 10
-322.8959815815516
 20
9.298890802672629
 30
0.0
 10
-325.9783459322244
 20
4.15511161865666
 30
0.0
 10
-328.4061928776897
 20
-0.155127618709791
 30
0.0
 10
-330.7699510900809
 20
-4.661975485245758
 30
0.0
 10
-333.3558940199166
 20
-10.34780195550413
 30
0.0
 10
-336.0745638386257
 20
-17.07601990642677
 30
0.0
 10
-338.6175143134156
 20
-23.64608342816785
 30
0.0
 10
-341.2257189195643
 20
-30.04947717861925
 30
0.0
 10
-343.9791910204395
 20
-36.49966353710389
 30
0.0
 10
-346.7643437381499
 20
-42.88424251154566
 30
0.0
 10
-349.5059614520437
 20
-49.13318915479316
 30
0.0
 10
-352.2204862327735
 20
-55.51979727329643
 30
0.0
 10
-354.4644088000651
 20
-61.21958072552184
 30
0.0
 10
-356.2373877034877
 20
-66.1201051036971
 30
0.0
 10
-358.0205655442144
 20
-71.36136817745273
 30
0.0
 10
-359.6720951394979
 20
-77.07639964259968
 30
0.0
 10
-360.7421605262202
 20
-83.01193621107386
 30
0.0
 10
-361.1145328038808
 20
-87.57329678521234
 30
0.0
 10
-360.8590315523451
 20
-92.26149564139185
 30
0.0
 10
-359.837158333132
 20
-96.29024013997004
 30
0.0
 10
-358.3066823287492
 20
-99.4532722988938
 30
0.0
 10
-356.7381746332264
 20
-101.7199650109237
 30
0.0
 10
-354.9105488872024
 20
-103.638477574136
 30
0.0
 10
-352.2518970587242
 20
-105.7644883442965
 30
0.0
 10
-348.6830202584699
 20
-107.6942142716221
 30
0.0
 10
-344.2413304895699
 20
-109.2005788128949
 30
0.0
 10
-339.698010589333
 20
-110.1436894242517
 30
0.0
 10
-335.0963848223277
 20
-110.6705585881581
 30
0.0
 10
-330.5106345774171
 20
-110.8817850557319
 30
0.0
 10
-325.9721454650035
 20
-110.840504214246
 30
0.0
 10
-321.8089151266207
 20
-110.6507959247077
 30
0.0
 10
-318.1299109017648
 20
-110.5078835698294
 30
0.0
 10
-315.063370825497
 20
-110.5465755878784
 30
0.0
 10
-312.7951547558856
 20
-110.8340318622348
 30
0.0
 10
-311.7152866976675
 20
-111.1986968941422
 30
0.0
 10
-311.2672186931821
 20
-111.4457004886393
 30
0.0
 10
-310.9408579896701
 20
-111.6802236860628
 30
0.0
 10
-310.1313977972564
 20
-112.5085040470422
 30
0.0
 10
-308.8875746722924
 20
-114.4812385318216
 30
0.0
 10
-307.5334744974299
 20
-117.2602492574901
 30
0.0
 10
-306.0945377213847
 20
-120.6088612827595
 30
0.0
 10
-304.5068959428472
 20
-124.3113131740685
 30
0.0
 10
-302.573961077602
 20
-128.2513929176762
 30
0.0
 10
-300.3663968222977
 20
-131.9385817750338
 30
0.0
 10
-297.0773575711575
 20
-136.5432859112926
 30
0.0
 10
-292.3127345368782
 20
-141.6748176136532
 30
0.0
 10
-285.6583649071478
 20
-146.754415863333
 30
0.0
 10
-278.1196463623982
 20
-150.8351489373422
 30
0.0
 10
-271.1035447053865
 20
-153.2151957539721
 30
0.0
 10
-265.1571059027076
 20
-154.2024701195094
 30
0.0
 10
-260.5591808150217
 20
-154.3923603543575
 30
0.0
 10
-256.6420137375597
 20
-154.0002250338417
 30
0.0
 10
-253.5303429811709
 20
-153.2992328125202
 30
0.0
 10
-250.5880230470264
 20
-152.3992447146941
 30
0.0
 10
-247.1646960880458
 20
-150.9737648686968
 30
0.0
 10
-242.1885218052973
 20
-148.3258519708367
 30
0.0
 10
-237.8324156037955
 20
-145.4531474143534
 30
0.0
 10
-233.9869062538561
 20
-142.8883848132096
 30
0.0
 10
-231.4112053029831
 20
-141.2622739994401
 30
0.0
 10
-229.0877818647458
 20
-139.9861679688603
 30
0.0
 10
-226.0972397392855
 20
-138.5963086666766
 30
0.0
 10
-222.6279696087181
 20
-137.4456981361337
 30
0.0
 10
-218.6845305181798
 20
-136.8092013248963
 30
0.0
 10
-214.7145639629113
 20
-136.8122460701428
 30
0.0
 10
-210.4857715750699
 20
-137.438671807603
 30
0.0
 10
-205.8608720630494
 20
-138.7102850620615
 30
0.0
 10
-201.6174255524176
 20
-140.3083341018238
 30
0.0
 10
-197.9801648005607
 20
-141.8872502011968
 30
0.0
 10
-194.1428935744313
 20
-143.6666094790159
 30
0.0
 10
-189.2990056380251
 20
-146.1257038248535
 30
0.0
 10
-184.797059558186
 20
-148.9243663639094
 30
0.0
 10
-181.6047975814664
 20
-151.3642444002775
 30
0.0
 10
-179.5035522141467
 20
-153.2476327237336
 30
0.0
 10
-177.5628865759325
 20
-155.3252653980633
 30
0.0
 10
-175.0719662668689
 20
-158.4137843509323
 30
0.0
 10
-172.6972958263176
 20
-161.9381535326299
 30
0.0
 10
-170.3146341226222
 20
-165.8026700504067
 30
0.0
 10
-168.4864228693644
 20
-168.8450694409097
 30
0.0
 10
-166.5797068631043
 20
-171.9683418337401
 30
0.0
 10
-164.7672565437327
 20
-174.9451239021764
 30
0.0
 10
-163.0818822522417
 20
-177.839231343536
 30
0.0
 10
-161.5801396526928
 20
-180.6445201851827
 30
0.0
 10
-160.305518932569
 20
-183.365078049921
 30
0.0
 10
-159.2890395960406
 20
-186.0121356603426
 30
0.0
 10
-158.5670188307817
 20
-188.560641499888
 30
0.0
 10
-158.0359413994898
 20
-191.3745488443739
 30
0.0
 10
-157.6713506974986
 20
-194.4126443158349
 30
0.0
 10
-157.3506983159239
 20
-198.7473891502211
 30
0.0
 10
-157.1878942130301
 20
-203.4373885788514
 30
0.0
 10
-156.9003616315304
 20
-208.4437220099665
 30
0.0
 10
-156.5077711775357
 20
-213.3080059255926
 30
0.0
 10
-155.9396493598104
 20
-219.1724467316303
 30
0.0
 10
-155.3732484615618
 20
-225.9174615100794
 30
0.0
 10
-155.1837977079658
 20
-232.3418597109261
 30
0.0
 10
-155.4765046662497
 20
-241.3284425720684
 30
0.0
 10
-156.1640423265784
 20
-250.7950148871612
 30
0.0
 10
-156.3527667903341
 20
-260.4495426148607
 30
0.0
 10
-156.1750011390881
 20
-267.6600442888542
 30
0.0
 10
-155.7510394727445
 20
-273.7813079629597
 30
0.0
 10
-155.2339225854056
 20
-278.7885076320169
 30
0.0
 10
-154.7577706880339
 20
-282.6185096635379
 30
0.0
 10
-154.1808467963351
 20
-286.5191848104238
 30
0.0
 10
-153.6381376398279
 20
-290.1894582639995
 30
0.0
 10
-153.2488127542624
 20
-293.5915698864538
 30
0.0
 10
-153.1075359783583
 20
-296.5867789931929
 30
0.0
 10
-153.2645957783382
 20
-299.0242854539802
 30
0.0
 10
-153.6036186891008
 20
-300.4583538496507
 30
0.0
 10
-153.9335276991336
 20
-301.2621983793609
 30
0.0
 10
-154.2680008599858
 20
-301.8642737333157
 30
0.0
 10
-155.000858210748
 20
-302.7800772703392
 30
0.0
 10
-156.5678056746015
 20
-304.0584518735971
 30
0.0
 10
-159.5380118729507
 20
-305.797537761739
 30
0.0
 10
-164.5714189803307
 20
-307.7389369032982
 30
0.0
 10
-171.3996938598159
 20
-309.4243678172922
 30
0.0
 10
-178.0040387522962
 20
-310.6150193760165
 30
0.0
 10
-183.7712491475024
 20
-311.6006918636265
 30
0.0
 10
-188.6736581647729
 20
-312.6498334429946
 30
0.0
 10
-192.4781239434326
 20
-313.6279109711862
 30
0.0
 10
-196.5517376626097
 20
-314.903573980201
 30
0.0
 10
-200.8166873937394
 20
-316.670457506872
 30
0.0
 10
-205.0874249769331
 20
-319.1763506623379
 30
0.0
 10
-208.436516993172
 20
-322.1722910498473
 30
0.0
 10
-210.7130012534416
 20
-325.3373233498042
 30
0.0
 10
-212.4388558688201
 20
-328.7189149923936
 30
0.0
 10
-213.6667365863057
 20
-333.0895103188778
 30
0.0
 10
-214.0004912311262
 20
-338.3274652704382
 30
0.0
 10
-213.4113046979257
 20
-343.4382639173524
 30
0.0
 10
-211.9591047745181
 20
-348.3704997924283
 30
0.0
 10
-209.7621862730602
 20
-352.815940414031
 30
0.0
 10
-207.0132616990256
 20
-356.7366237634302
 30
0.0
 10
-202.8029210470818
 20
-361.2829728502413
 30
0.0
 10
-196.8357145902758
 20
-365.7809054763794
 30
0.0
 10
-189.2353590821078
 20
-369.4634418634179
 30
0.0
 10
-182.0056705644332
 20
-371.7062159370525
 30
0.0
 10
-176.3478731234871
 20
-373.1290066660562
 30
0.0
 10
-171.9719717414174
 20
-374.338970080042
 30
0.0
 10
-168.7324010761616
 20
-375.3516473726767
 30
0.0
 10
-165.4890181155647
 20
-376.5653088505894
 30
0.0
 10
-161.7855909373459
 20
-378.094637820149
 30
0.0
 10
-157.8213247130813
 20
-379.6788371455359
 30
0.0
 10
-153.5798357390789
 20
-381.1133318754093
 30
0.0
 10
-148.9826079878586
 20
-382.1320258402305
 30
0.0
 10
-144.6708613551502
 20
-382.2734451589973
 30
0.0
 10
-140.9548277492977
 20
-381.537635513295
 30
0.0
 10
-138.6255651920935
 20
-380.6307609728939
 30
0.0
 10
-136.8333940937987
 20
-379.6073945075198
 30
0.0
 10
-135.2242504009795
 20
-378.4757756923514
 30
0.0
 10
-133.5174317305904
 20
-376.9291686776891
 30
0.0
 10
-131.8422415388877
 20
-374.9896902628502
 30
0.0
 10
-129.9640174581251
 20
-372.3694392377141
 30
0.0
 10
-128.4615993234093
 20
-369.7649741819471
 30
0.0
 10
-127.1693173417594
 20
-367.3000841293405
 30
0.0
 10
-125.9938200222053
 20
-364.9882470638916
 30
0.0
 10
-124.0280283133823
 20
-361.0286670349547
 30
0.0
 10
-121.4670582087046
 20
-355.7010346514169
 30
0.0
 10
-118.5224569698982
 20
-349.742521452488
 30
0.0
 10
-115.48655922565
 20
-344.1973172423287
 30
0.0
 10
-112.0164300802028
 20
-338.6244483922921
 30
0.0
 10
-108.2310719992474
 20
-332.9860310935233
 30
0.0
 10
-104.2303004208005
 20
-327.2573151547759
 30
0.0
 10
-100.1238640300398
 20
-321.4014812830541
 30
0.0
 10
-96.02751133628811
 20
-315.3811377365867
 30
0.0
 10
-92.043384552941
 20
-309.1363122086782
 30
0.0
 10
-88.34443493211461
 20
-302.6642128795764
 30
0.0
 10
-83.86431351621965
 20
-294.0333532846378
 30
0.0
 10
-79.81107232373711
 20
-285.4127528951574
 30
0.0
 10
-75.85357190056257
 20
-276.9818040507083
 30
0.0
 10
-72.85014538917481
 20
-270.8031438868357
 30
0.0
 10
-70.24770266717242
 20
-265.8028058801491
 30
0.0
 10
-68.06588671841062
 20
-261.9225716165863
 30
0.0
 10
-65.7460032965124
 20
-257.9604064390375
 30
0.0
 10
-62.69609202348467
 20
-252.8488926825892
 30
0.0
 10
-59.67732624560384
 20
-247.3986009984852
 30
0.0
 10
-57.4469699620177
 20
-242.7607157854463
 30
0.0
 10
-55.40345642848138
 20
-237.8907040294118
 30
0.0
 10
-53.37161083373601
 20
-231.6679241653622
 30
0.0
 10
-51.65005559835126
 20
-224.069365159049
 30
0.0
 10
-50.5625028737966
 20
-216.4415129884763
 30
0.0
 10
-50.03930299354639
 20
-208.8576984416529
 30
0.0
 10
-49.95179011149478
 20
-201.5227236776771
 30
0.0
 10
-50.05739903964404
 20
-194.3631375958584
 30
0.0
 10
-50.17077951754312
 20
-187.3564512774687
 30
0.0
 10
-49.95691848459941
 20
-180.8493994079928
 30
0.0
 10
-49.25615604038772
 20
-175.9452607054186
 30
0.0
 10
-48.3116098067862
 20
-172.4816625229209
 30
0.0
 10
-47.00346013314483
 20
-168.9953106107384
 30
0.0
 10
-44.70652778375292
 20
-164.4682635922828
 30
0.0
 10
-41.75160873747082
 20
-159.7208933469735
 30
0.0
 10
-39.18191435340326
 20
-155.7684492188204
 30
0.0
 10
-36.54099855602555
 20
-151.6692185677065
 30
0.0
 10
-33.39868694776328
 20
-146.6451180433452
 30
0.0
 10
-29.70280082087465
 20
-140.8202294497793
 30
0.0
 10
-25.96734594755332
 20
-135.2633254547503
 30
0.0
 10
-20.75368630378654
 20
-128.2994948571898
 30
0.0
 10
-14.82911490315278
 20
-121.5972147187397
 30
0.0
 10
-8.448823110934256
 20
-115.0889080959696
 30
0.0
 10
-1.94768986629057
 20
-108.8677692005902
 30
0.0
 10
4.791934338777796
 20
-103.2401849369255
 30
0.0
 10
11.94903764703223
 20
-98.39980621136066
 30
0.0
 10
17.58982139767509
 20
-95.12313741431437
 30
0.0
 10
23.45496892643275
 20
-92.22013549466489
 30
0.0
 10
29.44730731231751
 20
-89.73703284329099
 30
0.0
 10
35.80185399052074
 20
-87.5392775754099
 30
0.0
 10
42.50146817604509
 20
-85.36439517937427
 30
0.0
 10
48.26630490521789
 20
-83.38361174766288
 30
0.0
 10
52.97352633829609
 20
-81.53083143083852
 30
0.0
 10
57.52400467164563
 20
-79.56742408548023
 30
0.0
 10
62.9523198790064
 20
-77.03567080438832
 30
0.0
 10
69.18699890632311
 20
-74.14111000123471
 30
0.0
 10
75.17809042772043
 20
-71.69697165601495
 30
0.0
 10
83.50812339093251
 20
-68.93614068081692
 30
0.0
 10
92.24974991448542
 20
-66.76664582774738
 30
0.0
 10
101.1644420302073
 20
-64.95458093874277
 30
0.0
 10
109.9893744044854
 20
-63.46255943593604
 30
0.0
 10
118.8377917111868
 20
-62.5346254878483
 30
0.0
 10
127.695783263064
 20
-62.36696063450972
 30
0.0
 10
133.0976314410593
 20
-62.63587217415362
 30
0.0
 10
137.2844788276561
 20
-63.10274523283495
 30
0.0
 10
140.3265921973837
 20
-63.58055434241861
 30
0.0
 10
143.3123764775575
 20
-64.20574124677084
 30
0.0
 10
147.4982040741233
 20
-65.23185881373779
 30
0.0
 10
153.1232129855336
 20
-66.7355840150285
 30
0.0
 10
158.8963090071868
 20
-67.95754223064425
 30
0.0
 10
163.0828062850901
 20
-68.50494989164268
 30
0.0
 10
165.990568086617
 20
-68.78435929198866
 30
0.0
 10
169.6112003771497
 20
-68.94281595074715
 30
0.0
 10
173.8294850069344
 20
-68.9682325553328
 30
0.0
 10
177.8724081517148
 20
-68.94122112562789
 30
0.0
 10
181.6447860541864
 20
-68.96054716634887
 30
0.0
 10
185.0305945501344
 20
-69.10916388690453
 30
0.0
 10
187.8803515446394
 20
-69.44184831534302
 30
0.0
 10
190.0182724952258
 20
-69.9563233444178
 30
0.0
 10
191.274476735678
 20
-70.52671867749916
 30
0.0
 10
191.6550012365124
 20
-70.86008125577301
 30
0.0
 10
191.7808503367699
 20
-71.00349849680926
 30
0.0
 10
192.0404227965763
 20
-71.40287828586845
 30
0.0
 10
192.5739607553663
 20
-72.68376825991193
 30
0.0
 10
193.1648986279593
 20
-75.27740578475863
 30
0.0
 10
193.6569973294906
 20
-78.61947609162804
 30
0.0
 10
194.141862324519
 20
-82.47537263403134
 30
0.0
 10
194.6691808749174
 20
-85.96012916924303
 30
0.0
 10
195.2934065671342
 20
-88.90098515796099
 30
0.0
 10
196.0512740912053
 20
-91.75756972141608
 30
0.0
 10
197.1895889243894
 20
-95.10957283706726
 30
0.0
 10
198.7617604597635
 20
-98.82410840671025
 30
0.0
 10
200.4374930131891
 20
-102.2656050744545
 30
0.0
 10
202.128417918735
 20
-105.4833944309133
 30
0.0
 10
203.7625546264481
 20
-108.5272611054571
 30
0.0
 10
205.2656200261103
 20
-111.4410607299795
 30
0.0
 10
207.2510256944519
 20
-115.4960578765689
 30
0.0
 10
209.7170377992093
 20
-120.7550476959452
 30
0.0
 10
212.8120112254996
 20
-127.279132924091
 30
0.0
 10
216.2631513060111
 20
-133.9016661955552
 30
0.0
 10
221.2594661594046
 20
-142.4174834798734
 30
0.0
 10
228.1295474670604
 20
-152.5722718279791
 30
0.0
 10
237.1768164393823
 20
-164.0507574096945
 30
0.0
 10
245.2993569108144
 20
-173.0849566027912
 30
0.0
 10
252.0887092449281
 20
-180.0172476345938
 30
0.0
 10
256.437178976836
 20
-184.2319949106373
 30
0.0
 10
259.9835423329108
 20
-187.5384452535181
 30
0.0
 10
263.439886158699
 20
-190.7218722143068
 30
0.0
 10
267.5207476868651
 20
-194.5749507339957
 30
0.0
 10
271.0759597711281
 20
-198.4141324907418
 30
0.0
 10
273.5121045157003
 20
-201.5625170752376
 30
0.0
 10
275.783315254757
 20
-204.9162158193236
 30
0.0
 10
278.2752767385315
 20
-209.4140017988976
 30
0.0
 10
281.4972714302573
 20
-217.1378293286253
 30
0.0
 10
283.5003240073463
 20
-225.3329470170381
 30
0.0
 10
284.300950066837
 20
-233.7197799166576
 30
0.0
 10
284.3244326670016
 20
-240.004918959118
 30
0.0
 10
283.7817743788074
 20
-246.4978751264853
 30
0.0
 10
282.9416440238215
 20
-253.4054304474313
 30
0.0
 10
282.2651151427178
 20
-259.454261858192
 30
0.0
 10
281.9343181031242
 20
-264.5231336558783
 30
0.0
 10
281.8030417587046
 20
-269.5807135918935
 30
0.0
 10
281.9671034121025
 20
-275.8499779244826
 30
0.0
 10
282.4936860193341
 20
-282.0585813617953
 30
0.0
 10
283.0823211054386
 20
-286.9939153350253
 30
0.0
 10
283.7772638409485
 20
-291.9051815007343
 30
0.0
 10
284.6434722271534
 20
-297.626124627707
 30
0.0
 10
285.0446065291216
 20
-302.7607174089763
 30
0.0
 10
284.9058699822737
 20
-306.4585495456665
 30
0.0
 10
284.555465549949
 20
-308.9970722594301
 30
0.0
 10
283.9039878414106
 20
-311.496867371159
 30
0.0
 10
282.6283104829894
 20
-314.8099481732042
 30
0.0
 10
280.7858172470029
 20
-317.939250936543
 30
0.0
 10
278.4581591579839
 20
-320.7115985981645
 30
0.0
 10
276.5141167358933
 20
-322.5663633855068
 30
0.0
 10
274.4360073891595
 20
-324.1326210711629
 30
0.0
 10
272.3677474500772
 20
-325.3258856280852
 30
0.0
 10
270.0759688802958
 20
-326.2932435291559
 30
0.0
 10
266.595494053659
 20
-327.3766187249108
 30
0.0
 10
261.4127107657184
 20
-328.4273077805568
 30
0.0
 10
253.9929209269797
 20
-329.7017347048959
 30
0.0
 10
245.6097164811583
 20
-331.836060619663
 30
0.0
 10
238.5978630531488
 20
-334.7347748576974
 30
0.0
 10
233.3025338346419
 20
-338.0908645375057
 30
0.0
 10
229.6245303878537
 20
-341.2719043366913
 30
0.0
 10
226.9839461009231
 20
-344.5959683730946
 30
0.0
 10
225.2920703893745
 20
-347.6689389159081
 30
0.0
 10
223.9415951574133
 20
-351.0120194418698
 30
0.0
 10
223.0179821871426
 20
-355.3584699726858
 30
0.0
 10
223.0129678109387
 20
-360.6998387787064
 30
0.0
 10
224.1286720067785
 20
-366.0273511464111
 30
0.0
 10
226.6215830251936
 20
-371.1821051623956
 30
0.0
 10
230.0817133193081
 20
-375.3273937099733
 30
0.0
 10
234.1480727014683
 20
-378.586867627457
 30
0.0
 10
238.6168733687394
 20
-380.9907102192073
 30
0.0
 10
243.4430950151696
 20
-382.5464231662195
 30
0.0
 10
248.2013295838701
 20
-383.1467112351843
 30
0.0
 10
252.6810489851217
 20
-383.0442698040304
 30
0.0
 10
256.8647405694685
 20
-382.4919965182826
 30
0.0
 10
262.0677411790582
 20
-381.436632002874
 30
0.0
 10
266.8231923818575
 20
-380.2332301197102
 30
0.0
 10
271.0229786988946
 20
-379.4204377727704
 30
0.0
 10
274.3760831460098
 20
-378.9469611913999
 30
0.0
 10
277.9126777613689
 20
-378.527921664254
 30
0.0
 10
282.8366365652244
 20
-377.9376523578352
 30
0.0
 10
288.0380290606174
 20
-377.1172402835687
 30
0.0
 10
293.4246974698359
 20
-375.5673237156724
 30
0.0
 10
297.5000323120126
 20
-373.8953391860367
 30
0.0
 10
301.5000975575632
 20
-371.5306444112671
 30
0.0
 10
304.9697815217276
 20
-368.7844820293925
 30
0.0
 10
308.0602294419165
 20
-365.7917203899381
 30
0.0
 10
309.8826492999779
 20
-363.7223073799212
 30
0.0
 10
310.7521716944781
 20
-362.6738159384499
 30
0.0
  0
CIRCLE
  5
84
330
1F
100
AcDbEntity
  8
0
  6
Continuous
 62
     7
370
    25
100
AcDbCircle
 10
-261.79184453
 20
21.6722096628
 30
0.0
 40
5.400000000000034
  0
CIRCLE
  5
85
330
1F
100
AcDbEntity
  8
0
  6
Continuous
 62
     7
370
    25
100
AcDbCircle
 10
-307.336480985
 20
20.6073384376
 30
0.0
 40
5.400000000000034
  0
CIRCLE
  5
86
330
1F
100
AcDbEntity
  8
0
  6
Continuous
 62
     7
370
    25
100
AcDbCircle
 10
-329.1082880891
 20
-22.4828886753
 30
0.0
 40
5.400000000000034
  0
CIRCLE
  5
87
330
1F
100
AcDbEntity
  8
0
  6
Continuous
 62
     7
370
    25
100
AcDbCircle
 10
-347.6488487816
 20
-67.1313467686
 30
0.0
 40
5.400000000000034
  0
CIRCLE
  5
88
330
1F
100
AcDbEntity
  8
0
  6
Continuous
 62
     7
370
    25
100
AcDbCircle
 10
-335.6583128335
 20
-103.7502862806
 30
0.0
 40
5.400000000000034
  0
CIRCLE
  5
89
330
1F
100
AcDbEntity
  8
0
  6
Continuous
 62
     7
370
    25
100
AcDbCircle
 10
-297.1788867979
 20
-122.2269786629
 30
0.0
 40
5.400000000000034
  0
CIRCLE
  5
8A
330
1F
100
AcDbEntity
  8
0
  6
Continuous
 62
     7
370
    25
100
AcDbCircle
 10
-259.0935942046
 20
-147.1991084685
 30
0.0
 40
5.399999999999977
  0
CIRCLE
  5
8B
330
1F
100
AcDbEntity
  8
0
  6
Continuous
 62
     7
370
    25
100
AcDbCircle
 10
-221.7761340453
 20
-119.9851429501
 30
0.0
 40
5.400000000000006
  0
CIRCLE
  5
8C
330
1F
100
AcDbEntity
  8
0
  6
Continuous
 62
     7
370
    25
100
AcDbCircle
 10
-180.8910511292
 20
-143.7929265011
 30
0.0
 40
5.400000000000063
  0
CIRCLE
  5
8D
330
1F
100
AcDbEntity
  8
0
  6
Continuous
 62
     7
370
    25
100
AcDbCircle
 10
-152.6893091407
 20
-182.1874228662
 30
0.0
 40
5.400000000000063
  0
CIRCLE
  5
8E
330
1F
100
AcDbEntity
  8
0
  6
Continuous
 62
     7
370
    25
100
AcDbCircle
 10
-85.7723046176
 20
-280.5171412998
 30
0.0
 40
5.400000000000034
  0
CIRCLE
  5
8F
330
1F
100
AcDbEntity
  8
0
  6
Continuous
 62
     7
370
    25
100
AcDbCircle
 10
-110.295125782
 20
-322.0103850882
 30
0.0
 40
5.400000000000034
  0
CIRCLE
  5
90
330
1F
100
AcDbEntity
  8
0
  6
Continuous
 62
     7
370
    25
100
AcDbCircle
 10
-133.9127322256
 20
-364.1273563728
 30
0.0
 40
5.400000000000006
  0
CIRCLE
  5
91
330
1F
100
AcDbEntity
  8
0
  6
Continuous
 62
     7
370
    25
100
AcDbCircle
 10
-175.3586036018
 20
-366.3547825037
 30
0.0
 40
5.399999999999949
  0
CIRCLE
  5
92
330
1F
100
AcDbEntity
  8
0
  6
Continuous
 62
     7
370
    25
100
AcDbCircle
 10
-205.4681809267
 20
-335.0175934764
 30
0.0
 40
5.400000000000034
  0
CIRCLE
  5
93
330
1F
100
AcDbEntity
  8
0
  6
Continuous
 62
     7
370
    25
100
AcDbCircle
 10
-163.3338291271
 20
-316.7926072271
 30
0.0
 40
5.400000000000034
  0
CIRCLE
  5
94
330
1F
100
AcDbEntity
  8
0
  6
Continuous
 62
     7
370
    25
100
AcDbCircle
 10
-147.3565377771
 20
-278.3449652806
 30
0.0
 40
5.399999999999977
  0
CIRCLE
  5
95
330
1F
100
AcDbEntity
  8
0
  6
Continuous
 62
     7
370
    25
100
AcDbCircle
 10
-147.2962951782
 20
-230.0523042501
 30
0.0
 40
5.399999999999977
  0
CIRCLE
  5
96
330
1F
100
AcDbEntity
  8
0
  6
Continuous
 62
     7
370
    25
100
AcDbCircle
 10
-63.496265089
 20
-237.649429438
 30
0.0
 40
5.400000000000027
  0
CIRCLE
  5
97
330
1F
100
AcDbEntity
  8
0
  6
Continuous
 62
     7
370
    25
100
AcDbCircle
 10
-58.1201194919
 20
-189.9499722408
 30
0.0
 40
5.400000000000013
  0
CIRCLE
  5
98
330
1F
100
AcDbEntity
  8
0
  6
Continuous
 62
     7
370
    25
100
AcDbCircle
 10
-41.4666474846
 20
-145.6769796495
 30
0.0
 40
5.40000000000002
  0
CIRCLE
  5
99
330
1F
100
AcDbEntity
  8
0
  6
Continuous
 62
     7
370
    25
100
AcDbCircle
 10
-11.3715469355
 20
-108.0452403583
 30
0.0
 40
5.400000000000034
  0
CIRCLE
  5
9A
330
1F
100
AcDbEntity
  8
0
  6
Continuous
 62
     7
370
    25
100
AcDbCircle
 10
29.2632119537
 20
-82.5712511185
 30
0.0
 40
5.400000000000031
  0
CIRCLE
  5
9B
330
1F
100
AcDbEntity
  8
0
  6
Continuous
 62
     7
370
    25
100
AcDbCircle
 10
74.1984507265
 20
-64.8449096633
 30
0.0
 40
5.399999999999991
  0
CIRCLE
  5
9C
330
1F
100
AcDbEntity
  8
0
  6
Continuous
 62
     7
370
    25
100
AcDbCircle
 10
121.5363028979
 20
-55.7485951943
 30
0.0
 40
5.400000000000006
  0
CIRCLE
  5
9D
330
1F
100
AcDbEntity
  8
0
  6
Continuous
 62
     7
370
    25
100
AcDbCircle
 10
169.2754829125
 20
-62.2210233074
 30
0.0
 40
5.400000000000006
  0
CIRCLE
  5
9E
330
1F
100
AcDbEntity
  8
0
  6
Continuous
 62
     7
370
    25
100
AcDbCircle
 10
329.6874987679
 20
-80.2988628081
 30
0.0
 40
5.399999999999977
  0
CIRCLE
  5
9F
330
1F
100
AcDbEntity
  8
0
  6
Continuous
 62
     7
370
    25
100
AcDbCircle
 10
335.4733199597
 20
-127.8995281765
 30
0.0
 40
5.400000000000091
  0
CIRCLE
  5
A0
330
1F
100
AcDbEntity
  8
0
  6
Continuous
 62
     7
370
    25
100
AcDbCircle
 10
360.0679872967
 20
-169.0604785976
 30
0.0
 40
5.39999999999992
  0
CIRCLE
  5
A1
330
1F
100
AcDbEntity
  8
0
  6
Continuous
 62
     7
370
    25
100
AcDbCircle
 10
357.4785755961
 20
-216.0647736594
 30
0.0
 40
5.400000000000034
  0
CIRCLE
  5
A2
330
1F
100
AcDbEntity
  8
0
  6
Continuous
 62
     7
370
    25
100
AcDbCircle
 10
346.8208289982
 20
-263.2209899006
 30
0.0
 40
5.400000000000091
  0
CIRCLE
  5
A3
330
1F
100
AcDbEntity
  8
0
  6
Continuous
 62
     7
370
    25
100
AcDbCircle
 10
328.6277122822
 20
-307.8359179331
 30
0.0
 40
5.400000000000034
  0
CIRCLE
  5
A4
330
1F
100
AcDbEntity
  8
0
  6
Continuous
 62
     7
370
    25
100
AcDbCircle
 10
309.4231680232
 20
-352.0963067014
 30
0.0
 40
5.399999999999977
  0
CIRCLE
  5
A5
330
1F
100
AcDbEntity
  8
0
  6
Continuous
 62
     7
370
    25
100
AcDbCircle
 10
268.5534297082
 20
-372.976390591
 30
0.0
 40
5.400000000000034
  0
CIRCLE
  5
A6
330
1F
100
AcDbEntity
  8
0
  6
Continuous
 62
     7
370
    25
100
AcDbCircle
 10
231.0942096666
 20
-358.1911312313
 30
0.0
 40
5.399999999999949
  0
CIRCLE
  5
A7
330
1F
100
AcDbEntity
  8
0
  6
Continuous
 62
     7
370
    25
100
AcDbCircle
 10
269.976094378
 20
-335.893762155
 30
0.0
 40
5.400000000000148
  0
CIRCLE
  5
A8
330
1F
100
AcDbEntity
  8
0
  6
Continuous
 62
     7
370
    25
100
AcDbCircle
 10
292.5350492427
 20
-298.1335197125
 30
0.0
 40
5.399999999999977
  0
CIRCLE
  5
A9
330
1F
100
AcDbEntity
  8
0
  6
Continuous
 62
     7
370
    25
100
AcDbCircle
 10
291.5399025698
 20
-250.0245286004
 30
0.0
 40
5.400000000000034
  0
CIRCLE
  5
AA
330
1F
100
AcDbEntity
  8
0
  6
Continuous
 62
     7
370
    25
100
AcDbCircle
 10
283.3121600335
 20
-203.2412792904
 30
0.0
 40
5.400000000000034
  0
CIRCLE
  5
AB
330
1F
100
AcDbEntity
  8
0
  6
Continuous
 62
     7
370
    25
100
AcDbCircle
 10
250.8550045769
 20
-167.5864167211
 30
0.0
 40
5.400000000000034
  0
CIRCLE
  5
AC
330
1F
100
AcDbEntity
  8
0
  6
Continuous
 62
     7
370
    25
100
AcDbCircle
 10
222.0722298073
 20
-128.9411068264
 30
0.0
 40
5.399999999999949
  0
CIRCLE
  5
AD
330
1F
100
AcDbEntity
  8
0
  6
Continuous
 62
     7
370
    25
100
AcDbCircle
 10
202.5934542837
 20
-84.951274523
 30
0.0
 40
5.400000000000034
  0
CIRCLE
  5
AE
330
1F
100
AcDbEntity
  8
0
  6
Continuous
 62
     7
370
    25
100
AcDbCircle
 10
-215.0137242246
 20
17.5945116902
 30
0.0
 40
5.399999999999949
  0
CIRCLE
  5
AF
330
1F
100
AcDbEntity
  8
0
  6
Continuous
 62
     7
370
    25
100
AcDbCircle
 10
-187.0678233401
 20
52.4290846915
 30
0.0
 40
5.400000000000034
  0
CIRCLE
  5
B0
330
1F
100
AcDbEntity
  8
0
  6
Continuous
 62
     7
370
    25
100
AcDbCircle
 10
-171.7422638778
 20
9.060454212
 30
0.0
 40
5.399999999999949
  0
CIRCLE
  5
B1
330
1F
100
AcDbEntity
  8
0
  6
Continuous
 62
     7
370
    25
100
AcDbCircle
 10
-166.5033082096
 20
35.4045714343
 30
0.0
 40
5.400000000000063
  0
CIRCLE
  5
B2
330
1F
100
AcDbEntity
  8
0
  6
Continuous
 62
     7
370
    25
100
AcDbCircle
 10
-143.3081530191
 20
76.0496735279
 30
0.0
 40
5.400000000000063
  0
CIRCLE
  5
B3
330
1F
100
AcDbEntity
  8
0
  6
Continuous
 62
     7
370
    25
100
AcDbCircle
 10
-109.8919005754
 20
110.9509187127
 30
0.0
 40
5.40000000000002
  0
CIRCLE
  5
B4
330
1F
100
AcDbEntity
  8
0
  6
Continuous
 62
     7
370
    25
100
AcDbCircle
 10
-73.3200352443
 20
142.2634569785
 30
0.0
 40
5.40000000000002
  0
CIRCLE
  5
B5
330
1F
100
AcDbEntity
  8
0
  6
Continuous
 62
     7
370
    25
100
AcDbCircle
 10
-29.158045304
 20
161.3296040925
 30
0.0
 40
5.400000000000027
  0
CIRCLE
  5
B6
330
1F
100
AcDbEntity
  8
0
  6
Continuous
 62
     7
370
    25
100
AcDbCircle
 10
17.8701028904
 20
170.4856679916
 30
0.0
 40
5.40000000000002
  0
CIRCLE
  5
B7
330
1F
100
AcDbEntity
  8
0
  6
Continuous
 62
     7
370
    25
100
AcDbCircle
 10
65.5165498211
 20
163.3928745631
 30
0.0
 40
5.400000000000034
  0
CIRCLE
  5
B8
330
1F
100
AcDbEntity
  8
0
  6
Continuous
 62
     7
370
    25
100
AcDbCircle
 10
111.2809987501
 20
148.1198854394
 30
0.0
 40
5.40000000000002
  0
CIRCLE
  5
B9
330
1F
100
AcDbEntity
  8
0
  6
Continuous
 62
     7
370
    25
100
AcDbCircle
 10
156.3814548429
 20
130.748203301
 30
0.0
 40
5.399999999999977
  0
CIRCLE
  5
BA
330
1F
100
AcDbEntity
  8
0
  6
Continuous
 62
     7
370
    25
100
AcDbCircle
 10
194.1323429152
 20
100.9647042467
 30
0.0
 40
5.399999999999949
  0
CIRCLE
  5
BB
330
1F
100
AcDbEntity
  8
0
  6
Continuous
 62
     7
370
    25
100
AcDbCircle
 10
227.0973227155
 20
65.8016989459
 30
0.0
 40
5.400000000000034
  0
CIRCLE
  5
BC
330
1F
100
AcDbEntity
  8
0
  6
Continuous
 62
     7
370
    25
100
AcDbCircle
 10
246.7369659544
 20
21.9760833669
 30
0.0
 40
5.399999999999949
  0
CIRCLE
  5
BD
330
1F
100
AcDbEntity
  8
0
  6
Continuous
 62
     7
370
    25
100
AcDbCircle
 10
269.1678279574
 20
42.3970751312
 30
0.0
 40
5.399999999999977
  0
CIRCLE
  5
BE
330
1F
100
AcDbEntity
  8
0
  6
Continuous
 62
     7
370
    25
100
AcDbCircle
 10
334.949446581
 20
-32.5058692051
 30
0.0
 40
5.400000000000034
  0
CIRCLE
  5
BF
330
1F
100
AcDbEntity
  8
0
  6
Continuous
 62
     7
370
    25
100
AcDbCircle
 10
344.423964771
 20
14.301128514
 30
0.0
 40
5.400000000000034
  0
CIRCLE
  5
C0
330
1F
100
AcDbEntity
  8
0
  6
Continuous
 62
     7
370
    25
100
AcDbCircle
 10
350.7853169452
 20
62.0496234515
 30
0.0
 40
5.399999999999977
  0
CIRCLE
  5
C1
330
1F
100
AcDbEntity
  8
0
  6
Continuous
 62
     7
370
    25
100
AcDbCircle
 10
357.7865662766
 20
109.6481800486
 30
0.0
 40
5.399999999999977
  0
CIRCLE
  5
C2
330
1F
100
AcDbEntity
  8
0
  6
Continuous
 62
     7
370
    25
100
AcDbCircle
 10
365.8123023076
 20
157.3131448563
 30
0.0
 40
5.400000000000034
  0
CIRCLE
  5
C3
330
1F
100
AcDbEntity
  8
0
  6
Continuous
 62
     7
370
    25
100
AcDbCircle
 10
371.8768631501
 20
205.2797502486
 30
0.0
 40
5.399999999999977
  0
CIRCLE
  5
C4
330
1F
100
AcDbEntity
  8
0
  6
Continuous
 62
     7
370
    25
100
AcDbCircle
 10
369.5310123474
 20
253.4345749029
 30
0.0
 40
5.400000000000034
  0
CIRCLE
  5
C5
330
1F
100
AcDbEntity
  8
0
  6
Continuous
 62
     7
370
    25
100
AcDbCircle
 10
365.1566946108
 20
301.5692424628
 30
0.0
 40
5.400000000000034
  0
CIRCLE
  5
C6
330
1F
100
AcDbEntity
  8
0
  6
Continuous
 62
     7
370
    25
100
AcDbCircle
 10
355.6112136329
 20
348.8809836848
 30
0.0
 40
5.400000000000034
  0
CIRCLE
  5
C7
330
1F
100
AcDbEntity
  8
0
  6
Continuous
 62
     7
370
    25
100
AcDbCircle
 10
329.4927937972
 20
370.9048177793
 30
0.0
 40
5.400000000000091
  0
CIRCLE
  5
C8
330
1F
100
AcDbEntity
  8
0
  6
Continuous
 62
     7
370
    25
100
AcDbCircle
 10
305.7862200974
 20
328.7774672331
 30
0.0
 40
5.399999999999977
  0
CIRCLE
  5
C9
330
1F
100
AcDbEntity
  8
0
  6
Continuous
 62
     7
370
    25
100
AcDbCircle
 10
294.1642233432
 20
282.1269628291
 30
0.0
 40
5.399999999999977
  0
CIRCLE
  5
CA
330
1F
100
AcDbEntity
  8
0
  6
Continuous
 62
     7
370
    25
100
AcDbCircle
 10
286.0101159992
 20
234.4804410655
 30
0.0
 40
5.400000000000034
  0
CIRCLE
  5
CB
330
1F
100
AcDbEntity
  8
0
  6
Continuous
 62
     7
370
    25
100
AcDbCircle
 10
283.3288262777
 20
186.32977307
 30
0.0
 40
5.400000000000034
  0
CIRCLE
  5
CC
330
1F
100
AcDbEntity
  8
0
  6
Continuous
 62
     7
370
    25
100
AcDbCircle
 10
276.4914795113
 20
138.6155511811
 30
0.0
 40
5.399999999999977
  0
CIRCLE
  5
CD
330
1F
100
AcDbEntity
  8
0
  6
Continuous
 62
     7
370
    25
100
AcDbCircle
 10
274.973787857
 20
90.3391269569
 30
0.0
 40
5.399999999999977
  0
CIRCLE
  5
CE
330
1F
100
AcDbEntity
  8
0
  6
Continuous
 62
     7
370
    25
100
AcDbCircle
 10
-243.5052560625
 20
-88.4653934043
 30
0.0
 40
5.399999999999977
  0
CIRCLE
  5
CF
330
1F
100
AcDbEntity
  8
0
  6
Continuous
 62
     7
370
    25
100
AcDbCircle
 10
-283.1705204289
 20
-113.3354240733
 30
0.0
 40
5.399999999999977
  0
CIRCLE
  5
D0
330
1F
100
AcDbEntity
  8
0
  6
Continuous
 62
     7
370
    25
100
AcDbCircle
 10
-224.3858743017
 20
-33.5353420239
 30
0.0
 40
5.400000000000006
  0
CIRCLE
  5
D1
330
1F
100
AcDbEntity
  8
0
  6
Continuous
 62
     7
370
    25
100
AcDbCircle
 10
-209.0116955369
 20
-26.6224299629
 30
0.0
 40
5.400000000000034
  0
CIRCLE
  5
D2
330
1F
100
AcDbEntity
  8
0
  6
Continuous
 62
     7
370
    25
100
AcDbCircle
 10
-197.0625350187
 20
-36.4534215267
 30
0.0
 40
5.400000000000034
  0
CIRCLE
  5
D3
330
1F
100
AcDbEntity
  8
0
  6
Continuous
 62
     7
370
    25
100
AcDbCircle
 10
-205.915752912
 20
-49.2441561806
 30
0.0
 40
5.399999999999977
  0
CIRCLE
  5
D4
330
1F
100
AcDbEntity
  8
0
  6
Continuous
 62
     7
370
    25
100
AcDbCircle
 10
-222.2233265846
 20
-53.0165426366
 30
0.0
 40
5.399999999999949
  0
CIRCLE
  5
D5
330
1F
100
AcDbEntity
  8
0
  6
Continuous
 62
     7
370
    25
100
AcDbCircle
 10
-281.5834808798
 20
-63.3552911299
 30
0.0
 40
5.400000000000034
  0
CIRCLE
  5
D6
330
1F
100
AcDbEntity
  8
0
  6
Continuous
 62
     7
370
    25
100
AcDbCircle
 10
-288.0916534047
 20
-39.4537082297
 30
0.0
 40
5.399999999999977
  0
CIRCLE
  5
D7
330
1F
100
AcDbEntity
  8
0
  6
Continuous
 62
     7
370
    25
100
AcDbCircle
 10
-303.0501545947
 20
-31.1161479346
 30
0.0
 40
5.399999999999977
  0
CIRCLE
  5
D8
330
1F
100
AcDbEntity
  8
0
  6
Continuous
 62
     7
370
    25
100
AcDbCircle
 10
-316.5333361883
 20
-38.5038343668
 30
0.0
 40
5.400000000000034
  0
CIRCLE
  5
D9
330
1F
100
AcDbEntity
  8
0
  6
Continuous
 62
     7
370
    25
100
AcDbCircle
 10
-311.7449474716
 20
-54.8709523482
 30
0.0
 40
5.400000000000034
  0
CIRCLE
  5
DA
330
1F
100
AcDbEntity
  8
0
  6
Continuous
 62
     7
370
    25
100
AcDbCircle
 10
-297.7279760548
 20
-65.2841488617
 30
0.0
 40
5.400000000000034
  0
ENDSEC
  0
SECTION
  2
OBJECTS
  0
DICTIONARY
  5
C
330
0
100
AcDbDictionary
281
     1
  3
ACAD_GROUP
350
D
  3
ACAD_LAYOUT
350
1A
  3
ACAD_MLINESTYLE
350
17
  3
ACAD_PLOTSETTINGS
350
19
  3
ACAD_PLOTSTYLENAME
350
E
  3
ACAD_SCALELIST
350
47
  0
DICTIONARY
  5
D
102
{ACAD_REACTORS
330
C
102
}
330
C
100
AcDbDictionary
281
     1
  0
DICTIONARY
  5
1A
102
{ACAD_REACTORS
330
C
102
}
330
C
100
AcDbDictionary
281
     1
  3
Layout1
350
1E
  3
Layout2
350
26
  3
Model
350
22
  0
DICTIONARY
  5
17
102
{ACAD_REACTORS
330
C
102
}
330
C
100
AcDbDictionary
281
     1
  3
Standard
350
18
  0
DICTIONARY
  5
19
102
{ACAD_REACTORS
330
C
102
}
330
C
100
AcDbDictionary
281
     1
  0
ACDBDICTIONARYWDFLT
  5
E
102
{ACAD_REACTORS
330
C
102
}
330
C
100
AcDbDictionary
281
     1
  3
Normal
350
F
100
AcDbDictionaryWithDefault
340
F
  0
DICTIONARY
  5
47
102
{ACAD_REACTORS
330
C
102
}
330
C
100
AcDbDictionary
281
     1
  3
A0
350
48
  3
A1
350
49
  3
A2
350
4A
  3
A3
350
4B
  3
A4
350
4C
  3
A5
350
4D
  3
A6
350
4E
  3
A7
350
4F
  3
A8
350
50
  3
A9
350
51
  3
B0
350
52
  3
B1
350
53
  3
B2
350
54
  3
B3
350
55
  3
B4
350
56
  3
B5
350
57
  3
B6
350
58
  3
B7
350
59
  3
B8
350
5A
  3
B9
350
5B
  3
C0
350
5C
  3
C1
350
5D
  3
C2
350
5E
  3
C3
350
5F
  3
C4
350
60
  3
C5
350
61
  3
C6
350
62
  3
C7
350
63
  3
C8
350
64
  3
C9
350
65
  3
D0
350
66
  3
D1
350
67
  3
D2
350
68
  0
LAYOUT
  5
1E
102
{ACAD_REACTORS
330
1A
102
}
330
1A
100
AcDbPlotSettings
  1

  2
none_device
  4

  6

 40
0.0
 41
0.0
 42
0.0
 43
0.0
 44
0.0
 45
0.0
 46
0.0
 47
0.0
 48
0.0
 49
0.0
140
0.0
141
0.0
142
1.0
143
1.0
 70
   688
 72
     1
 73
     0
 74
     5
  7

 75
    16
147
1.0
148
0.0
149
0.0
100
AcDbLayout
  1
Layout1
 70
     1
 71
     1
 10
0.0
 20
0.0
 11
420.0
 21
297.0
 12
0.0
 22
0.0
 32
0.0
 14
1.0000000000E+20
 24
1.0000000000E+20
 34
1.0000000000E+20
 15
-1.0000000000E+20
 25
-1.0000000000E+20
 35
-1.0000000000E+20
146
0.0
 13
0.0
 23
0.0
 33
0.0
 16
1.0
 26
0.0
 36
0.0
 17
0.0
 27
1.0
 37
0.0
 76
     0
330
1B
  0
LAYOUT
  5
26
102
{ACAD_REACTORS
330
1A
102
}
330
1A
100
AcDbPlotSettings
  1

  2
none_device
  4

  6

 40
0.0
 41
0.0
 42
0.0
 43
0.0
 44
0.0
 45
0.0
 46
0.0
 47
0.0
 48
0.0
 49
0.0
140
0.0
141
0.0
142
1.0
143
1.0
 70
   688
 72
     1
 73
     0
 74
     5
  7

 75
    16
147
1.0
148
0.0
149
0.0
100
AcDbLayout
  1
Layout2
 70
     1
 71
     2
 10
0.0
 20
0.0
 11
0.0
 21
0.0
 12
0.0
 22
0.0
 32
0.0
 14
0.0
 24
0.0
 34
0.0
 15
0.0
 25
0.0
 35
0.0
146
0.0
 13
0.0
 23
0.0
 33
0.0
 16
1.0
 26
0.0
 36
0.0
 17
0.0
 27
1.0
 37
0.0
 76
     0
330
23
  0
LAYOUT
  5
22
102
{ACAD_REACTORS
330
1A
102
}
330
1A
100
AcDbPlotSettings
  1

  2
none_device
  4
ANSI_A_(11.00_x_8.50_Inches)
  6

 40
6.35
 41
19.05
 42
6.35000508
 43
19.05000254
 44
279.4
 45
215.9
 46
130.6870338278
 47
88.266658787
 48
0.0
 49
0.0
140
0.0
141
0.0
142
0.0109214117
143
1.0
 70
  1696
 72
     0
 73
     0
 74
     0
  7

 75
     0
147
0.0179189148
148
-1300.4909072572
149
0.0
100
AcDbLayout
  1
Model
 70
     1
 71
     0
 10
0.0
 20
0.0
 11
420.0
 21
297.0
 12
0.0
 22
0.0
 32
0.0
 14
-361.0098872157
 24
-382.9692978283
 34
0.0
 15
380.2090697203
 25
387.5354920514
 35
0.0
146
0.0
 13
0.0
 23
0.0
 33
0.0
 16
1.0
 26
0.0
 36
0.0
 17
0.0
 27
1.0
 37
0.0
 76
     0
330
1F
331
29
  0
MLINESTYLE
  5
18
102
{ACAD_REACTORS
330
17
102
}
330
17
100
AcDbMlineStyle
  2
Standard
 70
     0
  3

 62
   256
 51
90.0
 52
90.0
 71
     2
 49
0.5
 62
   256
  6
BYLAYER
 49
-0.5
 62
   256
  6
BYLAYER
  0
ACDBPLACEHOLDER
  5
F
102
{ACAD_REACTORS
330
E
102
}
330
E
  0
SCALE
  5
48
102
{ACAD_REACTORS
330
47
102
}
330
47
100
AcDbScale
 70
     0
300
1:1
140
1.0
141
1.0
290
     1
  0
SCALE
  5
49
102
{ACAD_REACTORS
330
47
102
}
330
47
100
AcDbScale
 70
     0
300
1:2
140
1.0
141
2.0
290
     0
  0
SCALE
  5
4A
102
{ACAD_REACTORS
330
47
102
}
330
47
100
AcDbScale
 70
     0
300
1:4
140
1.0
141
4.0
290
     0
  0
SCALE
  5
4B
102
{ACAD_REACTORS
330
47
102
}
330
47
100
AcDbScale
 70
     0
300
1:5
140
1.0
141
5.0
290
     0
  0
SCALE
  5
4C
102
{ACAD_REACTORS
330
47
102
}
330
47
100
AcDbScale
 70
     0
300
1:8
140
1.0
141
8.0
290
     0
  0
SCALE
  5
4D
102
{ACAD_REACTORS
330
47
102
}
330
47
100
AcDbScale
 70
     0
300
1:10
140
1.0
141
10.0
290
     0
  0
SCALE
  5
4E
102
{ACAD_REACTORS
330
47
102
}
330
47
100
AcDbScale
 70
     0
300
1:16
140
1.0
141
16.0
290
     0
  0
SCALE
  5
4F
102
{ACAD_REACTORS
330
47
102
}
330
47
100
AcDbScale
 70
     0
300
1:20
140
1.0
141
20.0
290
     0
  0
SCALE
  5
50
102
{ACAD_REACTORS
330
47
102
}
330
47
100
AcDbScale
 70
     0
300
1:30
140
1.0
141
30.0
290
     0
  0
SCALE
  5
51
102
{ACAD_REACTORS
330
47
102
}
330
47
100
AcDbScale
 70
     0
300
1:40
140
1.0
141
40.0
290
     0
  0
SCALE
  5
52
102
{ACAD_REACTORS
330
47
102
}
330
47
100
AcDbScale
 70
     0
300
1:50
140
1.0
141
50.0
290
     0
  0
SCALE
  5
53
102
{ACAD_REACTORS
330
47
102
}
330
47
100
AcDbScale
 70
     0
300
1:100
140
1.0
141
100.0
290
     0
  0
SCALE
  5
54
102
{ACAD_REACTORS
330
47
102
}
330
47
100
AcDbScale
 70
     0
300
2:1
140
2.0
141
1.0
290
     0
  0
SCALE
  5
55
102
{ACAD_REACTORS
330
47
102
}
330
47
100
AcDbScale
 70
     0
300
4:1
140
4.0
141
1.0
290
     0
  0
SCALE
  5
56
102
{ACAD_REACTORS
330
47
102
}
330
47
100
AcDbScale
 70
     0
300
8:1
140
8.0
141
1.0
290
     0
  0
SCALE
  5
57
102
{ACAD_REACTORS
330
47
102
}
330
47
100
AcDbScale
 70
     0
300
10:1
140
10.0
141
1.0
290
     0
  0
SCALE
  5
58
102
{ACAD_REACTORS
330
47
102
}
330
47
100
AcDbScale
 70
     0
300
100:1
140
100.0
141
1.0
290
     0
  0
SCALE
  5
59
102
{ACAD_REACTORS
330
47
102
}
330
47
100
AcDbScale
 70
     0
300
1/128" = 1'-0"
140
0.0078125
141
12.0
290
     0
  0
SCALE
  5
5A
102
{ACAD_REACTORS
330
47
102
}
330
47
100
AcDbScale
 70
     0
300
1/64" = 1'-0"
140
0.015625
141
12.0
290
     0
  0
SCALE
  5
5B
102
{ACAD_REACTORS
330
47
102
}
330
47
100
AcDbScale
 70
     0
300
1/32" = 1'-0"
140
0.03125
141
12.0
290
     0
  0
SCALE
  5
5C
102
{ACAD_REACTORS
330
47
102
}
330
47
100
AcDbScale
 70
     0
300
1/16" = 1'-0"
140
0.0625
141
12.0
290
     0
  0
SCALE
  5
5D
102
{ACAD_REACTORS
330
47
102
}
330
47
100
AcDbScale
 70
     0
300
3/32" = 1'-0"
140
0.09375
141
12.0
290
     0
  0
SCALE
  5
5E
102
{ACAD_REACTORS
330
47
102
}
330
47
100
AcDbScale
 70
     0
300
1/8" = 1'-0"
140
0.125
141
12.0
290
     0
  0
SCALE
  5
5F
102
{ACAD_REACTORS
330
47
102
}
330
47
100
AcDbScale
 70
     0
300
3/16" = 1'-0"
140
0.1875
141
12.0
290
     0
  0
SCALE
  5
60
102
{ACAD_REACTORS
330
47
102
}
330
47
100
AcDbScale
 70
     0
300
1/4" = 1'-0"
140
0.25
141
12.0
290
     0
  0
SCALE
  5
61
102
{ACAD_REACTORS
330
47
102
}
330
47
100
AcDbScale
 70
     0
300
3/8" = 1'-0"
140
0.375
141
12.0
290
     0
  0
SCALE
  5
62
102
{ACAD_REACTORS
330
47
102
}
330
47
100
AcDbScale
 70
     0
300
1/2" = 1'-0"
140
0.5
141
12.0
290
     0
  0
SCALE
  5
63
102
{ACAD_REACTORS
330
47
102
}
330
47
100
AcDbScale
 70
     0
300
3/4" = 1'-0"
140
0.75
141
12.0
290
     0
  0
SCALE
  5
64
102
{ACAD_REACTORS
330
47
102
}
330
47
100
AcDbScale
 70
     0
300
1" = 1'-0"
140
1.0
141
12.0
290
     0
  0
SCALE
  5
65
102
{ACAD_REACTORS
330
47
102
}
330
47
100
AcDbScale
 70
     0
300
1-1/2" = 1'-0"
140
1.5
141
12.0
290
     0
  0
SCALE
  5
66
102
{ACAD_REACTORS
330
47
102
}
330
47
100
AcDbScale
 70
     0
300
3" = 1'-0"
140
3.0
141
12.0
290
     0
  0
SCALE
  5
67
102
{ACAD_REACTORS
330
47
102
}
330
47
100
AcDbScale
 70
     0
300
6" = 1'-0"
140
6.0
141
12.0
290
     0
  0
SCALE
  5
68
102
{ACAD_REACTORS
330
47
102
}
330
47
100
AcDbScale
 70
     0
300
1'-0" = 1'-0"
140
12.0
141
12.0
290
     0
  0
ENDSEC
  0
EOF
