  0
SECTION
  2
HEADER
  9
$ACADVER
  1
AC1015
  9
$ACADMAINTVER
 70
     6
  9
$DWGCODEPAGE
  3
ANSI_1252
  9
$INSBASE
 10
0.0
 20
0.0
 30
0.0
  9
$EXTMIN
 10
-405.0
 20
-386.0
 30
0.0
  9
$EXTMAX
 10
405.0
 20
386.0
 30
0.0
  9
$LIMMIN
 10
0.0
 20
0.0
  9
$LIMMAX
 10
420.0
 20
297.0
  9
$ORTHOMODE
 70
     0
  9
$REGENMODE
 70
     1
  9
$FILLMODE
 70
     1
  9
$QTEXTMODE
 70
     0
  9
$MIRRTEXT
 70
     1
  9
$LTSCALE
 40
1.0
  9
$ATTMODE
 70
     1
  9
$TEXTSIZE
 40
3.5
  9
$TRACEWID
 40
1.0
  9
$TEXTSTYLE
  7
Standard
  9
$CLAYER
  8
0
  9
$CELTYPE
  6
ByLayer
  9
$CECOLOR
 62
   256
  9
$CELTSCALE
 40
1.0
  9
$DISPSILH
 70
     0
  9
$DIMSCALE
 40
1.0
  9
$DIMASZ
 40
3.302
  9
$DIMEXO
 40
1.0
  9
$DIMDLI
 40
3.75
  9
$DIMRND
 40
0.0
  9
$DIMDLE
 40
0.0
  9
$DIMEXE
 40
1.0
  9
$DIMTP
 40
0.0
  9
$DIMTM
 40
0.0
  9
$DIMTXT
 40
3.5
  9
$DIMCEN
 40
2.5
  9
$DIMTSZ
 40
0.0
  9
$DIMTOL
 70
     0
  9
$DIMLIM
 70
     0
  9
$DIMTIH
 70
     1
  9
$DIMTOH
 70
     1
  9
$DIMSE1
 70
     0
  9
$DIMSE2
 70
     0
  9
$DIMTAD
 70
     1
  9
$DIMZIN
 70
     0
  9
$DIMBLK
  1

  9
$DIMASO
 70
     1
  9
$DIMSHO
 70
     1
  9
$DIMPOST
  1

  9
$DIMAPOST
  1

  9
$DIMALT
 70
     0
  9
$DIMALTD
 70
     3
  9
$DIMALTF
 40
0.0393700787
  9
$DIMLFAC
 40
1.0
  9
$DIMTOFL
 70
     1
  9
$DIMTVP
 40
0.0
  9
$DIMTIX
 70
     0
  9
$DIMSOXD
 70
     0
  9
$DIMSAH
 70
     0
  9
$DIMBLK1
  1

  9
$DIMBLK2
  1

  9
$DIMSTYLE
  2
ISO-25
  9
$DIMCLRD
 70
     0
  9
$DIMCLRE
 70
     0
  9
$DIMCLRT
 70
     0
  9
$DIMTFAC
 40
1.0
  9
$DIMGAP
 40
1.524
  9
$DIMJUST
 70
     0
  9
$DIMSD1
 70
     0
  9
$DIMSD2
 70
     0
  9
$DIMTOLJ
 70
     0
  9
$DIMTZIN
 70
     0
  9
$DIMALTZ
 70
     0
  9
$DIMALTTZ
 70
     0
  9
$DIMUPT
 70
     0
  9
$DIMDEC
 70
     2
  9
$DIMTDEC
 70
     2
  9
$DIMALTU
 70
     2
  9
$DIMALTTD
 70
     3
  9
$DIMTXSTY
  7
Standard
  9
$DIMAUNIT
 70
     0
  9
$DIMADEC
 70
     2
  9
$DIMALTRND
 40
0.0
  9
$DIMAZIN
 70
     0
  9
$DIMDSEP
 70
    44
  9
$DIMATFIT
 70
     3
  9
$DIMFRAC
 70
     0
  9
$DIMLDRBLK
  1

  9
$DIMLUNIT
 70
     2
  9
$DIMLWD
 70
    -2
  9
$DIMLWE
 70
    -2
  9
$DIMTMOVE
 70
     0
  9
$LUNITS
 70
     2
  9
$LUPREC
 70
     2
  9
$SKETCHINC
 40
1.0
  9
$FILLETRAD
 40
10.0
  9
$AUNITS
 70
     0
  9
$AUPREC
 70
     2
  9
$MENU
  1
.
  9
$ELEVATION
 40
0.0
  9
$PELEVATION
 40
0.0
  9
$THICKNESS
 40
0.0
  9
$LIMCHECK
 70
     0
  9
$CHAMFERA
 40
0.0
  9
$CHAMFERB
 40
0.0
  9
$CHAMFERC
 40
0.0
  9
$CHAMFERD
 40
0.0
  9
$SKPOLY
 70
     0
  9
$TDCREATE
 40
2458723.711438403
  9
$TDUCREATE
 40
2458723.87810507
  9
$TDUPDATE
 40
2458723.711475104
  9
$TDUUPDATE
 40
2458723.878141771
  9
$TDINDWG
 40
0.0000000116
  9
$TDUSRTIMER
 40
0.0000000116
  9
$USRTIMER
 70
     1
  9
$ANGBASE
 50
0.0
  9
$ANGDIR
 70
     0
  9
$PDMODE
 70
     0
  9
$PDSIZE
 40
-1.0
  9
$PLINEWID
 40
0.0
  9
$SPLFRAME
 70
     0
  9
$SPLINETYPE
 70
     6
  9
$SPLINESEGS
 70
     8
  9
$HANDSEED
  5
19B
  9
$SURFTAB1
 70
     6
  9
$SURFTAB2
 70
     6
  9
$SURFTYPE
 70
     6
  9
$SURFU
 70
     6
  9
$SURFV
 70
     6
  9
$UCSBASE
  2

  9
$UCSNAME
  2

  9
$UCSORG
 10
0.0
 20
0.0
 30
0.0
  9
$UCSXDIR
 10
1.0
 20
0.0
 30
0.0
  9
$UCSYDIR
 10
0.0
 20
1.0
 30
0.0
  9
$UCSORTHOREF
  2

  9
$UCSORTHOVIEW
 70
     0
  9
$UCSORGTOP
 10
0.0
 20
0.0
 30
0.0
  9
$UCSORGBOTTOM
 10
0.0
 20
0.0
 30
0.0
  9
$UCSORGLEFT
 10
0.0
 20
0.0
 30
0.0
  9
$UCSORGRIGHT
 10
0.0
 20
0.0
 30
0.0
  9
$UCSORGFRONT
 10
0.0
 20
0.0
 30
0.0
  9
$UCSORGBACK
 10
0.0
 20
0.0
 30
0.0
  9
$PUCSBASE
  2

  9
$PUCSNAME
  2

  9
$PUCSORG
 10
0.0
 20
0.0
 30
0.0
  9
$PUCSXDIR
 10
1.0
 20
0.0
 30
0.0
  9
$PUCSYDIR
 10
0.0
 20
1.0
 30
0.0
  9
$PUCSORTHOREF
  2

  9
$PUCSORTHOVIEW
 70
     0
  9
$PUCSORGTOP
 10
0.0
 20
0.0
 30
0.0
  9
$PUCSORGBOTTOM
 10
0.0
 20
0.0
 30
0.0
  9
$PUCSORGLEFT
 10
0.0
 20
0.0
 30
0.0
  9
$PUCSORGRIGHT
 10
0.0
 20
0.0
 30
0.0
  9
$PUCSORGFRONT
 10
0.0
 20
0.0
 30
0.0
  9
$PUCSORGBACK
 10
0.0
 20
0.0
 30
0.0
  9
$USERI1
 70
     0
  9
$USERI2
 70
     0
  9
$USERI3
 70
     0
  9
$USERI4
 70
     0
  9
$USERI5
 70
     0
  9
$USERR1
 40
0.0
  9
$USERR2
 40
0.0
  9
$USERR3
 40
0.0
  9
$USERR4
 40
0.0
  9
$USERR5
 40
0.0
  9
$WORLDVIEW
 70
     1
  9
$SHADEDGE
 70
     3
  9
$SHADEDIF
 70
    70
  9
$TILEMODE
 70
     1
  9
$MAXACTVP
 70
    64
  9
$PINSBASE
 10
0.0
 20
0.0
 30
0.0
  9
$PLIMCHECK
 70
     0
  9
$PEXTMIN
 10
1.0000000000E+20
 20
1.0000000000E+20
 30
1.0000000000E+20
  9
$PEXTMAX
 10
-1.0000000000E+20
 20
-1.0000000000E+20
 30
-1.0000000000E+20
  9
$PLIMMIN
 10
0.0
 20
0.0
  9
$PLIMMAX
 10
420.0
 20
297.0
  9
$UNITMODE
 70
     0
  9
$VISRETAIN
 70
     1
  9
$PLINEGEN
 70
     0
  9
$PSLTSCALE
 70
     1
  9
$TREEDEPTH
 70
  3020
  9
$CMLSTYLE
  2
Standard
  9
$CMLJUST
 70
     0
  9
$CMLSCALE
 40
20.0
  9
$PROXYGRAPHICS
 70
     1
  9
$MEASUREMENT
 70
     1
  9
$CELWEIGHT
370
    -1
  9
$ENDCAPS
280
     0
  9
$JOINSTYLE
280
     0
  9
$LWDISPLAY
290
     1
  9
$INSUNITS
 70
     4
  9
$HYPERLINKBASE
  1

  9
$STYLESHEET
  1

  9
$XEDIT
290
     1
  9
$CEPSNTYPE
380
     0
  9
$PSTYLEMODE
290
     1
  9
$FINGERPRINTGUID
  2
{5E08F916-DB1E-4280-80C5-D30F373F83FF}
  9
$VERSIONGUID
  2
{FAEB1C32-E019-11D5-929B-00C0DF256EC4}
  9
$EXTNAMES
290
     1
  9
$PSVPSCALE
 40
0.0
  9
$OLESTARTUP
290
     0
  0
ENDSEC
  0
SECTION
  2
CLASSES
  0
CLASS
  1
ACDBDICTIONARYWDFLT
  2
AcDbDictionaryWithDefault
  3
ObjectDBX Classes
 90
        0
280
     0
281
     0
  0
CLASS
  1
VISUALSTYLE
  2
AcDbVisualStyle
  3
ObjectDBX Classes
 90
     4095
280
     0
281
     0
  0
CLASS
  1
MATERIAL
  2
AcDbMaterial
  3
ObjectDBX Classes
 90
     1153
280
     0
281
     0
  0
CLASS
  1
SCALE
  2
AcDbScale
  3
ObjectDBX Classes
 90
     1153
280
     0
281
     0
  0
CLASS
  1
TABLESTYLE
  2
AcDbTableStyle
  3
ObjectDBX Classes
 90
     4095
280
     0
281
     0
  0
CLASS
  1
MLEADERSTYLE
  2
AcDbMLeaderStyle
  3
ACDB_MLEADERSTYLE_CLASS
 90
     4095
280
     0
281
     0
  0
CLASS
  1
SUN
  2
AcDbSun
  3
SCENEOE
 90
     1153
280
     0
281
     0
  0
CLASS
  1
ACDBPLACEHOLDER
  2
AcDbPlaceHolder
  3
ObjectDBX Classes
 90
        0
280
     0
281
     0
  0
CLASS
  1
LAYOUT
  2
AcDbLayout
  3
ObjectDBX Classes
 90
        0
280
     0
281
     0
  0
ENDSEC
  0
SECTION
  2
TABLES
  0
TABLE
  2
VPORT
  5
8
330
0
100
AcDbSymbolTable
 70
     1
  0
VPORT
  5
29
330
8
100
AcDbSymbolTableRecord
100
AcDbViewportTableRecord
  2
*Active
 70
     0
 10
0.0
 20
0.0
 11
1.0
 21
1.0
 12
0.0
 22
0.0
 13
0.0
 23
0.0
 14
10.0
 24
10.0
 15
10.0
 25
10.0
 16
0.0
 26
0.0
 36
1.0
 17
0.0
 27
0.0
 37
0.0
 40
787.44
 41
1.0492227979
 42
50.0
 43
0.0
 44
0.0
 50
0.0
 51
0.0
 71
     0
 72
   100
 73
     1
 74
     3
 75
     0
 76
     0
 77
     0
 78
     0
281
     0
 65
     1
110
0.0
120
0.0
130
0.0
111
1.0
121
0.0
131
0.0
112
0.0
122
1.0
132
0.0
 79
     0
146
0.0
  0
ENDTAB
  0
TABLE
  2
LTYPE
  5
5
330
0
100
AcDbSymbolTable
 70
     6
  0
LTYPE
  5
14
330
5
100
AcDbSymbolTableRecord
100
AcDbLinetypeTableRecord
  2
ByBlock
 70
     0
  3

 72
    65
 73
     0
 40
0.0
  0
LTYPE
  5
15
330
5
100
AcDbSymbolTableRecord
100
AcDbLinetypeTableRecord
  2
ByLayer
 70
     0
  3

 72
    65
 73
     0
 40
0.0
  0
LTYPE
  5
16
330
5
100
AcDbSymbolTableRecord
100
AcDbLinetypeTableRecord
  2
Continuous
 70
     0
  3
Solid line
 72
    65
 73
     0
 40
0.0
  0
LTYPE
  5
6E
330
5
100
AcDbSymbolTableRecord
100
AcDbLinetypeTableRecord
  2
HIDDEN
 70
     0
  3
Hidden __ __ __ __ __ __ __ __ __ __ __ __ __ __
 72
    65
 73
     2
 40
1.905
 49
1.27
 74
     0
 49
-0.635
 74
     0
  0
LTYPE
  5
6F
330
5
100
AcDbSymbolTableRecord
100
AcDbLinetypeTableRecord
  2
PHANTOM
 70
     0
  3
Phantom ______  __  __  ______  __  __  ______
 72
    65
 73
     6
 40
12.7
 49
6.35
 74
     0
 49
-1.27
 74
     0
 49
1.27
 74
     0
 49
-1.27
 74
     0
 49
1.27
 74
     0
 49
-1.27
 74
     0
  0
LTYPE
  5
70
330
5
100
AcDbSymbolTableRecord
100
AcDbLinetypeTableRecord
  2
CENTER
 70
     0
  3
Center ____ _ ____ _ ____ _ ____ _ ____ _ ____
 72
    65
 73
     4
 40
10.16
 49
6.35
 74
     0
 49
-1.27
 74
     0
 49
1.27
 74
     0
 49
-1.27
 74
     0
  0
LTYPE
  5
71
330
5
100
AcDbSymbolTableRecord
100
AcDbLinetypeTableRecord
  2
CENTERX2
 70
     0
  3
Center (2x) ________  __  ________  __  _____
 72
    65
 73
     4
 40
20.32
 49
12.7
 74
     0
 49
-2.54
 74
     0
 49
2.54
 74
     0
 49
-2.54
 74
     0
  0
LTYPE
  5
72
330
5
100
AcDbSymbolTableRecord
100
AcDbLinetypeTableRecord
  2
DOT2
 70
     0
  3
Dot (.5x) ........................................
 72
    65
 73
     2
 40
0.635
 49
0.0
 74
     0
 49
-0.635
 74
     0
  0
ENDTAB
  0
TABLE
  2
LAYER
  5
2
330
0
100
AcDbSymbolTable
 70
     1
  0
LAYER
  5
10
330
2
100
AcDbSymbolTableRecord
100
AcDbLayerTableRecord
  2
0
 70
     0
 62
     7
  6
Continuous
370
    -3
390
F
  0
ENDTAB
  0
TABLE
  2
STYLE
  5
3
330
0
100
AcDbSymbolTable
 70
     1
  0
STYLE
  5
11
330
3
100
AcDbSymbolTableRecord
100
AcDbTextStyleTableRecord
  2
Standard
 70
     0
 40
0.0
 41
1.0
 50
0.0
 71
     0
 42
3.5
  3
txt
  4

  0
ENDTAB
  0
TABLE
  2
VIEW
  5
6
330
0
100
AcDbSymbolTable
 70
     0
  0
ENDTAB
  0
TABLE
  2
UCS
  5
7
330
0
100
AcDbSymbolTable
 70
     0
  0
ENDTAB
  0
TABLE
  2
APPID
  5
9
330
0
100
AcDbSymbolTable
 70
     1
  0
APPID
  5
12
330
9
100
AcDbSymbolTableRecord
100
AcDbRegAppTableRecord
  2
ACAD
 70
     0
  0
ENDTAB
  0
TABLE
  2
DIMSTYLE
  5
A
330
0
100
AcDbSymbolTable
 70
     1
100
AcDbDimStyleTable
  0
DIMSTYLE
105
27
330
A
100
AcDbSymbolTableRecord
100
AcDbDimStyleTableRecord
  2
ISO-25
 70
     0
 41
2.5
 42
0.625
 43
3.75
 44
1.25
 73
     0
 74
     0
 77
     1
 78
     8
140
2.5
141
2.5
143
0.0393700787
147
0.625
171
     3
172
     1
178
     0
271
     2
272
     2
274
     3
278
    44
283
     0
284
     8
340
11
  0
ENDTAB
  0
TABLE
  2
BLOCK_RECORD
  5
1
330
0
100
AcDbSymbolTable
 70
     1
  0
BLOCK_RECORD
  5
1F
330
1
100
AcDbSymbolTableRecord
100
AcDbBlockTableRecord
  2
*Model_Space
340
22
  0
BLOCK_RECORD
  5
1B
330
1
100
AcDbSymbolTableRecord
100
AcDbBlockTableRecord
  2
*Paper_Space
340
1E
  0
BLOCK_RECORD
  5
23
330
1
100
AcDbSymbolTableRecord
100
AcDbBlockTableRecord
  2
*Paper_Space0
340
26
  0
ENDTAB
  0
ENDSEC
  0
SECTION
  2
BLOCKS
  0
BLOCK
  5
20
330
1F
100
AcDbEntity
  8
0
100
AcDbBlockBegin
  2
*Model_Space
 70
     0
 10
0.0
 20
0.0
 30
0.0
  3
*Model_Space
  1

  0
ENDBLK
  5
21
330
1F
100
AcDbEntity
  8
0
100
AcDbBlockEnd
  0
BLOCK
  5
1C
330
1B
100
AcDbEntity
 67
     1
  8
0
100
AcDbBlockBegin
  2
*Paper_Space
 70
     0
 10
0.0
 20
0.0
 30
0.0
  3
*Paper_Space
  1

  0
ENDBLK
  5
1D
330
1B
100
AcDbEntity
 67
     1
  8
0
100
AcDbBlockEnd
  0
BLOCK
  5
24
330
23
100
AcDbEntity
  8
0
100
AcDbBlockBegin
  2
*Paper_Space0
 70
     0
 10
0.0
 20
0.0
 30
0.0
  3
*Paper_Space0
  1

  0
ENDBLK
  5
25
330
23
100
AcDbEntity
  8
0
100
AcDbBlockEnd
  0
ENDSEC
  0
SECTION
  2
ENTITIES
  0
ARC
  5
73
330
1F
100
AcDbEntity
  8
0
  6
Continuous
 62
     7
100
AcDbCircle
 10
-327.6222157658
 20
-154.8661882865
 30
0.0
 40
7.500000000000061
100
AcDbArc
 50
160.0
 51
340.0
  0
ARC
  5
74
330
1F
100
AcDbEntity
  8
0
  6
Continuous
 62
     7
100
AcDbCircle
 10
-290.0
 20
-51.5
 30
0.0
 40
7.499999999999959
100
AcDbArc
 50
340.0
 51
160.0
  0
ARC
  5
75
330
1F
100
AcDbEntity
  8
0
  6
Continuous
 62
     7
100
AcDbCircle
 10
-269.1012995434
 20
-219.8288528313
 30
0.0
 40
7.50000000000014
100
AcDbArc
 50
170.0
 51
350.0
  0
ARC
  5
76
330
1F
100
AcDbEntity
  8
0
  6
Continuous
 62
     7
100
AcDbCircle
 10
-250.0
 20
-111.5
 30
0.0
 40
7.500000000000164
100
AcDbArc
 50
350.0
 51
170.0
  0
ARC
  5
77
330
1F
100
AcDbEntity
  8
0
  6
Continuous
 62
     7
100
AcDbCircle
 10
-200.0
 20
-141.5
 30
0.0
 40
7.500000000000047
100
AcDbArc
 50
355.0
 51
175.0
  0
ARC
  5
78
330
1F
100
AcDbEntity
  8
0
  6
Continuous
 62
     7
100
AcDbCircle
 10
-209.5871317022
 20
-251.0814167901
 30
0.0
 40
7.50000000000002
100
AcDbArc
 50
175.0
 51
355.0
  0
ARC
  5
79
330
1F
100
AcDbEntity
  8
0
  6
Continuous
 62
     7
100
AcDbCircle
 10
-150.0
 20
-261.5
 30
0.0
 40
7.499999999999972
100
AcDbArc
 50
180.0
 51
0.0
  0
ARC
  5
7A
330
1F
100
AcDbEntity
  8
0
  6
Continuous
 62
     7
100
AcDbCircle
 10
-150.0
 20
-151.5
 30
0.0
 40
7.499999999999972
100
AcDbArc
 50
0.0
 51
180.0
  0
ARC
  5
7B
330
1F
100
AcDbEntity
  8
0
  6
Continuous
 62
     7
100
AcDbCircle
 10
-100.0
 20
-161.5
 30
0.0
 40
7.499999999999972
100
AcDbArc
 50
0.0
 51
180.0
  0
ARC
  5
7C
330
1F
100
AcDbEntity
  8
0
  6
Continuous
 62
     7
100
AcDbCircle
 10
-100.0
 20
-271.5
 30
0.0
 40
7.499999999999986
100
AcDbArc
 50
180.0
 51
0.0
  0
ARC
  5
7D
330
1F
100
AcDbEntity
  8
0
  6
Continuous
 62
     7
100
AcDbCircle
 10
-50.0
 20
-176.5
 30
0.0
 40
7.499999999999964
100
AcDbArc
 50
0.0
 51
180.0
  0
ARC
  5
7E
330
1F
100
AcDbEntity
  8
0
  6
Continuous
 62
     7
100
AcDbCircle
 10
-50.0
 20
-286.5
 30
0.0
 40
7.499999999999964
100
AcDbArc
 50
180.0
 51
0.0
  0
ARC
  5
7F
330
1F
100
AcDbEntity
  8
0
  6
Continuous
 62
     7
100
AcDbCircle
 10
0.0
 20
-176.5
 30
0.0
 40
7.500000000000007
100
AcDbArc
 50
0.0
 51
180.0
  0
ARC
  5
80
330
1F
100
AcDbEntity
  8
0
  6
Continuous
 62
     7
100
AcDbCircle
 10
0.0
 20
-286.5
 30
0.0
 40
7.500000000000013
100
AcDbArc
 50
180.0
 51
0.0
  0
ARC
  5
81
330
1F
100
AcDbEntity
  8
0
  6
Continuous
 62
     7
100
AcDbCircle
 10
50.0
 20
-176.5
 30
0.0
 40
7.499999999999972
100
AcDbArc
 50
0.0
 51
180.0
  0
ARC
  5
82
330
1F
100
AcDbEntity
  8
0
  6
Continuous
 62
     7
100
AcDbCircle
 10
50.0
 20
-286.5
 30
0.0
 40
7.499999999999972
100
AcDbArc
 50
180.0
 51
0.0
  0
ARC
  5
83
330
1F
100
AcDbEntity
  8
0
  6
Continuous
 62
     7
100
AcDbCircle
 10
100.0
 20
-161.5
 30
0.0
 40
7.499999999999972
100
AcDbArc
 50
0.0
 51
180.0
  0
ARC
  5
84
330
1F
100
AcDbEntity
  8
0
  6
Continuous
 62
     7
100
AcDbCircle
 10
100.0
 20
-271.5
 30
0.0
 40
7.499999999999986
100
AcDbArc
 50
180.0
 51
0.0
  0
ARC
  5
85
330
1F
100
AcDbEntity
  8
0
  6
Continuous
 62
     7
100
AcDbCircle
 10
155.0
 20
-151.5
 30
0.0
 40
7.499999999999943
100
AcDbArc
 50
0.0
 51
180.0
  0
ARC
  5
86
330
1F
100
AcDbEntity
  8
0
  6
Continuous
 62
     7
100
AcDbCircle
 10
155.0
 20
-261.5
 30
0.0
 40
7.500000000000028
100
AcDbArc
 50
180.0
 51
0.0
  0
ARC
  5
87
330
1F
100
AcDbEntity
  8
0
  6
Continuous
 62
     7
100
AcDbCircle
 10
327.6222157658
 20
-154.8661882865
 30
0.0
 40
7.500000000000061
100
AcDbArc
 50
200.0
 51
20.0
  0
ARC
  5
88
330
1F
100
AcDbEntity
  8
0
  6
Continuous
 62
     7
100
AcDbCircle
 10
290.0
 20
-51.5
 30
0.0
 40
7.499999999999956
100
AcDbArc
 50
20.0
 51
200.0
  0
ARC
  5
89
330
1F
100
AcDbEntity
  8
0
  6
Continuous
 62
     7
100
AcDbCircle
 10
269.1012995434
 20
-219.8288528313
 30
0.0
 40
7.50000000000014
100
AcDbArc
 50
190.0
 51
10.0
  0
ARC
  5
8A
330
1F
100
AcDbEntity
  8
0
  6
Continuous
 62
     7
100
AcDbCircle
 10
250.0
 20
-111.5
 30
0.0
 40
7.500000000000164
100
AcDbArc
 50
10.0
 51
190.0
  0
ARC
  5
8B
330
1F
100
AcDbEntity
  8
0
  6
Continuous
 62
     7
100
AcDbCircle
 10
200.0
 20
-141.5
 30
0.0
 40
7.500000000000047
100
AcDbArc
 50
5.0
 51
185.0
  0
ARC
  5
8C
330
1F
100
AcDbEntity
  8
0
  6
Continuous
 62
     7
100
AcDbCircle
 10
209.5871317022
 20
-251.0814167901
 30
0.0
 40
7.50000000000002
100
AcDbArc
 50
185.0
 51
5.0
  0
CIRCLE
  5
8D
330
1F
100
AcDbEntity
  8
0
  6
Continuous
 62
     7
100
AcDbCircle
 10
0.0
 20
-231.5
 30
0.0
 40
115.0
  0
ARC
  5
8E
330
1F
100
AcDbEntity
  8
0
  6
Continuous
 62
     7
100
AcDbCircle
 10
0.0
 20
321.7978419852
 30
0.0
 40
151.3278473022327
100
AcDbArc
 50
191.456561869
 51
249.3566897076
  0
ARC
  5
8F
330
1F
100
AcDbEntity
  8
0
  6
Continuous
 62
     7
100
AcDbCircle
 10
0.0
 20
321.7978419852
 30
0.0
 40
151.3278473022327
100
AcDbArc
 50
290.6433102924
 51
348.543438131
  0
LINE
  5
90
330
1F
100
AcDbEntity
  8
0
  6
CENTERX2
 62
     7
100
AcDbLine
 10
-327.6222157658
 20
-154.8661882865
 30
0.0
 11
-290.0
 21
-51.5
 31
0.0
  0
LINE
  5
91
330
1F
100
AcDbEntity
  8
0
  6
Continuous
 62
     7
100
AcDbLine
 10
-334.6699104217
 20
-152.3010372115
 30
0.0
 11
-297.0476946559
 21
-48.9348489251
 31
0.0
  0
LINE
  5
92
330
1F
100
AcDbEntity
  8
0
  6
Continuous
 62
     7
100
AcDbLine
 10
-320.5745211099
 20
-157.4313393614
 30
0.0
 11
-282.9523053441
 21
-54.0651510749
 31
0.0
  0
LINE
  5
93
330
1F
100
AcDbEntity
  8
0
  6
CENTERX2
 62
     7
100
AcDbLine
 10
-269.1012995434
 20
-219.8288528313
 30
0.0
 11
-250.0
 21
-111.5
 31
0.0
  0
LINE
  5
94
330
1F
100
AcDbEntity
  8
0
  6
Continuous
 62
     7
100
AcDbLine
 10
-276.487357691
 20
-218.5264914988
 30
0.0
 11
-257.3860581476
 21
-110.1976386675
 31
0.0
  0
LINE
  5
95
330
1F
100
AcDbEntity
  8
0
  6
Continuous
 62
     7
100
AcDbLine
 10
-261.7152413958
 20
-221.1312141638
 30
0.0
 11
-242.6139418524
 21
-112.8023613325
 31
0.0
  0
LINE
  5
96
330
1F
100
AcDbEntity
  8
0
  6
CENTERX2
 62
     7
100
AcDbLine
 10
-200.0
 20
-141.5
 30
0.0
 11
-209.5871317022
 21
-251.0814167901
 31
0.0
  0
LINE
  5
97
330
1F
100
AcDbEntity
  8
0
  6
Continuous
 62
     7
100
AcDbLine
 10
-192.5285397643
 20
-142.1536680706
 30
0.0
 11
-202.1156714666
 21
-251.7350848607
 31
0.0
  0
LINE
  5
98
330
1F
100
AcDbEntity
  8
0
  6
Continuous
 62
     7
100
AcDbLine
 10
-207.4714602357
 20
-140.8463319294
 30
0.0
 11
-217.0585919379
 21
-250.4277487195
 31
0.0
  0
LINE
  5
99
330
1F
100
AcDbEntity
  8
0
  6
CENTERX2
 62
     7
100
AcDbLine
 10
-150.0
 20
-261.5
 30
0.0
 11
-150.0
 21
-151.5
 31
0.0
  0
LINE
  5
9A
330
1F
100
AcDbEntity
  8
0
  6
Continuous
 62
     7
100
AcDbLine
 10
-157.5
 20
-261.5
 30
0.0
 11
-157.5
 21
-151.5
 31
0.0
  0
LINE
  5
9B
330
1F
100
AcDbEntity
  8
0
  6
Continuous
 62
     7
100
AcDbLine
 10
-142.5
 20
-261.5
 30
0.0
 11
-142.5
 21
-151.5
 31
0.0
  0
LINE
  5
9C
330
1F
100
AcDbEntity
  8
0
  6
CENTERX2
 62
     7
100
AcDbLine
 10
-100.0
 20
-161.5
 30
0.0
 11
-100.0
 21
-271.5
 31
0.0
  0
LINE
  5
9D
330
1F
100
AcDbEntity
  8
0
  6
Continuous
 62
     7
100
AcDbLine
 10
-92.5
 20
-161.5
 30
0.0
 11
-92.5
 21
-271.5
 31
0.0
  0
LINE
  5
9E
330
1F
100
AcDbEntity
  8
0
  6
Continuous
 62
     7
100
AcDbLine
 10
-107.5
 20
-161.5
 30
0.0
 11
-107.5
 21
-271.5
 31
0.0
  0
LINE
  5
9F
330
1F
100
AcDbEntity
  8
0
  6
CENTERX2
 62
     7
100
AcDbLine
 10
-50.0
 20
-176.5
 30
0.0
 11
-50.0
 21
-286.5
 31
0.0
  0
LINE
  5
A0
330
1F
100
AcDbEntity
  8
0
  6
Continuous
 62
     7
100
AcDbLine
 10
-42.5
 20
-176.5
 30
0.0
 11
-42.5
 21
-286.5
 31
0.0
  0
LINE
  5
A1
330
1F
100
AcDbEntity
  8
0
  6
Continuous
 62
     7
100
AcDbLine
 10
-57.5
 20
-176.5
 30
0.0
 11
-57.5
 21
-286.5
 31
0.0
  0
LINE
  5
A2
330
1F
100
AcDbEntity
  8
0
  6
CENTERX2
 62
     7
100
AcDbLine
 10
0.0
 20
-176.5
 30
0.0
 11
0.0
 21
-286.5
 31
0.0
  0
LINE
  5
A3
330
1F
100
AcDbEntity
  8
0
  6
Continuous
 62
     7
100
AcDbLine
 10
7.5
 20
-176.5
 30
0.0
 11
7.5
 21
-286.5
 31
0.0
  0
LINE
  5
A4
330
1F
100
AcDbEntity
  8
0
  6
Continuous
 62
     7
100
AcDbLine
 10
-7.5
 20
-176.5
 30
0.0
 11
-7.5
 21
-286.5
 31
0.0
  0
LINE
  5
A5
330
1F
100
AcDbEntity
  8
0
  6
CENTERX2
 62
     7
100
AcDbLine
 10
50.0
 20
-176.5
 30
0.0
 11
50.0
 21
-286.5
 31
0.0
  0
LINE
  5
A6
330
1F
100
AcDbEntity
  8
0
  6
Continuous
 62
     7
100
AcDbLine
 10
57.5
 20
-176.5
 30
0.0
 11
57.5
 21
-286.5
 31
0.0
  0
LINE
  5
A7
330
1F
100
AcDbEntity
  8
0
  6
Continuous
 62
     7
100
AcDbLine
 10
42.5
 20
-176.5
 30
0.0
 11
42.5
 21
-286.5
 31
0.0
  0
LINE
  5
A8
330
1F
100
AcDbEntity
  8
0
  6
CENTERX2
 62
     7
100
AcDbLine
 10
100.0
 20
-161.5
 30
0.0
 11
100.0
 21
-271.5
 31
0.0
  0
LINE
  5
A9
330
1F
100
AcDbEntity
  8
0
  6
Continuous
 62
     7
100
AcDbLine
 10
107.5
 20
-161.5
 30
0.0
 11
107.5
 21
-271.5
 31
0.0
  0
LINE
  5
AA
330
1F
100
AcDbEntity
  8
0
  6
Continuous
 62
     7
100
AcDbLine
 10
92.5
 20
-161.5
 30
0.0
 11
92.5
 21
-271.5
 31
0.0
  0
LINE
  5
AB
330
1F
100
AcDbEntity
  8
0
  6
CENTERX2
 62
     7
100
AcDbLine
 10
155.0
 20
-151.5
 30
0.0
 11
155.0
 21
-261.5
 31
0.0
  0
LINE
  5
AC
330
1F
100
AcDbEntity
  8
0
  6
Continuous
 62
     7
100
AcDbLine
 10
162.5
 20
-151.5
 30
0.0
 11
162.5
 21
-261.5
 31
0.0
  0
LINE
  5
AD
330
1F
100
AcDbEntity
  8
0
  6
Continuous
 62
     7
100
AcDbLine
 10
147.5
 20
-151.5
 30
0.0
 11
147.5
 21
-261.5
 31
0.0
  0
LINE
  5
AE
330
1F
100
AcDbEntity
  8
0
  6
CENTERX2
 62
     7
100
AcDbLine
 10
327.6222157658
 20
-154.8661882865
 30
0.0
 11
290.0
 21
-51.5
 31
0.0
  0
LINE
  5
AF
330
1F
100
AcDbEntity
  8
0
  6
Continuous
 62
     7
100
AcDbLine
 10
334.6699104217
 20
-152.3010372115
 30
0.0
 11
297.0476946559
 21
-48.9348489251
 31
0.0
  0
LINE
  5
B0
330
1F
100
AcDbEntity
  8
0
  6
Continuous
 62
     7
100
AcDbLine
 10
320.5745211099
 20
-157.4313393614
 30
0.0
 11
282.9523053441
 21
-54.0651510749
 31
0.0
  0
LINE
  5
B1
330
1F
100
AcDbEntity
  8
0
  6
CENTERX2
 62
     7
100
AcDbLine
 10
0.0
 20
0.0
 30
0.0
 11
0.0
 21
-176.5
 31
0.0
  0
LINE
  5
B2
330
1F
100
AcDbEntity
  8
0
  6
CENTERX2
 62
     7
100
AcDbLine
 10
-50.0
 20
-231.5
 30
0.0
 11
50.0
 21
-231.5
 31
0.0
  0
LINE
  5
B3
330
1F
100
AcDbEntity
  8
0
  6
CENTERX2
 62
     7
100
AcDbLine
 10
269.1012995434
 20
-219.8288528313
 30
0.0
 11
250.0
 21
-111.5
 31
0.0
  0
LINE
  5
B4
330
1F
100
AcDbEntity
  8
0
  6
Continuous
 62
     7
100
AcDbLine
 10
276.487357691
 20
-218.5264914988
 30
0.0
 11
257.3860581476
 21
-110.1976386675
 31
0.0
  0
LINE
  5
B5
330
1F
100
AcDbEntity
  8
0
  6
Continuous
 62
     7
100
AcDbLine
 10
261.7152413958
 20
-221.1312141638
 30
0.0
 11
242.6139418524
 21
-112.8023613325
 31
0.0
  0
LINE
  5
B6
330
1F
100
AcDbEntity
  8
0
  6
CENTERX2
 62
     7
100
AcDbLine
 10
200.0
 20
-141.5
 30
0.0
 11
209.5871317022
 21
-251.0814167901
 31
0.0
  0
LINE
  5
B7
330
1F
100
AcDbEntity
  8
0
  6
Continuous
 62
     7
100
AcDbLine
 10
192.5285397643
 20
-142.1536680706
 30
0.0
 11
202.1156714666
 21
-251.7350848607
 31
0.0
  0
LINE
  5
B8
330
1F
100
AcDbEntity
  8
0
  6
Continuous
 62
     7
100
AcDbLine
 10
207.4714602357
 20
-140.8463319294
 30
0.0
 11
217.0585919379
 21
-250.4277487195
 31
0.0
  0
LWPOLYLINE
  5
B9
330
1F
100
AcDbEntity
  8
0
  6
Continuous
 62
     7
100
AcDbPolyline
 90
       29
 70
   128
 43
0.0
 10
-355.8428287506
 20
-7.071957397
 10
-357.8978175907
 20
-3.8886935478
 10
-360.3342692627
 20
-1.1507373797
 10
-361.6210710956
 20
0.1739745867
 10
-362.1812979957
 20
0.6055187783
 10
-362.5609883357
 20
0.7020798211
 10
-362.9369724309
 20
0.4260852124
 10
-363.1899870113
 20
-0.2021878231
 10
-363.372276833
 20
-2.0023192128
 10
-362.5420409225
 20
-5.6449681278
 10
-361.0112212408
 20
-8.4361083064
 10
-359.6175205487
 20
-11.4955896455
 10
-358.3402071311
 20
-14.7547479896
 10
-357.088832897
 20
-18.051674062
 10
-345.685703074
 20
-46.7861966821
 10
-333.0780297391
 20
-74.2875801205
 10
-318.2720825302
 20
-100.2682105483
 10
-303.1698512907
 20
-121.1192445616
 10
-285.8839341853
 20
-140.5494788814
 10
-266.7293454895
 20
-158.4840533678
 10
-246.0217990096
 20
-174.848186891
 10
-224.0770085523
 20
-189.5670983213
 10
-201.2064536363
 20
-202.568196456
 10
-177.615792232
 20
-213.8336198395
 10
-143.5586616996
 20
-226.7649140561
 10
-108.5223492408
 20
-236.4870590046
 10
-72.753022825
 20
-243.1155904281
 10
-36.4968504216
 20
-246.7660440695
 10
0.0
 20
-247.5539556718
  0
LWPOLYLINE
  5
BA
330
1F
100
AcDbEntity
  8
0
  6
Continuous
 62
     7
100
AcDbPolyline
 90
       16
 70
   128
 43
0.0
 10
-355.8428287506
 20
-7.071957397
 10
-343.1419183044
 20
-30.917376918
 10
-329.5798614423
 20
-54.9847246561
 10
-314.8486096656
 20
-78.642179827
 10
-298.6399746944
 20
-101.2579216465
 10
-280.6457682492
 20
-122.2001293304
 10
-260.9367150713
 20
-140.5281201551
 10
-239.0688580132
 20
-156.2126062342
 10
-215.3903740327
 20
-169.4041067476
 10
-190.3464624791
 20
-180.3666752352
 10
-159.3692935796
 20
-190.8772951358
 10
-127.8264666934
 20
-199.0419243541
 10
-96.1113472516
 20
-205.1130206353
 10
-64.2384590996
 20
-209.138621309
 10
-32.2029580712
 20
-211.1563128538
 10
0.0
 20
-211.2036817483
  0
LWPOLYLINE
  5
BB
330
1F
100
AcDbEntity
  8
0
  6
Continuous
 62
     7
100
AcDbPolyline
 90
       16
 70
   128
 43
0.0
 10
355.8428287506
 20
-7.071957397
 10
343.1419183044
 20
-30.917376918
 10
329.5798614423
 20
-54.9847246561
 10
314.8486096656
 20
-78.642179827
 10
298.6399746944
 20
-101.2579216465
 10
280.6457682492
 20
-122.2001293304
 10
260.9367150713
 20
-140.5281201551
 10
239.0688580132
 20
-156.2126062342
 10
215.3903740327
 20
-169.4041067476
 10
190.3464624791
 20
-180.3666752352
 10
159.3692935796
 20
-190.8772951358
 10
127.8264666934
 20
-199.0419243541
 10
96.1113472516
 20
-205.1130206353
 10
64.2384590996
 20
-209.138621309
 10
32.2029580712
 20
-211.1563128538
 10
0.0
 20
-211.2036817483
  0
LWPOLYLINE
  5
BC
330
1F
100
AcDbEntity
  8
0
  6
Continuous
 62
     7
100
AcDbPolyline
 90
       29
 70
   128
 43
0.0
 10
355.8428287506
 20
-7.071957397
 10
357.8978175907
 20
-3.8886935478
 10
360.3342692627
 20
-1.1507373797
 10
361.6210710956
 20
0.1739745867
 10
362.1812979957
 20
0.6055187783
 10
362.5609883357
 20
0.7020798211
 10
362.9369724309
 20
0.4260852124
 10
363.1899870113
 20
-0.2021878231
 10
363.372276833
 20
-2.0023192128
 10
362.5420409225
 20
-5.6449681278
 10
361.0112212408
 20
-8.4361083064
 10
359.6175205487
 20
-11.4955896455
 10
358.3402071311
 20
-14.7547479896
 10
357.088832897
 20
-18.051674062
 10
345.685703074
 20
-46.7861966821
 10
333.0780297391
 20
-74.2875801205
 10
318.2720825302
 20
-100.2682105483
 10
303.1698512907
 20
-121.1192445616
 10
285.8839341853
 20
-140.5494788814
 10
266.7293454895
 20
-158.4840533678
 10
246.0217990096
 20
-174.848186891
 10
224.0770085523
 20
-189.5670983213
 10
201.2064536363
 20
-202.568196456
 10
177.615792232
 20
-213.8336198395
 10
143.5586616996
 20
-226.7649140561
 10
108.5223492408
 20
-236.4870590046
 10
72.753022825
 20
-243.1155904281
 10
36.4968504216
 20
-246.7660440695
 10
0.0
 20
-247.5539556718
  0
LWPOLYLINE
  5
BD
330
1F
100
AcDbEntity
  8
0
  6
Continuous
 62
     7
100
AcDbPolyline
 90
       26
 70
   128
 43
0.0
 10
-17.9446190596
 20
38.0941330603
 10
-21.6233773714
 20
38.4975716254
 10
-25.3996510772
 20
36.464559238
 10
-29.1863823915
 20
32.668569342
 10
-32.8965029705
 20
27.7830753814
 10
-39.7380512615
 20
17.4215451654
 10
-45.1464732884
 20
8.5640171186
 10
-48.1817722443
 20
-0.00269774
 10
-48.0164845648
 20
-9.527002665
 10
-46.4055998961
 20
-15.0437702825
 10
-43.6673142753
 20
-20.4248803205
 10
-40.7236293379
 20
-24.3529486742
 10
-37.2397536124
 20
-27.2638803705
 10
-32.9210316696
 20
-28.0587857928
 10
-28.5800787467
 20
-25.8515635005
 10
-24.6406421197
 20
-21.9889792731
 10
-21.4341436588
 20
-17.7126954573
 10
-16.9848631549
 20
-8.7133821346
 10
-14.323758526
 20
0.729288448
 10
-12.4546945538
 20
10.4325518966
 10
-11.1324701849
 20
17.7813019783
 10
-10.843353181
 20
25.19762541
 10
-11.7213338808
 20
29.3994952447
 10
-13.6087506768
 20
33.5293471181
 10
-15.6402708805
 20
36.2710172319
 10
-17.9446296176
 20
38.0941330603
  0
LWPOLYLINE
  5
BE
330
1F
100
AcDbEntity
  8
0
  6
Continuous
 62
     7
100
AcDbPolyline
 90
       26
 70
   128
 43
0.0
 10
17.9446190596
 20
38.0941330603
 10
21.6233773714
 20
38.4975716254
 10
25.3996510772
 20
36.464559238
 10
29.1863823915
 20
32.668569342
 10
32.8965029705
 20
27.7830753814
 10
39.7380512615
 20
17.4215451654
 10
45.1464732884
 20
8.5640171186
 10
48.1817722443
 20
-0.00269774
 10
48.0164845648
 20
-9.527002665
 10
46.4055998961
 20
-15.0437702825
 10
43.6673142753
 20
-20.4248803205
 10
40.7236293379
 20
-24.3529486742
 10
37.2397536124
 20
-27.2638803705
 10
32.9210316696
 20
-28.0587857928
 10
28.5800787467
 20
-25.8515635005
 10
24.6406421197
 20
-21.9889792731
 10
21.4341436588
 20
-17.7126954573
 10
16.9848631549
 20
-8.7133821346
 10
14.323758526
 20
0.729288448
 10
12.4546945538
 20
10.4325518966
 10
11.1324701849
 20
17.7813019783
 10
10.843353181
 20
25.19762541
 10
11.7213338808
 20
29.3994952447
 10
13.6087506768
 20
33.5293471181
 10
15.6402708805
 20
36.2710172319
 10
17.9446296176
 20
38.0941330603
  0
LWPOLYLINE
  5
BF
330
1F
100
AcDbEntity
  8
0
  6
Continuous
 62
     7
100
AcDbPolyline
 90
       45
 70
   128
 43
0.0
 10
-110.0929379463
 20
302.1392848518
 10
-125.0018819162
 20
300.3433106739
 10
-139.4159657528
 20
295.8433335967
 10
-153.0185535658
 20
289.1510979919
 10
-165.5107617892
 20
280.7777272141
 10
-176.9626070971
 20
271.2214598465
 10
-198.0328145587
 20
250.8586755406
 10
-218.3756436856
 20
229.787982008
 10
-229.1903449083
 20
217.1293862257
 10
-239.1308243588
 20
203.6646956869
 10
-247.7990644738
 20
189.2466320669
 10
-254.5714446525
 20
173.8989036669
 10
-258.801858583
 20
157.6622609161
 10
-259.8983671357
 20
140.6571667164
 10
-257.6888786445
 20
123.6219318585
 10
-252.1973967549
 20
107.5834411621
 10
-244.5816872913
 20
94.9941131474
 10
-234.5463675754
 20
84.453162178
 10
-222.5540309469
 20
75.7864837724
 10
-209.110453798
 20
68.7329716413
 10
-194.721412521
 20
63.0315194957
 10
-179.8882853582
 20
58.4391251847
 10
-166.4744395041
 20
55.4597645521
 10
-153.1812975962
 20
54.203460505
 10
-140.177779469
 20
55.3022684012
 10
-127.6446347467
 20
59.2473048915
 10
-115.8299513812
 20
65.7274257778
 10
-102.4861300858
 20
76.4866507225
 10
-91.2081117229
 20
89.128157239
 10
-82.0809905596
 20
102.9216534396
 10
-74.6591928542
 20
117.650515704
 10
-65.7145845554
 20
140.9853657447
 10
-57.9154831033
 20
165.3760487327
 10
-50.4923753893
 20
190.2524865962
 10
-47.0293244224
 20
204.9685178278
 10
-44.8594700637
 20
219.6290966214
 10
-44.4838299415
 20
234.1551033567
 10
-46.4034216845
 20
248.4674184133
 10
-51.158715557
 20
262.6022456302
 10
-58.7863405237
 20
275.8522460876
 10
-68.9334605417
 20
287.2536058508
 10
-77.9767705898
 20
294.0033418806
 10
-88.0699818686
 20
298.7647413653
 10
-98.9165624926
 20
301.4249640722
 10
-110.0929657931
 20
302.1392848518
  0
LWPOLYLINE
  5
C0
330
1F
100
AcDbEntity
  8
0
  6
Continuous
 62
     7
100
AcDbPolyline
 90
       45
 70
   128
 43
0.0
 10
110.0929379463
 20
302.1392848518
 10
125.0018819162
 20
300.3433106739
 10
139.4159657528
 20
295.8433335967
 10
153.0185535658
 20
289.1510979919
 10
165.5107617892
 20
280.7777272141
 10
176.9626070971
 20
271.2214598465
 10
198.0328145587
 20
250.8586755406
 10
218.3756436856
 20
229.787982008
 10
229.1903449083
 20
217.1293862257
 10
239.1308243588
 20
203.6646956869
 10
247.7990644738
 20
189.2466320669
 10
254.5714446525
 20
173.8989036669
 10
258.801858583
 20
157.6622609161
 10
259.8983671357
 20
140.6571667164
 10
257.6888786445
 20
123.6219318585
 10
252.1973967549
 20
107.5834411621
 10
244.5816872913
 20
94.9941131474
 10
234.5463675754
 20
84.453162178
 10
222.5540309469
 20
75.7864837724
 10
209.110453798
 20
68.7329716413
 10
194.721412521
 20
63.0315194957
 10
179.8882853582
 20
58.4391251847
 10
166.4744395041
 20
55.4597645521
 10
153.1812975962
 20
54.203460505
 10
140.177779469
 20
55.3022684012
 10
127.6446347467
 20
59.2473048915
 10
115.8299513812
 20
65.7274257778
 10
102.4861300858
 20
76.4866507225
 10
91.2081117229
 20
89.128157239
 10
82.0809905596
 20
102.9216534396
 10
74.6591928542
 20
117.650515704
 10
65.7145845554
 20
140.9853657447
 10
57.9154831033
 20
165.3760487327
 10
50.4923753893
 20
190.2524865962
 10
47.0293244224
 20
204.9685178278
 10
44.8594700637
 20
219.6290966214
 10
44.4838299415
 20
234.1551033567
 10
46.4034216845
 20
248.4674184133
 10
51.158715557
 20
262.6022456302
 10
58.7863405237
 20
275.8522460876
 10
68.9334605417
 20
287.2536058508
 10
77.9767705898
 20
294.0033418806
 10
88.0699818686
 20
298.7647413653
 10
98.9165624926
 20
301.4249640722
 10
110.0929657931
 20
302.1392848518
  0
LWPOLYLINE
  5
C1
330
1F
100
AcDbEntity
  8
0
  6
Continuous
 62
     7
100
AcDbPolyline
 90
       80
 70
   128
 43
0.0
 10
-380.9998035431
 20
105.2932640083
 10
-372.9210133672
 20
133.950362056
 10
-362.0957322351
 20
163.3057613148
 10
-348.943374493
 20
192.4880419377
 10
-333.8831580303
 20
220.6257840779
 10
-317.3343007362
 20
246.8475678886
 10
-299.7160205
 20
270.2819735227
 10
-284.0546376906
 20
287.5684321541
 10
-267.9462973294
 20
302.3098922811
 10
-251.3736931491
 20
314.7919765636
 10
-234.3192785484
 20
325.3010205295
 10
-216.765506926
 20
334.1233597065
 10
-198.6948316803
 20
341.5453296224
 10
-180.0897062099
 20
347.853265805
 10
-149.798839101
 20
356.1868424109
 10
-118.0848000435
 20
363.5838173266
 10
-85.0655718942
 20
370.5241637866
 10
-51.2099018352
 20
376.3089504551
 10
-17.0259321866
 20
380.106840546
 10
16.3874052671
 20
381.11754852
 10
49.454324466
 20
379.1148313131
 10
82.2807702478
 20
374.2491548642
 10
114.9858217643
 20
366.6919619959
 10
148.271720818
 20
356.407436481
 10
181.3570593301
 20
343.6439680806
 10
213.7447067896
 20
328.4914363016
 10
244.9230641758
 20
311.0376046814
 10
274.3805324679
 20
291.3702367575
 10
292.4739930031
 20
277.3297092251
 10
309.1236716692
 20
262.2787210364
 10
323.6873346178
 20
246.0579582561
 10
336.1555913466
 20
228.7105595829
 10
346.7688321294
 20
210.3597208536
 10
355.7680056448
 20
191.128816879
 10
366.9439217399
 20
160.3394801553
 10
375.7753232368
 20
128.2246337111
 10
383.1140812428
 20
95.2225417681
 10
389.3216093919
 20
61.6768717952
 10
393.9348555007
 20
27.7722728064
 10
396.3894084734
 20
-5.712339951
 10
396.2697091124
 20
-39.2192654164
 10
393.0622864705
 20
-72.5879877183
 10
386.3947490097
 20
-105.6139485007
 10
376.1237979843
 20
-138.5338545206
 10
362.503444787
 20
-170.3530068845
 10
345.6988268592
 20
-200.6812212935
 10
325.8750816423
 20
-229.1283134489
 10
303.1973465779
 20
-255.3040990518
 10
278.3143161545
 20
-278.4495160452
 10
251.0808409722
 20
-298.9351472345
 10
221.7693665317
 20
-316.7617778892
 10
190.6526664889
 20
-331.9312412411
 10
157.3974074088
 20
-344.6483332622
 10
122.8413886393
 20
-354.6145908693
 10
87.2725345582
 20
-361.8319491179
 10
50.9787695434
 20
-366.3023430636
 10
14.2480179729
 20
-368.0277077619
 10
-21.9735887294
 20
-367.0521953549
 10
-58.066207837
 20
-363.4325149266
 10
-93.7570656938
 20
-357.1704997091
 10
-128.773388644
 20
-348.2679829344
 10
-163.4513726473
 20
-336.4925454834
 10
-196.8593629661
 20
-321.9835509003
 10
-228.7060961847
 20
-304.759230244
 10
-258.651653153
 20
-285.0752764049
 10
-286.3193164327
 20
-263.366974442
 10
-310.9102883225
 20
-240.5013408774
 10
-332.5819769947
 20
-216.5237558242
 10
-350.9772902473
 20
-191.8501780064
 10
-365.9049866743
 20
-166.7401056671
 10
-377.7401094134
 20
-140.6192420691
 10
-386.4389889695
 20
-113.7786824249
 10
-392.2612198991
 20
-86.0570075424
 10
-395.4663967585
 20
-57.2927982293
 10
-396.314114104
 20
-27.3246352935
 10
-395.4954531355
 20
-2.8284593388
 10
-393.5076001541
 20
22.588923064
 10
-390.4764736564
 20
49.0058096352
 10
-386.5194078364
 20
76.502044626
 10
-381.0
 20
105.2932640083
  0
LWPOLYLINE
  5
C2
330
1F
100
AcDbEntity
  8
0
  6
Continuous
 62
     7
100
AcDbPolyline
 90
       32
 70
   128
 43
0.0
 10
-362.489938736
 20
0.7050326556
 10
-354.8896168487
 20
-24.7134041502
 10
-344.7563516236
 20
-48.6775366153
 10
-332.2902535502
 20
-71.1819405421
 10
-317.6914032775
 20
-92.221191733
 10
-301.1598814545
 20
-111.7898659903
 10
-283.2359476741
 20
-129.5724303448
 10
-263.8303010616
 20
-145.9260984571
 10
-243.1324939242
 20
-160.8457315534
 10
-221.332078569
 20
-174.3261908602
 10
-191.6851371861
 20
-189.6766449587
 10
-160.9134123942
 20
-202.5798292052
 10
-129.418100764
 20
-213.0286354677
 10
-97.4282857264
 20
-221.0669387473
 10
-65.0574138331
 20
-226.7728678529
 10
-32.4167869277
 20
-230.2251868962
 10
0.3822931342
 20
-231.502659938
 10
33.2206592722
 20
-230.6507508827
 10
65.9487630555
 20
-227.5862936569
 10
98.4097214044
 20
-222.1950684077
 10
130.4466512392
 20
-214.3628552826
 10
161.9022481339
 20
-203.9757472507
 10
192.5500600249
 20
-190.9711749092
 10
222.0182542958
 20
-175.3945044688
 10
249.3765765771
 20
-157.6907769335
 10
274.8600030337
 20
-137.6289981099
 10
298.1012855641
 20
-115.2646972362
 10
318.7331760667
 20
-90.6534035505
 10
332.8741455596
 20
-69.7757971962
 10
344.9993586377
 20
-47.5722324315
 10
354.9306785577
 20
-24.0696441748
 10
362.4899685766
 20
0.7050326556
  0
POINT
  5
C3
330
1F
100
AcDbEntity
  8
0
  6
Continuous
 62
     7
100
AcDbPoint
 10
-308.8111078829
 20
-103.1830941432
 30
0.0
  0
POINT
  5
C4
330
1F
100
AcDbEntity
  8
0
  6
Continuous
 62
     7
100
AcDbPoint
 10
-259.5506497717
 20
-165.6644264157
 30
0.0
  0
POINT
  5
C5
330
1F
100
AcDbEntity
  8
0
  6
Continuous
 62
     7
100
AcDbPoint
 10
-204.7935658511
 20
-196.290708395
 30
0.0
  0
POINT
  5
C6
330
1F
100
AcDbEntity
  8
0
  6
Continuous
 62
     7
100
AcDbPoint
 10
-150.0
 20
-206.5
 30
0.0
  0
POINT
  5
C7
330
1F
100
AcDbEntity
  8
0
  6
Continuous
 62
     7
100
AcDbPoint
 10
-100.0
 20
-216.5
 30
0.0
  0
POINT
  5
C8
330
1F
100
AcDbEntity
  8
0
  6
Continuous
 62
     7
100
AcDbPoint
 10
-50.0
 20
-231.5
 30
0.0
  0
POINT
  5
C9
330
1F
100
AcDbEntity
  8
0
  6
Continuous
 62
     7
100
AcDbPoint
 10
0.0
 20
-231.5
 30
0.0
  0
POINT
  5
CA
330
1F
100
AcDbEntity
  8
0
  6
Continuous
 62
     7
100
AcDbPoint
 10
50.0
 20
-231.5
 30
0.0
  0
POINT
  5
CB
330
1F
100
AcDbEntity
  8
0
  6
Continuous
 62
     7
100
AcDbPoint
 10
100.0
 20
-216.5
 30
0.0
  0
POINT
  5
CC
330
1F
100
AcDbEntity
  8
0
  6
Continuous
 62
     7
100
AcDbPoint
 10
155.0
 20
-206.5
 30
0.0
  0
POINT
  5
CD
330
1F
100
AcDbEntity
  8
0
  6
Continuous
 62
     7
100
AcDbPoint
 10
308.8111078829
 20
-103.1830941432
 30
0.0
  0
POINT
  5
CE
330
1F
100
AcDbEntity
  8
0
  6
Continuous
 62
     7
100
AcDbPoint
 10
259.5506497717
 20
-165.6644264157
 30
0.0
  0
POINT
  5
CF
330
1F
100
AcDbEntity
  8
0
  6
Continuous
 62
     7
100
AcDbPoint
 10
204.7935658511
 20
-196.290708395
 30
0.0
  0
POINT
  5
D0
330
1F
100
AcDbEntity
  8
0
  6
Continuous
 62
     7
100
AcDbPoint
 10
-290.0
 20
-51.5
 30
0.0
  0
POINT
  5
D1
330
1F
100
AcDbEntity
  8
0
  6
Continuous
 62
     7
100
AcDbPoint
 10
-327.6222157658
 20
-154.8661882865
 30
0.0
  0
POINT
  5
D2
330
1F
100
AcDbEntity
  8
0
  6
Continuous
 62
     7
100
AcDbPoint
 10
-250.0
 20
-111.5
 30
0.0
  0
POINT
  5
D3
330
1F
100
AcDbEntity
  8
0
  6
Continuous
 62
     7
100
AcDbPoint
 10
-269.1012995434
 20
-219.8288528313
 30
0.0
  0
POINT
  5
D4
330
1F
100
AcDbEntity
  8
0
  6
Continuous
 62
     7
100
AcDbPoint
 10
-200.0
 20
-141.5
 30
0.0
  0
POINT
  5
D5
330
1F
100
AcDbEntity
  8
0
  6
Continuous
 62
     7
100
AcDbPoint
 10
-209.5871317022
 20
-251.0814167901
 30
0.0
  0
POINT
  5
D6
330
1F
100
AcDbEntity
  8
0
  6
Continuous
 62
     7
100
AcDbPoint
 10
-150.0
 20
-151.5
 30
0.0
  0
POINT
  5
D7
330
1F
100
AcDbEntity
  8
0
  6
Continuous
 62
     7
100
AcDbPoint
 10
-150.0
 20
-261.5
 30
0.0
  0
POINT
  5
D8
330
1F
100
AcDbEntity
  8
0
  6
Continuous
 62
     7
100
AcDbPoint
 10
-100.0
 20
-161.5
 30
0.0
  0
POINT
  5
D9
330
1F
100
AcDbEntity
  8
0
  6
Continuous
 62
     7
100
AcDbPoint
 10
-100.0
 20
-271.5
 30
0.0
  0
POINT
  5
DA
330
1F
100
AcDbEntity
  8
0
  6
Continuous
 62
     7
100
AcDbPoint
 10
-50.0
 20
-176.5
 30
0.0
  0
POINT
  5
DB
330
1F
100
AcDbEntity
  8
0
  6
Continuous
 62
     7
100
AcDbPoint
 10
-50.0
 20
-286.5
 30
0.0
  0
POINT
  5
DC
330
1F
100
AcDbEntity
  8
0
  6
Continuous
 62
     7
100
AcDbPoint
 10
0.0
 20
-176.5
 30
0.0
  0
POINT
  5
DD
330
1F
100
AcDbEntity
  8
0
  6
Continuous
 62
     7
100
AcDbPoint
 10
0.0
 20
-286.5
 30
0.0
  0
POINT
  5
DE
330
1F
100
AcDbEntity
  8
0
  6
Continuous
 62
     7
100
AcDbPoint
 10
50.0
 20
-176.5
 30
0.0
  0
POINT
  5
DF
330
1F
100
AcDbEntity
  8
0
  6
Continuous
 62
     7
100
AcDbPoint
 10
50.0
 20
-286.5
 30
0.0
  0
POINT
  5
E0
330
1F
100
AcDbEntity
  8
0
  6
Continuous
 62
     7
100
AcDbPoint
 10
100.0
 20
-161.5
 30
0.0
  0
POINT
  5
E1
330
1F
100
AcDbEntity
  8
0
  6
Continuous
 62
     7
100
AcDbPoint
 10
100.0
 20
-271.5
 30
0.0
  0
POINT
  5
E2
330
1F
100
AcDbEntity
  8
0
  6
Continuous
 62
     7
100
AcDbPoint
 10
155.0
 20
-261.5
 30
0.0
  0
POINT
  5
E3
330
1F
100
AcDbEntity
  8
0
  6
Continuous
 62
     7
100
AcDbPoint
 10
155.0
 20
-151.5
 30
0.0
  0
POINT
  5
E4
330
1F
100
AcDbEntity
  8
0
  6
Continuous
 62
     7
100
AcDbPoint
 10
200.0
 20
-141.5
 30
0.0
  0
POINT
  5
E5
330
1F
100
AcDbEntity
  8
0
  6
Continuous
 62
     7
100
AcDbPoint
 10
209.5871317022
 20
-251.0814167901
 30
0.0
  0
POINT
  5
E6
330
1F
100
AcDbEntity
  8
0
  6
Continuous
 62
     7
100
AcDbPoint
 10
250.0
 20
-111.5
 30
0.0
  0
POINT
  5
E7
330
1F
100
AcDbEntity
  8
0
  6
Continuous
 62
     7
100
AcDbPoint
 10
269.1012995434
 20
-219.8288528313
 30
0.0
  0
POINT
  5
E8
330
1F
100
AcDbEntity
  8
0
  6
Continuous
 62
     7
100
AcDbPoint
 10
290.0
 20
-51.5
 30
0.0
  0
POINT
  5
E9
330
1F
100
AcDbEntity
  8
0
  6
Continuous
 62
     7
100
AcDbPoint
 10
327.6222157658
 20
-154.8661882865
 30
0.0
  0
POINT
  5
EA
330
1F
100
AcDbEntity
  8
0
  6
Continuous
 62
     7
100
AcDbPoint
 10
-136.1486694291
 20
255.7398585025
 30
0.0
  0
POINT
  5
EB
330
1F
100
AcDbEntity
  8
0
  6
Continuous
 62
     7
100
AcDbPoint
 10
-115.0728602136
 20
223.5209158459
 30
0.0
  0
POINT
  5
EC
330
1F
100
AcDbEntity
  8
0
  6
Continuous
 62
     7
100
AcDbPoint
 10
-86.9471985295
 20
197.9418690287
 30
0.0
  0
POINT
  5
ED
330
1F
100
AcDbEntity
  8
0
  6
Continuous
 62
     7
100
AcDbPoint
 10
86.9471985295
 20
197.9418690287
 30
0.0
  0
POINT
  5
EE
330
1F
100
AcDbEntity
  8
0
  6
Continuous
 62
     7
100
AcDbPoint
 10
115.0728602136
 20
223.5209158459
 30
0.0
  0
POINT
  5
EF
330
1F
100
AcDbEntity
  8
0
  6
Continuous
 62
     7
100
AcDbPoint
 10
136.1486694291
 20
255.7398585025
 30
0.0
  0
CIRCLE
  5
F8
330
1F
100
AcDbEntity
  8
0
  6
Continuous
 62
     7
370
    25
100
AcDbCircle
 10
-110.0929657931
 20
302.1392848518
 30
0.0
 40
5.400000000000034
  0
CIRCLE
  5
F9
330
1F
100
AcDbEntity
  8
0
  6
Continuous
 62
     7
370
    25
100
AcDbCircle
 10
-148.3127264251
 20
291.740354574
 30
0.0
 40
5.399999999999949
  0
CIRCLE
  5
FA
330
1F
100
AcDbEntity
  8
0
  6
Continuous
 62
     7
370
    25
100
AcDbCircle
 10
-180.363814865
 20
268.0970277525
 30
0.0
 40
5.399999999999949
  0
CIRCLE
  5
FB
330
1F
100
AcDbEntity
  8
0
  6
Continuous
 62
     7
370
    25
100
AcDbCircle
 10
-208.7814795333
 20
240.0093381319
 30
0.0
 40
5.399999999999977
  0
CIRCLE
  5
FC
330
1F
100
AcDbEntity
  8
0
  6
Continuous
 62
     7
370
    25
100
AcDbCircle
 10
-234.8419766675
 20
209.7590620734
 30
0.0
 40
5.400000000000034
  0
CIRCLE
  5
FD
330
1F
100
AcDbEntity
  8
0
  6
Continuous
 62
     7
370
    25
100
AcDbCircle
 10
-254.1929232558
 20
174.9473734624
 30
0.0
 40
5.400000000000091
  0
CIRCLE
  5
FE
330
1F
100
AcDbEntity
  8
0
  6
Continuous
 62
     7
370
    25
100
AcDbCircle
 10
-259.5983920711
 20
135.6907731679
 30
0.0
 40
5.400000000000034
  0
CIRCLE
  5
FF
330
1F
100
AcDbEntity
  8
0
  6
Continuous
 62
     7
370
    25
100
AcDbCircle
 10
-246.9175633552
 20
98.2359632193
 30
0.0
 40
5.39999999999992
  0
CIRCLE
  5
100
330
1F
100
AcDbEntity
  8
0
  6
Continuous
 62
     7
370
    25
100
AcDbCircle
 10
-216.8465465453
 20
72.5309762322
 30
0.0
 40
5.400000000000006
  0
CIRCLE
  5
101
330
1F
100
AcDbEntity
  8
0
  6
Continuous
 62
     7
370
    25
100
AcDbCircle
 10
-179.5743366719
 20
58.3544899584
 30
0.0
 40
5.400000000000006
  0
CIRCLE
  5
102
330
1F
100
AcDbEntity
  8
0
  6
Continuous
 62
     7
370
    25
100
AcDbCircle
 10
-140.0803786635
 20
55.3212790013
 30
0.0
 40
5.399999999999977
  0
CIRCLE
  5
103
330
1F
100
AcDbEntity
  8
0
  6
Continuous
 62
     7
370
    25
100
AcDbCircle
 10
-105.2480110008
 20
73.9310788581
 30
0.0
 40
5.40000000000002
  0
CIRCLE
  5
104
330
1F
100
AcDbEntity
  8
0
  6
Continuous
 62
     7
370
    25
100
AcDbCircle
 10
-80.7668671631
 20
105.2647918052
 30
0.0
 40
5.400000000000006
  0
CIRCLE
  5
105
330
1F
100
AcDbEntity
  8
0
  6
Continuous
 62
     7
370
    25
100
AcDbCircle
 10
-65.3486513615
 20
142.0716373993
 30
0.0
 40
5.399999999999999
  0
CIRCLE
  5
106
330
1F
100
AcDbEntity
  8
0
  6
Continuous
 62
     7
370
    25
100
AcDbCircle
 10
-53.3504996947
 20
180.1862550601
 30
0.0
 40
5.399999999999984
  0
CIRCLE
  5
107
330
1F
100
AcDbEntity
  8
0
  6
Continuous
 62
     7
370
    25
100
AcDbCircle
 10
-44.9020997811
 20
219.1790643711
 30
0.0
 40
5.399999999999999
  0
CIRCLE
  5
108
330
1F
100
AcDbEntity
  8
0
  6
Continuous
 62
     7
370
    25
100
AcDbCircle
 10
-49.4534795676
 20
258.509657967
 30
0.0
 40
5.400000000000006
  0
CIRCLE
  5
109
330
1F
100
AcDbEntity
  8
0
  6
Continuous
 62
     7
370
    25
100
AcDbCircle
 10
-72.7138446831
 20
290.3988283949
 30
0.0
 40
5.40000000000002
  0
CIRCLE
  5
10A
330
1F
100
AcDbEntity
  8
0
  6
Continuous
 62
     7
370
    25
100
AcDbCircle
 10
-17.9446296176
 20
38.0941330603
 30
0.0
 40
5.399999999999995
  0
CIRCLE
  5
10B
330
1F
100
AcDbEntity
  8
0
  6
Continuous
 62
     7
370
    25
100
AcDbCircle
 10
-34.9248675568
 20
24.7972796337
 30
0.0
 40
5.399999999999995
  0
CIRCLE
  5
10C
330
1F
100
AcDbEntity
  8
0
  6
Continuous
 62
     7
370
    25
100
AcDbCircle
 10
-46.8182228351
 20
4.8952635091
 30
0.0
 40
5.399999999999999
  0
CIRCLE
  5
10D
330
1F
100
AcDbEntity
  8
0
  6
Continuous
 62
     7
370
    25
100
AcDbCircle
 10
-45.2635700874
 20
-17.5972326754
 30
0.0
 40
5.399999999999999
  0
CIRCLE
  5
10E
330
1F
100
AcDbEntity
  8
0
  6
Continuous
 62
     7
370
    25
100
AcDbCircle
 10
-27.7355014433
 20
-25.1540101721
 30
0.0
 40
5.399999999999988
  0
CIRCLE
  5
10F
330
1F
100
AcDbEntity
  8
0
  6
Continuous
 62
     7
370
    25
100
AcDbCircle
 10
-15.9173580741
 20
-5.5036516082
 30
0.0
 40
5.399999999999999
  0
CIRCLE
  5
110
330
1F
100
AcDbEntity
  8
0
  6
Continuous
 62
     7
370
    25
100
AcDbCircle
 10
-11.2155624695
 20
17.2269973661
 30
0.0
 40
5.399999999999997
  0
CIRCLE
  5
111
330
1F
100
AcDbEntity
  8
0
  6
Continuous
 62
     7
370
    25
100
AcDbCircle
 10
110.0929657931
 20
302.1392848518
 30
0.0
 40
5.400000000000034
  0
CIRCLE
  5
112
330
1F
100
AcDbEntity
  8
0
  6
Continuous
 62
     7
370
    25
100
AcDbCircle
 10
72.7138446831
 20
290.3988283949
 30
0.0
 40
5.40000000000002
  0
CIRCLE
  5
113
330
1F
100
AcDbEntity
  8
0
  6
Continuous
 62
     7
370
    25
100
AcDbCircle
 10
148.3127264251
 20
291.740354574
 30
0.0
 40
5.399999999999949
  0
CIRCLE
  5
114
330
1F
100
AcDbEntity
  8
0
  6
Continuous
 62
     7
370
    25
100
AcDbCircle
 10
180.363814865
 20
268.0970277525
 30
0.0
 40
5.399999999999949
  0
CIRCLE
  5
115
330
1F
100
AcDbEntity
  8
0
  6
Continuous
 62
     7
370
    25
100
AcDbCircle
 10
208.7814795333
 20
240.0093381319
 30
0.0
 40
5.399999999999977
  0
CIRCLE
  5
116
330
1F
100
AcDbEntity
  8
0
  6
Continuous
 62
     7
370
    25
100
AcDbCircle
 10
234.8419766675
 20
209.7590620734
 30
0.0
 40
5.400000000000034
  0
CIRCLE
  5
117
330
1F
100
AcDbEntity
  8
0
  6
Continuous
 62
     7
370
    25
100
AcDbCircle
 10
254.1929232558
 20
174.9473734624
 30
0.0
 40
5.400000000000091
  0
CIRCLE
  5
118
330
1F
100
AcDbEntity
  8
0
  6
Continuous
 62
     7
370
    25
100
AcDbCircle
 10
259.5983920711
 20
135.6907731679
 30
0.0
 40
5.400000000000034
  0
CIRCLE
  5
119
330
1F
100
AcDbEntity
  8
0
  6
Continuous
 62
     7
370
    25
100
AcDbCircle
 10
246.9175633552
 20
98.2359632193
 30
0.0
 40
5.399999999999949
  0
CIRCLE
  5
11A
330
1F
100
AcDbEntity
  8
0
  6
Continuous
 62
     7
370
    25
100
AcDbCircle
 10
216.8465465453
 20
72.5309762322
 30
0.0
 40
5.400000000000006
  0
CIRCLE
  5
11B
330
1F
100
AcDbEntity
  8
0
  6
Continuous
 62
     7
370
    25
100
AcDbCircle
 10
179.5743366719
 20
58.3544899584
 30
0.0
 40
5.400000000000006
  0
CIRCLE
  5
11C
330
1F
100
AcDbEntity
  8
0
  6
Continuous
 62
     7
370
    25
100
AcDbCircle
 10
140.0803786635
 20
55.3212790013
 30
0.0
 40
5.399999999999977
  0
CIRCLE
  5
11D
330
1F
100
AcDbEntity
  8
0
  6
Continuous
 62
     7
370
    25
100
AcDbCircle
 10
105.2480110008
 20
73.9310788581
 30
0.0
 40
5.40000000000002
  0
CIRCLE
  5
11E
330
1F
100
AcDbEntity
  8
0
  6
Continuous
 62
     7
370
    25
100
AcDbCircle
 10
80.7668671631
 20
105.2647918052
 30
0.0
 40
5.400000000000006
  0
CIRCLE
  5
11F
330
1F
100
AcDbEntity
  8
0
  6
Continuous
 62
     7
370
    25
100
AcDbCircle
 10
65.3486513615
 20
142.0716373993
 30
0.0
 40
5.400000000000013
  0
CIRCLE
  5
120
330
1F
100
AcDbEntity
  8
0
  6
Continuous
 62
     7
370
    25
100
AcDbCircle
 10
53.3504996947
 20
180.1862550601
 30
0.0
 40
5.399999999999984
  0
CIRCLE
  5
121
330
1F
100
AcDbEntity
  8
0
  6
Continuous
 62
     7
370
    25
100
AcDbCircle
 10
44.9020997811
 20
219.1790643711
 30
0.0
 40
5.399999999999999
  0
CIRCLE
  5
122
330
1F
100
AcDbEntity
  8
0
  6
Continuous
 62
     7
370
    25
100
AcDbCircle
 10
49.4534795676
 20
258.509657967
 30
0.0
 40
5.400000000000006
  0
CIRCLE
  5
123
330
1F
100
AcDbEntity
  8
0
  6
Continuous
 62
     7
370
    25
100
AcDbCircle
 10
11.2155624695
 20
17.2269973661
 30
0.0
 40
5.399999999999997
  0
CIRCLE
  5
124
330
1F
100
AcDbEntity
  8
0
  6
Continuous
 62
     7
370
    25
100
AcDbCircle
 10
15.9173580741
 20
-5.5036516082
 30
0.0
 40
5.399999999999999
  0
CIRCLE
  5
125
330
1F
100
AcDbEntity
  8
0
  6
Continuous
 62
     7
370
    25
100
AcDbCircle
 10
27.7355014433
 20
-25.1540101721
 30
0.0
 40
5.399999999999988
  0
CIRCLE
  5
126
330
1F
100
AcDbEntity
  8
0
  6
Continuous
 62
     7
370
    25
100
AcDbCircle
 10
45.2635700874
 20
-17.5972326754
 30
0.0
 40
5.399999999999999
  0
CIRCLE
  5
127
330
1F
100
AcDbEntity
  8
0
  6
Continuous
 62
     7
370
    25
100
AcDbCircle
 10
46.8182228351
 20
4.8952635091
 30
0.0
 40
5.399999999999999
  0
CIRCLE
  5
128
330
1F
100
AcDbEntity
  8
0
  6
Continuous
 62
     7
370
    25
100
AcDbCircle
 10
34.9248675568
 20
24.7972796337
 30
0.0
 40
5.399999999999999
  0
CIRCLE
  5
129
330
1F
100
AcDbEntity
  8
0
  6
Continuous
 62
     7
370
    25
100
AcDbCircle
 10
17.9446296176
 20
38.0941330603
 30
0.0
 40
5.399999999999999
  0
CIRCLE
  5
12A
330
1F
100
AcDbEntity
  8
0
  6
Continuous
 62
     7
370
    25
100
AcDbCircle
 10
136.1486694291
 20
255.7398585025
 30
0.0
 40
5.400000000000006
  0
CIRCLE
  5
12B
330
1F
100
AcDbEntity
  8
0
  6
Continuous
 62
     7
370
    25
100
AcDbCircle
 10
115.0728602136
 20
223.5209158459
 30
0.0
 40
5.399999999999991
  0
CIRCLE
  5
12C
330
1F
100
AcDbEntity
  8
0
  6
Continuous
 62
     7
370
    25
100
AcDbCircle
 10
86.9471985295
 20
197.9418690287
 30
0.0
 40
5.40000000000002
  0
CIRCLE
  5
12D
330
1F
100
AcDbEntity
  8
0
  6
Continuous
 62
     7
370
    25
100
AcDbCircle
 10
-86.9471985295
 20
197.9418690287
 30
0.0
 40
5.400000000000006
  0
CIRCLE
  5
12E
330
1F
100
AcDbEntity
  8
0
  6
Continuous
 62
     7
370
    25
100
AcDbCircle
 10
-115.0728602136
 20
223.5209158459
 30
0.0
 40
5.399999999999991
  0
CIRCLE
  5
12F
330
1F
100
AcDbEntity
  8
0
  6
Continuous
 62
     7
370
    25
100
AcDbCircle
 10
-136.1486694291
 20
255.7398585025
 30
0.0
 40
5.399999999999949
  0
CIRCLE
  5
130
330
1F
100
AcDbEntity
  8
0
  6
Continuous
 62
     7
370
    25
100
AcDbCircle
 10
327.6222157658
 20
-154.8661882865
 30
0.0
 40
5.400000000000091
  0
CIRCLE
  5
131
330
1F
100
AcDbEntity
  8
0
  6
Continuous
 62
     7
370
    25
100
AcDbCircle
 10
290.0
 20
-51.5
 30
0.0
 40
5.400000000000091
  0
CIRCLE
  5
132
330
1F
100
AcDbEntity
  8
0
  6
Continuous
 62
     7
370
    25
100
AcDbCircle
 10
269.1012995434
 20
-219.8288528313
 30
0.0
 40
5.400000000000034
  0
CIRCLE
  5
133
330
1F
100
AcDbEntity
  8
0
  6
Continuous
 62
     7
370
    25
100
AcDbCircle
 10
250.0
 20
-111.5
 30
0.0
 40
5.400000000000091
  0
CIRCLE
  5
134
330
1F
100
AcDbEntity
  8
0
  6
Continuous
 62
     7
370
    25
100
AcDbCircle
 10
209.5871317022
 20
-251.0814167901
 30
0.0
 40
5.39999999999992
  0
CIRCLE
  5
135
330
1F
100
AcDbEntity
  8
0
  6
Continuous
 62
     7
370
    25
100
AcDbCircle
 10
200.0
 20
-141.5
 30
0.0
 40
5.400000000000034
  0
CIRCLE
  5
136
330
1F
100
AcDbEntity
  8
0
  6
Continuous
 62
     7
370
    25
100
AcDbCircle
 10
155.0
 20
-151.5
 30
0.0
 40
5.400000000000034
  0
CIRCLE
  5
137
330
1F
100
AcDbEntity
  8
0
  6
Continuous
 62
     7
370
    25
100
AcDbCircle
 10
155.0
 20
-261.5
 30
0.0
 40
5.39999999999992
  0
CIRCLE
  5
138
330
1F
100
AcDbEntity
  8
0
  6
Continuous
 62
     7
370
    25
100
AcDbCircle
 10
100.0
 20
-271.5
 30
0.0
 40
5.400000000000006
  0
CIRCLE
  5
139
330
1F
100
AcDbEntity
  8
0
  6
Continuous
 62
     7
370
    25
100
AcDbCircle
 10
100.0
 20
-161.5
 30
0.0
 40
5.400000000000006
  0
CIRCLE
  5
13A
330
1F
100
AcDbEntity
  8
0
  6
Continuous
 62
     7
370
    25
100
AcDbCircle
 10
50.0
 20
-286.5
 30
0.0
 40
5.400000000000013
  0
CIRCLE
  5
13B
330
1F
100
AcDbEntity
  8
0
  6
Continuous
 62
     7
370
    25
100
AcDbCircle
 10
50.0
 20
-176.5
 30
0.0
 40
5.399999999999991
  0
CIRCLE
  5
13C
330
1F
100
AcDbEntity
  8
0
  6
Continuous
 62
     7
370
    25
100
AcDbCircle
 10
0.0
 20
-286.5
 30
0.0
 40
5.399999999999994
  0
CIRCLE
  5
13D
330
1F
100
AcDbEntity
  8
0
  6
Continuous
 62
     7
370
    25
100
AcDbCircle
 10
0.0
 20
-176.5
 30
0.0
 40
5.399999999999999
  0
CIRCLE
  5
13E
330
1F
100
AcDbEntity
  8
0
  6
Continuous
 62
     7
370
    25
100
AcDbCircle
 10
-50.0
 20
-286.5
 30
0.0
 40
5.400000000000027
  0
CIRCLE
  5
13F
330
1F
100
AcDbEntity
  8
0
  6
Continuous
 62
     7
370
    25
100
AcDbCircle
 10
-100.0
 20
-271.5
 30
0.0
 40
5.400000000000006
  0
CIRCLE
  5
140
330
1F
100
AcDbEntity
  8
0
  6
Continuous
 62
     7
370
    25
100
AcDbCircle
 10
-100.0
 20
-161.5
 30
0.0
 40
5.399999999999991
  0
CIRCLE
  5
141
330
1F
100
AcDbEntity
  8
0
  6
Continuous
 62
     7
370
    25
100
AcDbCircle
 10
-150.0
 20
-261.5
 30
0.0
 40
5.399999999999977
  0
CIRCLE
  5
142
330
1F
100
AcDbEntity
  8
0
  6
Continuous
 62
     7
370
    25
100
AcDbCircle
 10
-150.0
 20
-151.5
 30
0.0
 40
5.400000000000006
  0
CIRCLE
  5
143
330
1F
100
AcDbEntity
  8
0
  6
Continuous
 62
     7
370
    25
100
AcDbCircle
 10
-209.5871317022
 20
-251.0814167901
 30
0.0
 40
5.399999999999949
  0
CIRCLE
  5
144
330
1F
100
AcDbEntity
  8
0
  6
Continuous
 62
     7
370
    25
100
AcDbCircle
 10
-200.0
 20
-141.5
 30
0.0
 40
5.399999999999977
  0
CIRCLE
  5
145
330
1F
100
AcDbEntity
  8
0
  6
Continuous
 62
     7
370
    25
100
AcDbCircle
 10
-269.1012995434
 20
-219.8288528313
 30
0.0
 40
5.400000000000034
  0
CIRCLE
  5
146
330
1F
100
AcDbEntity
  8
0
  6
Continuous
 62
     7
370
    25
100
AcDbCircle
 10
-250.0
 20
-111.5
 30
0.0
 40
5.400000000000006
  0
CIRCLE
  5
147
330
1F
100
AcDbEntity
  8
0
  6
Continuous
 62
     7
370
    25
100
AcDbCircle
 10
-327.6222157658
 20
-154.8661882865
 30
0.0
 40
5.399999999999977
  0
CIRCLE
  5
148
330
1F
100
AcDbEntity
  8
0
  6
Continuous
 62
     7
370
    25
100
AcDbCircle
 10
-290.0
 20
-51.5
 30
0.0
 40
5.399999999999977
  0
CIRCLE
  5
149
330
1F
100
AcDbEntity
  8
0
  6
Continuous
 62
     7
370
    25
100
AcDbCircle
 10
-362.4899685766
 20
0.7050326556
 30
0.0
 40
5.39999999999992
  0
CIRCLE
  5
14A
330
1F
100
AcDbEntity
  8
0
  6
Continuous
 62
     7
370
    25
100
AcDbCircle
 10
-13.4882269003
 20
-203.5793549855
 30
0.0
 40
5.400000000000016
  0
CIRCLE
  5
14B
330
1F
100
AcDbEntity
  8
0
  6
Continuous
 62
     7
370
    25
100
AcDbCircle
 10
-38.9849439216
 20
-203.3749922101
 30
0.0
 40
5.400000000000027
  0
CIRCLE
  5
14C
330
1F
100
AcDbEntity
  8
0
  6
Continuous
 62
     7
370
    25
100
AcDbCircle
 10
-64.4413123495
 20
-201.9287012886
 30
0.0
 40
5.40000000000002
  0
CIRCLE
  5
14D
330
1F
100
AcDbEntity
  8
0
  6
Continuous
 62
     7
370
    25
100
AcDbCircle
 10
-89.7944356865
 20
-199.2206130317
 30
0.0
 40
5.40000000000002
  0
CIRCLE
  5
14E
330
1F
100
AcDbEntity
  8
0
  6
Continuous
 62
     7
370
    25
100
AcDbCircle
 10
-114.9797660214
 20
-195.2442184159
 30
0.0
 40
5.400000000000034
  0
CIRCLE
  5
14F
330
1F
100
AcDbEntity
  8
0
  6
Continuous
 62
     7
370
    25
100
AcDbCircle
 10
-139.9334112298
 20
-190.0069535492
 30
0.0
 40
5.400000000000063
  0
CIRCLE
  5
150
330
1F
100
AcDbEntity
  8
0
  6
Continuous
 62
     7
370
    25
100
AcDbCircle
 10
-164.591209575
 20
-183.5185909683
 30
0.0
 40
5.400000000000063
  0
CIRCLE
  5
151
330
1F
100
AcDbEntity
  8
0
  6
Continuous
 62
     7
370
    25
100
AcDbCircle
 10
-188.8400608023
 20
-175.6425572316
 30
0.0
 40
5.400000000000006
  0
CIRCLE
  5
152
330
1F
100
AcDbEntity
  8
0
  6
Continuous
 62
     7
370
    25
100
AcDbCircle
 10
-212.4877085297
 20
-166.1173894207
 30
0.0
 40
5.400000000000091
  0
CIRCLE
  5
153
330
1F
100
AcDbEntity
  8
0
  6
Continuous
 62
     7
370
    25
100
AcDbCircle
 10
-235.2605120348
 20
-154.6630770888
 30
0.0
 40
5.399999999999977
  0
CIRCLE
  5
154
330
1F
100
AcDbEntity
  8
0
  6
Continuous
 62
     7
370
    25
100
AcDbCircle
 10
-256.7820654069
 20
-141.0087142889
 30
0.0
 40
5.400000000000063
  0
CIRCLE
  5
155
330
1F
100
AcDbEntity
  8
0
  6
Continuous
 62
     7
370
    25
100
AcDbCircle
 10
-276.5725840308
 20
-124.953742071
 30
0.0
 40
5.400000000000034
  0
CIRCLE
  5
156
330
1F
100
AcDbEntity
  8
0
  6
Continuous
 62
     7
370
    25
100
AcDbCircle
 10
-294.3619589
 20
-106.700787342
 30
0.0
 40
5.400000000000034
  0
CIRCLE
  5
157
330
1F
100
AcDbEntity
  8
0
  6
Continuous
 62
     7
370
    25
100
AcDbCircle
 10
-310.3321618431
 20
-86.8308258361
 30
0.0
 40
5.399999999999977
  0
CIRCLE
  5
158
330
1F
100
AcDbEntity
  8
0
  6
Continuous
 62
     7
370
    25
100
AcDbCircle
 10
-13.7152754895
 20
-247.5864145057
 30
0.0
 40
5.400000000000015
  0
CIRCLE
  5
159
330
1F
100
AcDbEntity
  8
0
  6
Continuous
 62
     7
370
    25
100
AcDbCircle
 10
-40.9388203432
 20
-246.4762522368
 30
0.0
 40
5.400000000000006
  0
CIRCLE
  5
15A
330
1F
100
AcDbEntity
  8
0
  6
Continuous
 62
     7
370
    25
100
AcDbCircle
 10
-68.0487364392
 20
-243.7578382104
 30
0.0
 40
5.400000000000013
  0
CIRCLE
  5
15B
330
1F
100
AcDbEntity
  8
0
  6
Continuous
 62
     7
370
    25
100
AcDbCircle
 10
-94.9396717473
 20
-239.3764618108
 30
0.0
 40
5.40000000000002
  0
CIRCLE
  5
15C
330
1F
100
AcDbEntity
  8
0
  6
Continuous
 62
     7
370
    25
100
AcDbCircle
 10
-121.494069682
 20
-233.2804609389
 30
0.0
 40
5.400000000000034
  0
CIRCLE
  5
15D
330
1F
100
AcDbEntity
  8
0
  6
Continuous
 62
     7
370
    25
100
AcDbCircle
 10
-147.5819343948
 20
-225.4256137107
 30
0.0
 40
5.400000000000063
  0
CIRCLE
  5
15E
330
1F
100
AcDbEntity
  8
0
  6
Continuous
 62
     7
370
    25
100
AcDbCircle
 10
-173.0617590608
 20
-215.7803273798
 30
0.0
 40
5.400000000000034
  0
CIRCLE
  5
15F
330
1F
100
AcDbEntity
  8
0
  6
Continuous
 62
     7
370
    25
100
AcDbCircle
 10
-197.7832236965
 20
-204.3312126783
 30
0.0
 40
5.400000000000006
  0
CIRCLE
  5
160
330
1F
100
AcDbEntity
  8
0
  6
Continuous
 62
     7
370
    25
100
AcDbCircle
 10
-221.5916409968
 20
-191.0882661905
 30
0.0
 40
5.400000000000006
  0
CIRCLE
  5
161
330
1F
100
AcDbEntity
  8
0
  6
Continuous
 62
     7
370
    25
100
AcDbCircle
 10
-244.3246761386
 20
-176.074945753
 30
0.0
 40
5.399999999999977
  0
CIRCLE
  5
162
330
1F
100
AcDbEntity
  8
0
  6
Continuous
 62
     7
370
    25
100
AcDbCircle
 10
-265.7838784988
 20
-159.2927772573
 30
0.0
 40
5.400000000000034
  0
CIRCLE
  5
163
330
1F
100
AcDbEntity
  8
0
  6
Continuous
 62
     7
370
    25
100
AcDbCircle
 10
-285.714199082
 20
-140.722987036
 30
0.0
 40
5.400000000000034
  0
CIRCLE
  5
164
330
1F
100
AcDbEntity
  8
0
  6
Continuous
 62
     7
370
    25
100
AcDbCircle
 10
-303.7902854876
 20
-120.3465826138
 30
0.0
 40
5.400000000000034
  0
CIRCLE
  5
165
330
1F
100
AcDbEntity
  8
0
  6
Continuous
 62
     7
370
    25
100
AcDbCircle
 10
-319.6094013107
 20
-98.1757300938
 30
0.0
 40
5.399999999999977
  0
CIRCLE
  5
166
330
1F
100
AcDbEntity
  8
0
  6
Continuous
 62
     7
370
    25
100
AcDbCircle
 10
-332.9949968342
 20
-74.4517362999
 30
0.0
 40
5.399999999999977
  0
CIRCLE
  5
167
330
1F
100
AcDbEntity
  8
0
  6
Continuous
 62
     7
370
    25
100
AcDbCircle
 10
-344.4398827153
 20
-49.7269536006
 30
0.0
 40
5.400000000000034
  0
CIRCLE
  5
168
330
1F
100
AcDbEntity
  8
0
  6
Continuous
 62
     7
370
    25
100
AcDbCircle
 10
-354.6354920825
 20
-24.4577248928
 30
0.0
 40
5.400000000000034
  0
CIRCLE
  5
169
330
1F
100
AcDbEntity
  8
0
  6
Continuous
 62
     7
370
    25
100
AcDbCircle
 10
362.4899685766
 20
0.7050326556
 30
0.0
 40
5.400000000000034
  0
CIRCLE
  5
16A
330
1F
100
AcDbEntity
  8
0
  6
Continuous
 62
     7
370
    25
100
AcDbCircle
 10
139.9334112298
 20
-190.0069535492
 30
0.0
 40
5.400000000000063
  0
CIRCLE
  5
16B
330
1F
100
AcDbEntity
  8
0
  6
Continuous
 62
     7
370
    25
100
AcDbCircle
 10
114.9797660214
 20
-195.2442184159
 30
0.0
 40
5.400000000000034
  0
CIRCLE
  5
16C
330
1F
100
AcDbEntity
  8
0
  6
Continuous
 62
     7
370
    25
100
AcDbCircle
 10
89.7944356865
 20
-199.2206130317
 30
0.0
 40
5.40000000000002
  0
CIRCLE
  5
16D
330
1F
100
AcDbEntity
  8
0
  6
Continuous
 62
     7
370
    25
100
AcDbCircle
 10
64.4413123495
 20
-201.9287012886
 30
0.0
 40
5.400000000000006
  0
CIRCLE
  5
16E
330
1F
100
AcDbEntity
  8
0
  6
Continuous
 62
     7
370
    25
100
AcDbCircle
 10
38.9849439216
 20
-203.3749922101
 30
0.0
 40
5.400000000000027
  0
CIRCLE
  5
16F
330
1F
100
AcDbEntity
  8
0
  6
Continuous
 62
     7
370
    25
100
AcDbCircle
 10
13.4882269003
 20
-203.5793549855
 30
0.0
 40
5.400000000000016
  0
CIRCLE
  5
170
330
1F
100
AcDbEntity
  8
0
  6
Continuous
 62
     7
370
    25
100
AcDbCircle
 10
164.591209575
 20
-183.5185909683
 30
0.0
 40
5.400000000000063
  0
CIRCLE
  5
171
330
1F
100
AcDbEntity
  8
0
  6
Continuous
 62
     7
370
    25
100
AcDbCircle
 10
188.8400608023
 20
-175.6425572316
 30
0.0
 40
5.400000000000006
  0
CIRCLE
  5
172
330
1F
100
AcDbEntity
  8
0
  6
Continuous
 62
     7
370
    25
100
AcDbCircle
 10
212.4877085297
 20
-166.1173894207
 30
0.0
 40
5.400000000000091
  0
CIRCLE
  5
173
330
1F
100
AcDbEntity
  8
0
  6
Continuous
 62
     7
370
    25
100
AcDbCircle
 10
235.2605120348
 20
-154.6630770888
 30
0.0
 40
5.399999999999977
  0
CIRCLE
  5
174
330
1F
100
AcDbEntity
  8
0
  6
Continuous
 62
     7
370
    25
100
AcDbCircle
 10
256.7820654069
 20
-141.0087142889
 30
0.0
 40
5.400000000000063
  0
CIRCLE
  5
175
330
1F
100
AcDbEntity
  8
0
  6
Continuous
 62
     7
370
    25
100
AcDbCircle
 10
276.5725840308
 20
-124.953742071
 30
0.0
 40
5.400000000000034
  0
CIRCLE
  5
176
330
1F
100
AcDbEntity
  8
0
  6
Continuous
 62
     7
370
    25
100
AcDbCircle
 10
294.3619589
 20
-106.700787342
 30
0.0
 40
5.400000000000034
  0
CIRCLE
  5
177
330
1F
100
AcDbEntity
  8
0
  6
Continuous
 62
     7
370
    25
100
AcDbCircle
 10
310.3321618431
 20
-86.8308258361
 30
0.0
 40
5.399999999999977
  0
CIRCLE
  5
178
330
1F
100
AcDbEntity
  8
0
  6
Continuous
 62
     7
370
    25
100
AcDbCircle
 10
13.7152754895
 20
-247.5864145057
 30
0.0
 40
5.400000000000015
  0
CIRCLE
  5
179
330
1F
100
AcDbEntity
  8
0
  6
Continuous
 62
     7
370
    25
100
AcDbCircle
 10
40.9388203432
 20
-246.4762522368
 30
0.0
 40
5.400000000000006
  0
CIRCLE
  5
17A
330
1F
100
AcDbEntity
  8
0
  6
Continuous
 62
     7
370
    25
100
AcDbCircle
 10
68.0487364392
 20
-243.7578382104
 30
0.0
 40
5.400000000000013
  0
CIRCLE
  5
17B
330
1F
100
AcDbEntity
  8
0
  6
Continuous
 62
     7
370
    25
100
AcDbCircle
 10
94.9396717473
 20
-239.3764618108
 30
0.0
 40
5.40000000000002
  0
CIRCLE
  5
17C
330
1F
100
AcDbEntity
  8
0
  6
Continuous
 62
     7
370
    25
100
AcDbCircle
 10
121.494069682
 20
-233.2804609389
 30
0.0
 40
5.400000000000034
  0
CIRCLE
  5
17D
330
1F
100
AcDbEntity
  8
0
  6
Continuous
 62
     7
370
    25
100
AcDbCircle
 10
147.5819343948
 20
-225.4256137107
 30
0.0
 40
5.400000000000063
  0
CIRCLE
  5
17E
330
1F
100
AcDbEntity
  8
0
  6
Continuous
 62
     7
370
    25
100
AcDbCircle
 10
173.0617590608
 20
-215.7803273798
 30
0.0
 40
5.400000000000034
  0
CIRCLE
  5
17F
330
1F
100
AcDbEntity
  8
0
  6
Continuous
 62
     7
370
    25
100
AcDbCircle
 10
197.7832236965
 20
-204.3312126783
 30
0.0
 40
5.400000000000006
  0
CIRCLE
  5
180
330
1F
100
AcDbEntity
  8
0
  6
Continuous
 62
     7
370
    25
100
AcDbCircle
 10
221.5916409968
 20
-191.0882661905
 30
0.0
 40
5.400000000000006
  0
CIRCLE
  5
181
330
1F
100
AcDbEntity
  8
0
  6
Continuous
 62
     7
370
    25
100
AcDbCircle
 10
244.3246761386
 20
-176.074945753
 30
0.0
 40
5.399999999999977
  0
CIRCLE
  5
182
330
1F
100
AcDbEntity
  8
0
  6
Continuous
 62
     7
370
    25
100
AcDbCircle
 10
265.7838784988
 20
-159.2927772573
 30
0.0
 40
5.400000000000034
  0
CIRCLE
  5
183
330
1F
100
AcDbEntity
  8
0
  6
Continuous
 62
     7
370
    25
100
AcDbCircle
 10
285.714199082
 20
-140.722987036
 30
0.0
 40
5.400000000000034
  0
CIRCLE
  5
184
330
1F
100
AcDbEntity
  8
0
  6
Continuous
 62
     7
370
    25
100
AcDbCircle
 10
303.7902854876
 20
-120.3465826138
 30
0.0
 40
5.400000000000034
  0
CIRCLE
  5
185
330
1F
100
AcDbEntity
  8
0
  6
Continuous
 62
     7
370
    25
100
AcDbCircle
 10
319.6094013107
 20
-98.1757300938
 30
0.0
 40
5.399999999999977
  0
CIRCLE
  5
186
330
1F
100
AcDbEntity
  8
0
  6
Continuous
 62
     7
370
    25
100
AcDbCircle
 10
332.9949968342
 20
-74.4517362999
 30
0.0
 40
5.399999999999977
  0
CIRCLE
  5
187
330
1F
100
AcDbEntity
  8
0
  6
Continuous
 62
     7
370
    25
100
AcDbCircle
 10
344.4398827153
 20
-49.7269536006
 30
0.0
 40
5.400000000000034
  0
CIRCLE
  5
188
330
1F
100
AcDbEntity
  8
0
  6
Continuous
 62
     7
370
    25
100
AcDbCircle
 10
354.6354920825
 20
-24.4577248928
 30
0.0
 40
5.400000000000034
  0
CIRCLE
  5
189
330
1F
100
AcDbEntity
  8
0
  6
Continuous
 62
     7
370
    25
100
AcDbCircle
 10
0.0
 20
-116.5
 30
0.0
 40
5.400000000000022
  0
CIRCLE
  5
18A
330
1F
100
AcDbEntity
  8
0
  6
Continuous
 62
     7
370
    25
100
AcDbCircle
 10
-49.8966299985
 20
-127.8885801912
 30
0.0
 40
5.399999999999977
  0
CIRCLE
  5
18B
330
1F
100
AcDbEntity
  8
0
  6
Continuous
 62
     7
370
    25
100
AcDbCircle
 10
49.8966299985
 20
-127.8885801912
 30
0.0
 40
5.399999999999984
  0
CIRCLE
  5
18C
330
1F
100
AcDbEntity
  8
0
  6
Continuous
 62
     7
370
    25
100
AcDbCircle
 10
89.9106204838
 20
-303.2013272138
 30
0.0
 40
5.399999999999977
  0
CIRCLE
  5
18D
330
1F
100
AcDbEntity
  8
0
  6
Continuous
 62
     7
370
    25
100
AcDbCircle
 10
49.8966299985
 20
-335.1114198088
 30
0.0
 40
5.40000000000002
  0
CIRCLE
  5
18E
330
1F
100
AcDbEntity
  8
0
  6
Continuous
 62
     7
370
    25
100
AcDbCircle
 10
0.0
 20
-346.5
 30
0.0
 40
5.399999999999995
  0
CIRCLE
  5
18F
330
1F
100
AcDbEntity
  8
0
  6
Continuous
 62
     7
370
    25
100
AcDbCircle
 10
-49.8966299985
 20
-335.1114198088
 30
0.0
 40
5.40000000000002
  0
CIRCLE
  5
190
330
1F
100
AcDbEntity
  8
0
  6
Continuous
 62
     7
370
    25
100
AcDbCircle
 10
-89.9106204838
 20
-303.2013272138
 30
0.0
 40
5.399999999999991
  0
SPLINE
  5
191
330
1F
100
AcDbEntity
  8
0
  6
Continuous
 62
     7
370
    25
100
AcDbSpline
210
0.0
220
0.0
230
1.0
 70
    11
 71
     3
 72
    20
 73
    16
 74
     0
 42
0.000000001
 43
0.00000001
 40
0.0
 40
0.0
 40
0.0
 40
0.0
 40
0.0640390602842876
 40
0.1494049214578771
 40
0.2019875038659991
 40
0.2572034440187937
 40
0.3241522044408834
 40
0.3397075370627056
 40
0.4127567702370152
 40
0.4851268356761833
 40
0.5735303758854264
 40
0.7835058984844895
 40
0.8586712403726833
 40
0.9858671240372683
 40
0.9999999999999999
 40
0.9999999999999999
 40
0.9999999999999999
 40
0.9999999999999999
 10
-380.9999999999999
 20
105.2932640082533
 30
0.0
 10
-367.5444198629186
 20
162.7080709439136
 30
0.0
 10
-289.6315980855073
 20
319.7271467768981
 30
0.0
 10
-157.0295547199739
 20
356.4431499658635
 30
0.0
 10
3.203535594792393
 20
389.0460427307972
 30
0.0
 10
141.2160429096833
 20
366.7507770269915
 30
0.0
 10
250.875956154337
 20
313.1352113587083
 30
0.0
 10
348.716467322115
 20
229.6623208478022
 30
0.0
 10
384.8765185182297
 20
108.4351075220874
 30
0.0
 10
411.7271897386523
 20
-84.41364824733544
 30
0.0
 10
267.2716177369815
 20
-375.1887748156347
 30
0.0
 10
-129.1678545850871
 20
-406.582549785758
 30
0.0
 10
-399.6989228125803
 20
-168.2106859963652
 30
0.0
 10
-403.9531291656839
 20
-29.27142100582034
 30
0.0
 10
-383.9695320986874
 20
92.62230442134381
 30
0.0
 10
-380.9999999999999
 20
105.2932640082533
 30
0.0
  0
CIRCLE
  5
192
330
1F
100
AcDbEntity
  8
0
  6
Continuous
 62
     7
370
    25
100
AcDbCircle
 10
-50.0
 20
-176.5
 30
0.0
 40
5.399999999999984
  0
LINE
  5
193
330
1F
100
AcDbEntity
  8
0
  6
Continuous
 62
     7
370
    25
100
AcDbLine
 10
-400.0
 20
-381.0
 30
0.0
 11
400.0
 21
-381.0
 31
0.0
  0
LINE
  5
194
330
1F
100
AcDbEntity
  8
0
  6
Continuous
 62
     7
370
    25
100
AcDbLine
 10
400.0
 20
-381.0
 30
0.0
 11
400.0
 21
381.0
 31
0.0
  0
LINE
  5
195
330
1F
100
AcDbEntity
  8
0
  6
Continuous
 62
     7
370
    25
100
AcDbLine
 10
400.0
 20
381.0
 30
0.0
 11
-400.0
 21
381.0
 31
0.0
  0
LINE
  5
196
330
1F
100
AcDbEntity
  8
0
  6
Continuous
 62
     7
370
    25
100
AcDbLine
 10
-400.0
 20
381.0
 30
0.0
 11
-400.0
 21
-381.0
 31
0.0
  0
LINE
  5
197
330
1F
100
AcDbEntity
  8
0
  6
Continuous
 62
     7
370
    25
100
AcDbLine
 10
-405.0
 20
386.0
 30
0.0
 11
-405.0
 21
-386.0
 31
0.0
  0
LINE
  5
198
330
1F
100
AcDbEntity
  8
0
  6
Continuous
 62
     7
370
    25
100
AcDbLine
 10
405.0
 20
386.0
 30
0.0
 11
-405.0
 21
386.0
 31
0.0
  0
LINE
  5
199
330
1F
100
AcDbEntity
  8
0
  6
Continuous
 62
     7
370
    25
100
AcDbLine
 10
405.0
 20
-386.0
 30
0.0
 11
405.0
 21
386.0
 31
0.0
  0
LINE
  5
19A
330
1F
100
AcDbEntity
  8
0
  6
Continuous
 62
     7
370
    25
100
AcDbLine
 10
-405.0
 20
-386.0
 30
0.0
 11
405.0
 21
-386.0
 31
0.0
  0
ENDSEC
  0
SECTION
  2
OBJECTS
  0
DICTIONARY
  5
C
330
0
100
AcDbDictionary
281
     1
  3
ACAD_GROUP
350
D
  3
ACAD_LAYOUT
350
1A
  3
ACAD_MLINESTYLE
350
17
  3
ACAD_PLOTSETTINGS
350
19
  3
ACAD_PLOTSTYLENAME
350
E
  3
ACAD_SCALELIST
350
47
  0
DICTIONARY
  5
D
102
{ACAD_REACTORS
330
C
102
}
330
C
100
AcDbDictionary
281
     1
  0
DICTIONARY
  5
1A
102
{ACAD_REACTORS
330
C
102
}
330
C
100
AcDbDictionary
281
     1
  3
Layout1
350
1E
  3
Layout2
350
26
  3
Model
350
22
  0
DICTIONARY
  5
17
102
{ACAD_REACTORS
330
C
102
}
330
C
100
AcDbDictionary
281
     1
  3
Standard
350
18
  0
DICTIONARY
  5
19
102
{ACAD_REACTORS
330
C
102
}
330
C
100
AcDbDictionary
281
     1
  0
ACDBDICTIONARYWDFLT
  5
E
102
{ACAD_REACTORS
330
C
102
}
330
C
100
AcDbDictionary
281
     1
  3
Normal
350
F
100
AcDbDictionaryWithDefault
340
F
  0
DICTIONARY
  5
47
102
{ACAD_REACTORS
330
C
102
}
330
C
100
AcDbDictionary
281
     1
  3
A0
350
48
  3
A1
350
49
  3
A2
350
4A
  3
A3
350
4B
  3
A4
350
4C
  3
A5
350
4D
  3
A6
350
4E
  3
A7
350
4F
  3
A8
350
50
  3
A9
350
51
  3
B0
350
52
  3
B1
350
53
  3
B2
350
54
  3
B3
350
55
  3
B4
350
56
  3
B5
350
57
  3
B6
350
58
  3
B7
350
59
  3
B8
350
5A
  3
B9
350
5B
  3
C0
350
5C
  3
C1
350
5D
  3
C2
350
5E
  3
C3
350
5F
  3
C4
350
60
  3
C5
350
61
  3
C6
350
62
  3
C7
350
63
  3
C8
350
64
  3
C9
350
65
  3
D0
350
66
  3
D1
350
67
  3
D2
350
68
  0
LAYOUT
  5
1E
102
{ACAD_REACTORS
330
1A
102
}
330
1A
100
AcDbPlotSettings
  1

  2
none_device
  4

  6

 40
0.0
 41
0.0
 42
0.0
 43
0.0
 44
0.0
 45
0.0
 46
0.0
 47
0.0
 48
0.0
 49
0.0
140
0.0
141
0.0
142
1.0
143
1.0
 70
   688
 72
     1
 73
     0
 74
     5
  7

 75
    16
147
1.0
148
0.0
149
0.0
100
AcDbLayout
  1
Layout1
 70
     1
 71
     1
 10
0.0
 20
0.0
 11
420.0
 21
297.0
 12
0.0
 22
0.0
 32
0.0
 14
1.0000000000E+20
 24
1.0000000000E+20
 34
1.0000000000E+20
 15
-1.0000000000E+20
 25
-1.0000000000E+20
 35
-1.0000000000E+20
146
0.0
 13
0.0
 23
0.0
 33
0.0
 16
1.0
 26
0.0
 36
0.0
 17
0.0
 27
1.0
 37
0.0
 76
     0
330
1B
  0
LAYOUT
  5
26
102
{ACAD_REACTORS
330
1A
102
}
330
1A
100
AcDbPlotSettings
  1

  2
none_device
  4

  6

 40
0.0
 41
0.0
 42
0.0
 43
0.0
 44
0.0
 45
0.0
 46
0.0
 47
0.0
 48
0.0
 49
0.0
140
0.0
141
0.0
142
1.0
143
1.0
 70
   688
 72
     1
 73
     0
 74
     5
  7

 75
    16
147
1.0
148
0.0
149
0.0
100
AcDbLayout
  1
Layout2
 70
     1
 71
     2
 10
0.0
 20
0.0
 11
0.0
 21
0.0
 12
0.0
 22
0.0
 32
0.0
 14
0.0
 24
0.0
 34
0.0
 15
0.0
 25
0.0
 35
0.0
146
0.0
 13
0.0
 23
0.0
 33
0.0
 16
1.0
 26
0.0
 36
0.0
 17
0.0
 27
1.0
 37
0.0
 76
     0
330
23
  0
LAYOUT
  5
22
102
{ACAD_REACTORS
330
1A
102
}
330
1A
100
AcDbPlotSettings
  1

  2
none_device
  4
ANSI_A_(11.00_x_8.50_Inches)
  6

 40
6.35
 41
19.05
 42
6.35000508
 43
19.05000254
 44
279.4
 45
215.9
 46
133.34999746
 47
88.89999873
 48
0.0
 49
0.0
140
0.0
141
0.0
142
0.0109002591
143
1.0
 70
  1696
 72
     0
 73
     0
 74
     0
  7

 75
     0
147
0.0179189148
148
-1300.4909072572
149
0.0
100
AcDbLayout
  1
Model
 70
     1
 71
     0
 10
0.0
 20
0.0
 11
420.0
 21
297.0
 12
0.0
 22
0.0
 32
0.0
 14
-405.0
 24
-386.0
 34
0.0
 15
405.0
 25
386.0
 35
0.0
146
0.0
 13
0.0
 23
0.0
 33
0.0
 16
1.0
 26
0.0
 36
0.0
 17
0.0
 27
1.0
 37
0.0
 76
     0
330
1F
331
29
  0
MLINESTYLE
  5
18
102
{ACAD_REACTORS
330
17
102
}
330
17
100
AcDbMlineStyle
  2
Standard
 70
     0
  3

 62
   256
 51
90.0
 52
90.0
 71
     2
 49
0.5
 62
   256
  6
BYLAYER
 49
-0.5
 62
   256
  6
BYLAYER
  0
ACDBPLACEHOLDER
  5
F
102
{ACAD_REACTORS
330
E
102
}
330
E
  0
SCALE
  5
48
102
{ACAD_REACTORS
330
47
102
}
330
47
100
AcDbScale
 70
     0
300
1:1
140
1.0
141
1.0
290
     1
  0
SCALE
  5
49
102
{ACAD_REACTORS
330
47
102
}
330
47
100
AcDbScale
 70
     0
300
1:2
140
1.0
141
2.0
290
     0
  0
SCALE
  5
4A
102
{ACAD_REACTORS
330
47
102
}
330
47
100
AcDbScale
 70
     0
300
1:4
140
1.0
141
4.0
290
     0
  0
SCALE
  5
4B
102
{ACAD_REACTORS
330
47
102
}
330
47
100
AcDbScale
 70
     0
300
1:5
140
1.0
141
5.0
290
     0
  0
SCALE
  5
4C
102
{ACAD_REACTORS
330
47
102
}
330
47
100
AcDbScale
 70
     0
300
1:8
140
1.0
141
8.0
290
     0
  0
SCALE
  5
4D
102
{ACAD_REACTORS
330
47
102
}
330
47
100
AcDbScale
 70
     0
300
1:10
140
1.0
141
10.0
290
     0
  0
SCALE
  5
4E
102
{ACAD_REACTORS
330
47
102
}
330
47
100
AcDbScale
 70
     0
300
1:16
140
1.0
141
16.0
290
     0
  0
SCALE
  5
4F
102
{ACAD_REACTORS
330
47
102
}
330
47
100
AcDbScale
 70
     0
300
1:20
140
1.0
141
20.0
290
     0
  0
SCALE
  5
50
102
{ACAD_REACTORS
330
47
102
}
330
47
100
AcDbScale
 70
     0
300
1:30
140
1.0
141
30.0
290
     0
  0
SCALE
  5
51
102
{ACAD_REACTORS
330
47
102
}
330
47
100
AcDbScale
 70
     0
300
1:40
140
1.0
141
40.0
290
     0
  0
SCALE
  5
52
102
{ACAD_REACTORS
330
47
102
}
330
47
100
AcDbScale
 70
     0
300
1:50
140
1.0
141
50.0
290
     0
  0
SCALE
  5
53
102
{ACAD_REACTORS
330
47
102
}
330
47
100
AcDbScale
 70
     0
300
1:100
140
1.0
141
100.0
290
     0
  0
SCALE
  5
54
102
{ACAD_REACTORS
330
47
102
}
330
47
100
AcDbScale
 70
     0
300
2:1
140
2.0
141
1.0
290
     0
  0
SCALE
  5
55
102
{ACAD_REACTORS
330
47
102
}
330
47
100
AcDbScale
 70
     0
300
4:1
140
4.0
141
1.0
290
     0
  0
SCALE
  5
56
102
{ACAD_REACTORS
330
47
102
}
330
47
100
AcDbScale
 70
     0
300
8:1
140
8.0
141
1.0
290
     0
  0
SCALE
  5
57
102
{ACAD_REACTORS
330
47
102
}
330
47
100
AcDbScale
 70
     0
300
10:1
140
10.0
141
1.0
290
     0
  0
SCALE
  5
58
102
{ACAD_REACTORS
330
47
102
}
330
47
100
AcDbScale
 70
     0
300
100:1
140
100.0
141
1.0
290
     0
  0
SCALE
  5
59
102
{ACAD_REACTORS
330
47
102
}
330
47
100
AcDbScale
 70
     0
300
1/128" = 1'-0"
140
0.0078125
141
12.0
290
     0
  0
SCALE
  5
5A
102
{ACAD_REACTORS
330
47
102
}
330
47
100
AcDbScale
 70
     0
300
1/64" = 1'-0"
140
0.015625
141
12.0
290
     0
  0
SCALE
  5
5B
102
{ACAD_REACTORS
330
47
102
}
330
47
100
AcDbScale
 70
     0
300
1/32" = 1'-0"
140
0.03125
141
12.0
290
     0
  0
SCALE
  5
5C
102
{ACAD_REACTORS
330
47
102
}
330
47
100
AcDbScale
 70
     0
300
1/16" = 1'-0"
140
0.0625
141
12.0
290
     0
  0
SCALE
  5
5D
102
{ACAD_REACTORS
330
47
102
}
330
47
100
AcDbScale
 70
     0
300
3/32" = 1'-0"
140
0.09375
141
12.0
290
     0
  0
SCALE
  5
5E
102
{ACAD_REACTORS
330
47
102
}
330
47
100
AcDbScale
 70
     0
300
1/8" = 1'-0"
140
0.125
141
12.0
290
     0
  0
SCALE
  5
5F
102
{ACAD_REACTORS
330
47
102
}
330
47
100
AcDbScale
 70
     0
300
3/16" = 1'-0"
140
0.1875
141
12.0
290
     0
  0
SCALE
  5
60
102
{ACAD_REACTORS
330
47
102
}
330
47
100
AcDbScale
 70
     0
300
1/4" = 1'-0"
140
0.25
141
12.0
290
     0
  0
SCALE
  5
61
102
{ACAD_REACTORS
330
47
102
}
330
47
100
AcDbScale
 70
     0
300
3/8" = 1'-0"
140
0.375
141
12.0
290
     0
  0
SCALE
  5
62
102
{ACAD_REACTORS
330
47
102
}
330
47
100
AcDbScale
 70
     0
300
1/2" = 1'-0"
140
0.5
141
12.0
290
     0
  0
SCALE
  5
63
102
{ACAD_REACTORS
330
47
102
}
330
47
100
AcDbScale
 70
     0
300
3/4" = 1'-0"
140
0.75
141
12.0
290
     0
  0
SCALE
  5
64
102
{ACAD_REACTORS
330
47
102
}
330
47
100
AcDbScale
 70
     0
300
1" = 1'-0"
140
1.0
141
12.0
290
     0
  0
SCALE
  5
65
102
{ACAD_REACTORS
330
47
102
}
330
47
100
AcDbScale
 70
     0
300
1-1/2" = 1'-0"
140
1.5
141
12.0
290
     0
  0
SCALE
  5
66
102
{ACAD_REACTORS
330
47
102
}
330
47
100
AcDbScale
 70
     0
300
3" = 1'-0"
140
3.0
141
12.0
290
     0
  0
SCALE
  5
67
102
{ACAD_REACTORS
330
47
102
}
330
47
100
AcDbScale
 70
     0
300
6" = 1'-0"
140
6.0
141
12.0
290
     0
  0
SCALE
  5
68
102
{ACAD_REACTORS
330
47
102
}
330
47
100
AcDbScale
 70
     0
300
1'-0" = 1'-0"
140
12.0
141
12.0
290
     0
  0
ENDSEC
  0
EOF
